<svg width="100%" viewBox="0 0 394 147" fill="none" xmlns="http://www.w3.org/2000/svg">
<path d="M291.249 134.052C290.753 135.654 290.488 136.453 290.465 136.449C290.438 136.442 290.622 135.723 291.014 134.294C291.103 134.206 291.183 134.125 291.252 134.048L291.249 134.052Z" fill="#010101"/>
<path d="M350.55 116.436L349.325 117.32L349.29 117.347C346.854 119.114 344.418 120.881 341.982 122.641C341.921 122.687 341.863 122.729 341.802 122.772C341.529 122.968 341.256 123.171 340.98 123.367L339.95 124.116C339.95 124.116 339.989 124.093 340.004 124.086C340.93 124.862 342.259 126.087 343.631 127.812C344.507 128.915 344.949 129.48 345.168 130.16C345.971 132.657 344.142 135.323 342.882 137.168C340.926 140.022 338.628 141.751 337.387 142.581C337.33 142.616 337.088 142.773 336.734 142.992C335.278 143.884 330.933 146.419 325.354 146.035C324.59 145.981 323.46 145.851 322.104 145.486C321.209 143.949 320.317 142.416 319.422 140.879C315.265 139.427 309.368 137.867 302.179 137.513C295.936 137.206 290.626 137.902 286.657 138.724C286.93 137.771 287.207 136.818 287.48 135.869C286.123 136.868 281.148 140.287 274.428 139.58C270.986 139.219 268.385 137.909 266.863 136.972C266.518 136.895 266.168 136.826 265.822 136.76C263.901 136.403 261.934 136.219 259.986 136.215C258.534 136.215 257.066 136.311 255.625 136.507C255.191 136.572 254.761 136.637 254.327 136.703C252.671 134.182 251.007 131.67 249.348 129.153C248.871 130.571 248.395 131.989 247.915 133.406C244.295 132.534 240.68 131.654 237.057 130.782C236.765 129.987 236.477 129.192 236.181 128.393C235.647 129.818 235.144 131.22 234.671 132.588C232.731 132.211 230.722 131.881 228.651 131.604C216.986 130.048 206.39 130.702 197.427 132.215L198.218 129.745C198.268 129.58 198.322 129.418 198.368 129.257L197.066 129.342C196.685 131.032 196.301 132.73 195.921 134.421C191.545 135.12 187.165 135.819 182.789 136.518C183.104 135.423 183.422 134.328 183.741 133.233L180.756 134.136L181.724 131.17C181.809 130.917 181.89 130.663 181.97 130.41C179.634 131.159 177.421 131.943 175.32 132.745C172.669 130.682 170.018 128.615 167.363 126.552C166.99 127.666 166.625 128.869 166.299 130.16C166.007 131.293 165.776 132.377 165.584 133.406C164.539 133.16 163.425 132.945 162.245 132.78C157.804 132.154 153.843 132.411 150.654 132.934C150.788 132.461 150.919 131.989 151.05 131.52L150.504 131.485C146.62 131.251 142.697 131.282 138.847 131.574C135.221 131.847 131.563 132.358 127.982 133.095L124.962 133.714L126.065 130.778C126.522 129.561 126.96 128.331 127.387 127.102C123.948 128.066 121.382 128.181 120.567 128.208C118.704 128.266 117.175 128.139 116.164 128.016L115.707 129.791L114.869 133.03L114.501 134.474C112.695 134.213 110.609 134.017 108.28 134.002C105.96 133.986 103.874 134.152 102.068 134.394L98.8982 134.828C99.5744 132.584 100.243 130.275 100.888 127.901C99.8894 129.107 98.6599 130.337 97.1539 131.443C96.4892 131.935 90.4227 136.2 83.1497 134.836C83.0921 134.824 83.023 134.813 82.9576 134.801C80.0031 134.117 77.986 132.557 77.1523 131.866C76.8565 131.616 76.576 131.37 76.3109 131.12C75.3812 132.746 73.7214 135.181 70.9629 137.421C69.6566 138.478 67.0824 140.526 63.2481 141.475C61.6729 141.866 55.4641 143.403 50.0315 139.634C45.01 136.15 44.0495 130.483 43.6999 128.412C43.0698 124.689 43.6768 121.596 44.1763 119.802L45.1752 116.916L47.0117 119.356C47.8954 120.524 48.9558 121.396 50.1737 121.953C50.7923 122.238 51.3378 122.38 52.1907 122.564C52.2445 122.576 52.379 122.606 52.5788 122.641C53.8044 122.872 58.119 123.567 62.2991 122.948C63.1981 122.818 63.5631 122.641 63.7091 122.495C63.3825 122.211 62.6372 121.761 62.0187 121.385C61.5999 121.131 61.1234 120.847 60.6124 120.52C58.2381 119.01 56.8089 118.104 55.9752 116.432C55.5218 115.529 55.0453 114.031 55.3335 112.045C55.6524 109.851 56.9318 107.895 59.3638 105.886C69.1263 97.8331 80.3988 99.8348 80.8752 99.9232H80.8906C82.9384 100.323 84.9324 100.984 86.8188 101.89L88.9357 102.905L87.2415 104.53L86.0043 105.713L88.5439 104.856L91.4831 103.861L90.6685 106.716L93.8651 105.997C94.0649 105.045 94.257 104.096 94.4529 103.143C99.8778 101.775 105.307 100.407 110.735 99.0357L110.101 101.875C110.778 101.737 111.45 101.61 112.122 101.498C116.94 100.699 122.938 99.7042 127.633 100.584C130.115 101.045 132.059 102.013 133.419 103.458C133.461 103.465 133.503 103.477 133.545 103.492L133.592 103.231L134.687 102.966C138.763 101.994 142.943 101.183 147.108 100.557C151.299 99.927 155.556 99.4775 159.763 99.2085L162.065 99.0664L161.608 100.945C164.078 100.334 166.183 99.9039 167.801 99.6004C176.833 97.9215 179.765 98.5861 181.452 99.1471C182.689 99.5659 184.218 100.092 185.747 101.433C186.926 102.474 187.837 103.754 188.475 105.152C188.69 104.046 188.897 102.939 189.093 101.836L189.266 100.864L190.204 100.569C191.925 100.027 193.65 99.4237 195.325 98.7706C196.535 98.3057 197.745 97.7986 198.929 97.2799L201.933 95.9543L201.173 99.1471L200.201 103.227L204.938 102.92C204.995 102.62 205.053 102.321 205.107 102.017L205.341 100.722C209.037 100.215 212.737 99.7004 216.433 99.1932C216.518 98.8359 216.602 98.4824 216.687 98.1213L217.997 97.9752C220.994 97.6525 224.056 97.3798 227.091 97.1762C232.616 96.8112 238.221 96.6613 243.761 96.7227L245.894 96.7497L245.417 98.786C248.445 98.1789 251.488 98.0713 254.5 98.4709C255.245 98.5669 256.163 98.6861 257.189 98.882C259.333 99.2854 264.816 100.53 268.154 105.183C269.48 107.031 270.152 108.983 270.471 110.704C272.161 108.629 274.363 106.589 277.191 105.025C278.824 104.123 282.585 102.094 287.591 102.298C289.524 102.374 291.879 102.501 294.172 104.138C296.151 105.552 297.115 107.404 297.55 108.418C297.653 108.184 297.757 107.953 297.861 107.719C298.737 107.6 299.636 107.492 300.546 107.388C303.989 106.992 307.681 106.697 311.592 106.555C317.294 106.347 322.55 106.497 327.287 106.85C326.557 108.499 325.831 110.147 325.108 111.791C326.326 111.05 327.813 110.304 329.565 109.724C331.74 108.998 336.727 107.334 342.271 109.471C346.966 111.276 349.54 114.842 350.546 116.432L350.55 116.436Z" fill="#010101"/>
<path d="M205.061 127.282C206.655 127.14 208.165 127.063 209.583 127.036C210.451 122.979 211.45 118.764 212.595 114.415C213.752 110.028 214.97 105.832 216.222 101.84C213.022 102.29 209.817 102.739 206.617 103.189C206.094 105.552 205.576 107.915 205.053 110.277C202.276 110.477 199.494 110.677 196.716 110.877C197.677 106.843 198.637 102.809 199.594 98.7706C198.426 99.2855 197.204 99.7964 195.925 100.292C194.119 100.991 192.371 101.598 190.703 102.125C189.966 106.24 189.074 110.55 187.995 115.022C186.558 120.977 184.952 126.533 183.277 131.67C184.541 131.286 185.958 130.924 187.514 130.632C188.836 130.383 190.085 130.214 191.234 130.106C191.852 128.02 192.467 125.907 193.078 123.778C193.696 121.615 194.299 119.464 194.883 117.331C197.75 117.105 200.616 116.882 203.482 116.655C202.533 120.378 201.584 124.101 200.635 127.828C202.018 127.609 203.493 127.421 205.061 127.282Z" fill="#FAD83A"/>
<path d="M172.227 127.885C173.898 127.29 175.688 126.71 177.59 126.164C179.684 125.565 181.69 125.077 183.58 124.677C182.55 123.563 181.452 122.422 180.272 121.266C179.169 120.182 178.078 119.16 177.01 118.207C178.128 117.9 179.734 117.324 181.428 116.19C182.65 115.376 184.437 114.185 185.547 112.026C186.561 110.055 187.299 106.72 185.916 104.292C184.84 102.401 182.689 101.414 180.187 100.945C175.931 100.146 170.667 100.861 168.02 101.222C164.696 101.671 162.042 102.451 160.347 103.028C159.406 106.966 158.353 111.034 157.17 115.218C155.956 119.514 154.692 123.632 153.397 127.578C154.715 127.348 156.452 127.19 158.461 127.386C159.03 127.444 159.567 127.521 160.075 127.617C160.651 127.724 161.181 127.851 161.665 127.985C162.238 125.649 162.806 123.31 163.379 120.974C166.325 123.279 169.276 125.58 172.223 127.885H172.227ZM166.187 111.265C166.518 110.024 166.84 108.787 167.152 107.561C167.401 107.5 167.912 107.381 168.562 107.281C170.751 106.935 173.222 106.977 175.224 107.35C177.31 107.742 178.885 108.495 179.104 109.548C179.185 109.928 179.062 110.243 178.981 110.466C178.639 111.365 177.594 112.295 172.772 113.021C170.959 113.294 168.512 113.555 165.569 113.547C165.776 112.79 165.98 112.029 166.183 111.265H166.187Z" fill="#FAD83A"/>
<path d="M102.098 129.196C103.631 128.911 105.437 128.688 107.466 128.65C108.876 128.623 110.174 128.692 111.338 128.811C111.849 126.76 112.357 124.708 112.868 122.656C113.947 122.818 115.607 122.991 117.62 122.887C119.733 122.779 124.786 122.461 129.354 118.976C130.779 117.889 132.124 116.863 133.065 114.972C134.502 112.091 134.729 107.78 132.665 105.072C131.455 103.481 129.573 102.605 127.341 102.186C122.934 101.36 117.148 102.321 112.399 103.108C110.516 103.42 108.968 103.781 107.896 104.05C107.178 108.295 106.29 112.759 105.203 117.412C104.235 121.55 103.19 125.48 102.102 129.192L102.098 129.196ZM116.36 109.601C116.633 109.555 117.048 109.49 117.551 109.436C117.878 109.402 121.247 109.048 123.798 109.524C125.139 109.774 126.253 110.254 126.587 111.127C126.787 111.653 126.645 112.152 126.603 112.306C125.638 115.672 116.068 115.745 115.008 115.745C115.457 113.697 115.907 111.649 116.36 109.601Z" fill="#FAD83A"/>
<path d="M159.828 101.564C156.132 101.775 152.14 102.152 147.899 102.759C143.692 103.362 139.777 104.115 136.192 104.941C135.666 107.788 135.032 110.762 134.26 113.839C132.788 119.717 131.051 125.069 129.234 129.864C132.342 129.249 135.881 128.731 139.792 128.458C143.98 128.162 147.791 128.208 151.126 128.419C151.383 127.417 151.652 126.399 151.933 125.373C152.29 124.067 152.655 122.787 153.028 121.535C149.962 121.681 146.819 121.873 143.611 122.119C141.694 122.268 139.807 122.43 137.948 122.61L139.158 119.218C142.504 118.626 146.043 118.173 149.758 117.912C150.461 117.862 151.157 117.819 151.848 117.785C152.186 116.325 152.521 114.869 152.859 113.416C152.186 113.436 151.506 113.466 150.822 113.505C147.272 113.701 143.922 114.112 140.787 114.661L142.416 110.101C146.108 109.709 153.715 108.902 154.284 108.841C154.518 108.814 155.248 108.737 156.228 108.637C156.877 108.572 157.519 108.506 158.168 108.441C158.722 106.147 159.275 103.854 159.832 101.564H159.828Z" fill="#FAD83A"/>
<path d="M262.653 118.953C263.129 118.672 264.577 117.769 265.918 116.041C266.813 114.884 268.788 112.344 268.312 109.321C268.089 107.895 267.409 106.943 266.81 106.101C263.886 101.998 258.991 100.88 256.893 100.488C255.914 100.304 255.022 100.188 254.296 100.092C249.478 99.4584 245.36 100.307 242.52 101.233C241.414 105.448 240.323 109.709 239.243 114.016C238.206 118.15 237.203 122.253 236.231 126.322C237.687 126.472 239.216 126.668 240.807 126.933C241.348 127.021 241.883 127.117 242.405 127.213C242.928 127.309 243.439 127.413 243.942 127.52C244.703 125.154 245.463 122.795 246.224 120.432C247.396 123.102 248.971 126.045 251.107 129.038C251.733 129.914 252.367 130.736 252.997 131.508C254.315 131.347 255.794 131.243 257.412 131.255C259.633 131.274 261.623 131.508 263.329 131.831C263.694 131.9 264.047 131.973 264.385 132.046C262.28 128.189 260.174 124.332 258.069 120.474C259.129 120.359 260.847 120.025 262.653 118.957V118.953ZM250.158 113.881C249.643 113.804 249.221 113.739 248.948 113.693C249.332 112.533 249.766 111.334 250.258 110.097C250.519 109.444 250.785 108.806 251.053 108.191C251.484 108.13 252.125 108.061 252.901 108.038C253.612 108.018 254.68 108.045 255.917 108.276C256.828 108.445 257.831 108.729 258.849 109.183C259.882 109.644 260.555 110.254 260.797 111.023C260.847 111.184 261.016 111.714 260.828 112.283C260.662 112.79 260.22 113.34 258.956 113.835C257.961 114.227 256.079 114.738 250.154 113.874L250.158 113.881Z" fill="#FAD83A"/>
<path d="M337.76 124.451C335.271 121.696 333.015 119.998 333.015 119.998C332.412 119.545 331.87 119.176 331.951 118.888C332.085 118.404 333.834 118.427 334.971 118.642C335.167 118.68 335.405 118.734 335.678 118.818C336.769 119.157 338.398 119.96 340.038 122.019C342.82 120.006 345.598 117.992 348.379 115.979C348.207 115.691 347.784 115.003 347.108 114.266C345.709 112.737 343.857 111.684 341.802 111.046C335.847 109.206 330.625 111.111 328.981 111.753C326.495 112.721 325.758 113.566 325.508 113.878C323.917 115.852 323.579 119.084 324.701 121.546C326.265 124.985 329.953 125.358 329.915 127.901C329.896 129.142 329.004 130.091 328.735 130.375C327.36 131.839 325.366 131.851 324.498 131.858C323.683 131.866 322.922 131.731 322.223 131.516C319.68 130.733 317.97 128.823 317.517 128.297C318.857 131.824 320.198 135.351 321.535 138.874C321.939 139.174 322.534 139.554 323.31 139.85C327.371 141.398 331.563 138.739 332.896 137.963C336.65 135.773 340.961 130.879 339.854 127.298C339.6 126.483 338.99 125.807 337.768 124.451H337.76Z" fill="#FAD83A"/>
<path d="M226.311 99.9234C223.383 100.081 220.544 100.288 217.793 100.546C217.432 102.563 217.029 104.634 216.579 106.751C216.41 107.546 215.849 110.178 215.092 113.259C213.805 118.484 212.38 123.264 211.17 127.048C215.092 126.672 219.507 126.472 224.329 126.622C227.833 126.733 231.098 127.013 234.091 127.394C234.683 125.073 235.271 122.756 235.862 120.436C233.35 120.175 230.606 119.994 227.66 119.952C224.905 119.91 222.319 119.994 219.933 120.159L221.178 116.275C223.303 116.194 225.473 116.133 227.687 116.098C229.888 116.064 232.047 116.056 234.164 116.071L235.374 111.288C231.16 111.338 226.949 111.38 222.73 111.43L224.271 106.624C227.252 106.605 230.272 106.605 233.327 106.632C235.624 106.651 237.899 106.685 240.154 106.728C240.745 104.376 241.337 102.025 241.929 99.6737C237.003 99.5661 231.786 99.6275 226.311 99.9195V99.9234Z" fill="#FAD83A"/>
<path d="M102.183 112.433C103.124 108.929 103.831 105.967 104.326 103.792C101.441 104.384 98.5519 104.979 95.6666 105.571C95.4514 106.685 93.5496 116.417 90.7795 120.355C90.2954 121.043 89.2427 122.495 87.5484 122.806C87.3871 122.837 86.8453 122.933 86.3036 122.833C85.9963 122.776 85.6889 122.653 85.4584 122.414C84.69 121.627 85.1702 120.021 85.3853 119.299C86.2229 116.471 87.46 112.056 89.0698 106.405C85.9155 107.469 82.7651 108.533 79.6108 109.601C81.7777 107.523 83.9446 105.44 86.1154 103.362C85.0396 102.843 83.107 102.017 80.5828 101.525H80.5751C80.2447 101.464 69.6139 99.5429 60.4008 107.142C58.1724 108.979 57.1926 110.573 56.9467 112.275C56.8814 112.733 56.6855 114.212 57.4308 115.702C58.0494 116.94 59.202 117.693 61.488 119.141C63.8585 120.647 65.4299 121.3 65.4338 122.418C65.4338 122.787 65.2647 123.083 65.1879 123.217C64.6308 124.197 63.3437 124.435 62.5407 124.554C58.1454 125.208 53.6964 124.501 52.2825 124.236C52.0597 124.193 51.9138 124.163 51.8523 124.151C50.8803 123.944 50.2424 123.771 49.4971 123.429C47.5876 122.553 46.3812 121.208 45.7165 120.328C45.2824 121.585 44.4295 124.627 45.5859 128.008C46.07 129.426 46.727 130.379 46.8845 130.602C48.5366 132.934 51.4142 134.421 54.5762 135.012C58.157 135.685 61.0077 135.032 62.3371 134.674C63.6741 134.317 66.6939 133.468 69.4486 130.859C70.217 130.129 71.6079 128.788 72.5415 126.621C72.8565 125.888 73.0487 125.231 73.6327 122.315C74.0207 120.363 74.3357 118.657 74.5778 117.274C73.3099 116.263 72.1995 115.614 71.4503 115.222C69.3026 114.089 67.6084 113.708 67.3049 112.433C67.2664 112.272 67.1819 111.906 67.3663 111.599C67.7736 110.927 69.1798 111.054 70.1941 111.242C70.6436 111.326 71.02 111.422 71.1968 111.469C71.9114 111.653 72.9679 112.014 74.1474 112.775C75.642 111.818 77.1404 110.861 78.635 109.901C76.4604 113.516 75.5806 116.74 75.181 118.795C74.5202 122.199 73.8285 125.78 75.8725 128.139C77.0981 129.549 78.7541 129.879 80.6482 130.256C80.7058 130.267 80.7596 130.279 80.8172 130.287C87.3179 131.505 92.6045 128.227 93.1232 127.893C96.6924 125.603 98.4329 122.568 99.3012 121.012C99.8852 119.967 100.519 118.615 102.179 112.433H102.183ZM67.8466 116.909C67.8542 116.993 67.8465 117.07 67.8312 117.143C67.8465 117.07 67.8504 116.993 67.8427 116.909H67.8466Z" fill="#FAD83A"/>
<path d="M324.121 109.01C320.425 108.806 316.414 108.733 312.134 108.864C307.885 108.994 303.912 109.309 300.258 109.736C299.417 112.544 298.449 115.464 297.338 118.476C295.214 124.228 292.885 129.422 290.542 134.048C293.7 133.783 297.273 133.66 301.192 133.829C305.384 134.006 309.168 134.482 312.46 135.074C312.829 134.094 313.21 133.099 313.605 132.096C314.109 130.821 314.616 129.576 315.123 128.354C312.057 128.154 308.914 127.993 305.702 127.878C303.781 127.812 301.887 127.763 300.02 127.732L301.603 124.455C304.992 124.239 308.561 124.182 312.284 124.339C312.987 124.366 313.682 124.405 314.374 124.451C314.873 123.021 315.369 121.592 315.868 120.163C315.2 120.109 314.52 120.059 313.832 120.021C310.282 119.817 306.905 119.852 303.728 120.052L305.86 115.645C309.571 115.668 317.225 115.718 317.793 115.722C318.028 115.722 318.761 115.725 319.749 115.737C320.398 115.745 321.047 115.752 321.697 115.756C322.504 113.509 323.314 111.265 324.125 109.017L324.121 109.01Z" fill="#FAD83A"/>
<path d="M295.014 107.327C294.522 106.685 293.919 106.205 293.289 105.848C292.309 105.283 291.268 104.991 290.488 104.776C289.478 104.495 288.483 104.353 287.518 104.315C283.069 104.134 279.319 106.136 278.171 106.789C275.973 108.034 274.644 109.451 273.215 111.296C272.815 111.807 272.408 112.348 271.974 112.932C267.947 118.33 266.971 123.06 266.718 124.551C266.176 127.666 265.726 130.567 267.705 132.742C269.05 134.225 270.902 134.674 272.15 134.978C273.022 135.193 273.887 135.304 274.721 135.339C279.581 135.539 283.603 133.095 284.502 132.557C287.465 130.782 288.99 128.696 290.434 126.717C293.55 122.453 294.419 118.645 295.164 115.307C296.482 109.421 295.371 107.799 295.01 107.331L295.014 107.327ZM285.889 114.657C284.779 118.707 282.324 125.288 281.974 126.229C281.898 126.379 280.895 128.339 278.92 128.481C278.851 128.485 278.682 128.496 278.463 128.489C278.025 128.469 277.391 128.366 276.984 127.947C276.242 127.178 276.68 125.83 276.918 125.127C278.67 119.955 280.726 114.312 280.968 113.655C281.225 112.425 282.174 111.488 283.346 111.299C283.538 111.269 283.757 111.257 283.98 111.265C284.583 111.288 285.232 111.48 285.655 111.933C286.4 112.732 286.081 113.977 285.893 114.661L285.889 114.657Z" fill="#FAD83A"/>
<path d="M393.914 50.584C393.13 70.793 384.39 100.515 366.11 104.234C361.146 105.244 353.147 104.818 345.52 101.352C340.449 99.0472 336.922 96.0236 334.809 93.9105C334.732 96.3348 334.659 98.7591 334.582 101.183C330.056 100.588 325.45 100.023 320.77 99.4929C315.802 98.9281 310.904 98.4248 306.086 97.9714C305.909 97.2145 305.717 96.4423 305.506 95.6547C305.214 94.5635 304.902 93.5147 304.587 92.5158C304.376 93.4494 304.092 94.4752 303.704 95.5625C303.439 96.3116 303.154 96.9994 302.866 97.6334C299.677 97.349 296.469 97.0724 293.246 96.8073C288.501 96.4154 283.79 96.0543 279.115 95.7162C278.066 94.7826 276.994 93.8451 275.895 92.9038C274.612 91.805 273.34 90.7369 272.08 89.7034C272.195 91.5706 272.311 93.4379 272.426 95.3051C262.122 94.821 251.817 94.3407 241.517 93.8566C239.411 92.5619 237.306 91.2633 235.204 89.9686C235.316 91.1519 235.431 92.3352 235.542 93.5186C225.323 93.2266 214.911 93.0345 204.311 92.9538C195.017 92.8846 185.865 92.9077 176.86 93.0114V88.6161L174.039 93.1997C167.262 93.2995 160.397 93.4493 153.446 93.6491C146.492 93.8528 139.627 94.1026 132.853 94.4023C132.135 93.0921 131.412 91.7858 130.694 90.4756C130.356 91.828 130.018 93.1804 129.68 94.5328C119.175 95.2167 108.671 95.8968 98.1674 96.5806C97.5104 95.8046 96.8534 95.0285 96.1964 94.2562C96.0274 95.0822 95.8583 95.9082 95.6854 96.7304C90.3796 97.2376 85.0738 97.7447 79.7718 98.2519C80.2405 96.1772 80.7054 94.1025 81.1741 92.0278C80.1752 92.9499 69.1333 102.812 55.3827 99.3815C48.5708 97.6833 44.2178 93.5032 42.2776 91.3593C38.1128 102.098 26.7289 107.953 16.317 105.302C7.15766 102.966 0.376518 94.4637 0 84.4514C0.111418 74.051 0.219036 63.6546 0.330455 53.2542C7.08472 53.2427 13.839 53.2273 20.5971 53.2158C21.4231 35.4772 22.2491 17.7386 23.079 0C33.0759 1.76733 43.0729 3.53083 53.0698 5.29815C52.8816 8.67913 52.6933 12.064 52.5051 15.445C59.0749 8.08368 68.7529 5.46338 76.4062 8.67915C82.5381 11.2571 85.3581 16.7359 86.2149 18.5993C86.3763 16.5822 86.5415 14.5651 86.7028 12.5481C93.7414 13.1743 100.784 13.8005 107.822 14.4268C107.661 16.6014 107.5 18.7759 107.342 20.9505C109.432 17.6733 111.522 14.3961 113.612 11.1227C119.176 11.4224 124.735 11.7259 130.298 12.0255C130.221 13.255 130.148 14.4806 130.071 15.7101C132.131 15.7792 134.194 15.8445 136.253 15.9137C136.334 14.8187 136.415 13.7237 136.499 12.6288C144.567 12.9937 152.797 13.2819 161.188 13.474C169.633 13.6699 177.916 13.7621 186.038 13.766C187.671 14.9224 189.304 16.0789 190.94 17.2392L192.193 13.7544C203.327 13.8466 214.719 13.7967 226.352 13.5854C236.661 13.3972 246.773 13.0936 256.681 12.6825C257.457 13.4663 258.23 14.2462 259.006 15.03C259.64 14.154 260.274 13.278 260.908 12.402C265.998 12.1024 271.093 11.7989 276.183 11.4992C277.586 12.3214 278.992 13.1436 280.394 13.9619C280.755 13.0091 281.12 12.0563 281.482 11.1035C289.166 10.4849 296.853 9.86248 304.537 9.24391C305.333 9.93163 306.128 10.6194 306.919 11.3071C317.393 9.41685 327.866 7.52657 338.339 5.6363L339.05 14.5997C341.321 12.7094 352.632 3.67685 367.427 5.80917C369.129 6.05506 374.262 6.84264 379.207 10.0008C394.66 19.8709 394.183 43.8067 393.922 50.5879L393.914 50.584Z" fill="#010101"/>
<path d="M171.292 17.689C171.292 17.689 171.292 17.6972 171.296 17.7014C171.304 17.7014 171.308 17.7014 171.317 17.7014L171.292 17.6848V17.689Z" fill="white"/>
<path d="M61.0385 88.9043C55.3523 88.3511 51.8253 83.6369 50.6228 82.0309C48.6787 79.4337 45.4822 73.9204 45.974 59.4668C46.3505 48.4286 47.0728 27.0863 59.7284 18.4033C61.5303 17.1662 67.6582 12.963 74.2358 14.8149C74.2358 14.8149 76.7753 15.5294 78.9461 17.2814C90.0034 26.1872 84.0867 56.2932 83.3682 59.947C79.9027 77.5665 74.0437 82.9492 72.3148 84.413C70.3323 86.0882 66.2828 89.4153 61.0385 88.9043Z" fill="white"/>
<path d="M352.455 15.9789C354.042 15.0645 355.221 14.5151 356.066 14.2231C357.046 13.885 360.535 12.7785 364.949 13.5738C364.949 13.5738 368.787 14.2654 372.222 16.6397C378.12 20.7161 381.359 33.3563 380.402 48.6936C379.891 56.8925 378.143 84.9278 361.603 92.1892C359.985 92.8999 354.073 95.4933 348.302 93.1305C343.584 91.1979 341.309 86.914 339.757 83.8865C336.826 78.1696 336.161 72.6563 336.196 64.7264C336.261 50.4571 336.461 37.2791 343.369 25.5148C345.609 21.6997 348.352 18.3417 352.455 15.9789Z" fill="white"/>
<path d="M352.395 79.1687L356.506 51.1374L350.524 51.9481L351.615 37.2486L362.945 28.2274L361.047 38.8276L371.605 37.1678L363.444 54.8526L352.395 79.1687Z" fill="#FAD83A"/>
<path d="M350.846 84.4322L355.595 52.0364L349.682 52.8355L350.869 36.8566L364.055 26.3563L361.992 37.9016L372.903 36.1881L364.143 55.1753L350.846 84.4322ZM357.412 50.2383L353.942 73.9013L362.745 54.5337L370.306 38.1474L360.101 39.7496L361.826 30.0946L352.356 37.6403L351.357 51.0567L357.412 50.2383Z" fill="#1D1D1B"/>
<path d="M60.4957 78.6615L63.9305 51.4216L58.1174 52.3744L58.882 38.1243L69.7434 29.0726L68.1105 39.3807L78.3687 37.4789L70.7731 54.8218L60.4957 78.6615Z" fill="#FAD83A"/>
<path d="M59.0553 83.9443L63.0432 52.3475L57.2994 53.2889L58.137 37.7479L70.8272 27.1708L69.0445 38.4241L79.66 36.457L71.4803 55.1253L59.0553 83.9404V83.9443ZM64.8259 50.4996L61.9368 73.3787L70.0703 54.5183L77.0858 38.501L67.1849 40.3374L68.6679 30.9744L59.6353 38.5047L58.9361 51.4678L64.8259 50.5034V50.4996Z" fill="#1D1D1B"/>
<path d="M29.4911 8.22595C28.2424 51.8328 27.7314 68.5725 27.6584 69.6867C27.6584 69.7059 27.6584 69.725 27.6584 69.725C27.5086 71.2465 27.1282 72.4183 26.8286 73.179C26.2523 74.639 25.53 76.464 23.8049 77.2055C23.39 77.3861 22.3065 77.851 21.3768 77.29C20.2779 76.6292 20.3125 75.0886 20.3164 75.0002C20.2203 69.9825 20.1281 64.9686 20.0321 59.951C16.021 59.9625 12.0099 59.9741 8.00269 59.9856C8.07953 67.028 8.15641 74.0704 8.23709 81.1167C8.29088 85.9153 9.65093 88.6778 11.0917 90.3683C12.1636 91.6246 13.2739 92.3392 13.9155 92.7426C18.3915 95.5511 23.1787 94.9172 24.8307 94.6752C24.8307 94.6752 28.4191 94.1488 31.6119 92.247C40.8596 86.7375 41.8278 72.5183 41.8969 71.2542C42.8382 50.8109 43.7757 30.3675 44.717 9.92025C39.6417 9.35547 34.5702 8.79457 29.4949 8.2298L29.4911 8.22595Z" fill="white"/>
<path d="M193.534 43.1457C193.945 38.009 194.356 32.8722 194.767 27.7316C194.705 27.5933 194.575 27.3397 194.348 27.0631C191.294 23.3248 181.827 24.7886 176.721 27.2629C162.832 33.998 163.07 56.7196 163.128 59.2937C163.151 60.2504 163.731 78.1042 172.088 81.4545C173.663 82.0846 175.522 82.3266 176.298 82.415C177.847 82.5917 185.047 83.4062 188.297 79.157C188.969 78.2771 189.323 77.3781 189.519 76.6943C190.464 70.159 191.409 63.6237 192.358 57.0846C189.822 57.0769 187.283 57.0653 184.747 57.0577C184.159 62.1675 183.575 67.2813 182.987 72.3912C182.714 73.9626 181.458 75.1651 179.925 75.3495C178.265 75.5493 176.644 74.5004 176.122 72.8407C173.571 64.0041 173.551 56.6889 173.886 52.113C174.297 46.4845 176.164 39.9953 180.236 33.8865C182.257 30.8552 185.081 29.9446 186.361 30.8052C187.513 31.5775 187.348 33.7366 187.317 34.0978C186.975 37.1099 186.63 40.1182 186.288 43.1304C188.7 43.1304 191.117 43.1342 193.53 43.1381L193.534 43.1457Z" fill="white"/>
<path d="M230.517 24.0856C227.612 24.147 224.685 24.2008 221.746 24.2431C221.6 24.2623 221.454 24.2814 221.308 24.3007C220.413 43.8642 219.517 63.4278 218.622 82.9951C224.193 83.0605 229.703 83.1642 235.143 83.3102C235.32 80.0522 235.493 76.798 235.669 73.54C233.103 73.5477 230.536 73.5553 227.966 73.563C228.815 57.073 229.664 40.5793 230.513 24.0894L230.517 24.0856Z" fill="white"/>
<path d="M322.932 18.2802C321.868 35.527 320.804 52.7699 319.744 70.0167C318.284 64.1385 316.862 58.1603 315.471 52.0861C312.962 41.1018 310.703 30.3364 308.671 19.8131C305.855 20.0898 302.996 20.3587 300.103 20.6162C299.623 42.7884 299.139 64.9645 298.659 87.1368C301.494 87.375 304.333 87.6171 307.169 87.8553C307.507 77.1898 307.845 66.5244 308.183 55.8628C310.945 66.8817 313.708 77.9045 316.47 88.9234C321.069 89.419 325.668 89.9107 330.267 90.4063C331.312 65.9327 332.357 41.4591 333.398 16.9855C329.99 17.435 326.502 17.8652 322.936 18.2802H322.932Z" fill="white"/>
<path d="M279.214 22.0108C276.094 42.9344 272.979 63.8581 269.859 84.7817C272.725 84.9508 275.564 85.1313 278.377 85.3234C279.141 81.7158 279.902 78.1043 280.666 74.4966C283.072 74.5043 285.477 74.5158 287.882 74.5235C287.713 78.3424 287.547 82.1576 287.378 85.9765C289.764 86.161 292.127 86.3569 294.463 86.5567C294.575 64.6495 294.686 42.7385 294.801 20.8313C289.714 21.2539 284.516 21.6497 279.214 22.0108ZM288.358 67.6002C286.199 67.6002 284.036 67.5926 281.877 67.5887C283.882 55.617 285.884 43.6414 287.889 31.6697H289.215C288.931 43.6453 288.642 55.6208 288.358 67.5964V67.6002Z" fill="white"/>
<path d="M261.917 23.2058C260.35 43.5339 258.786 63.862 257.218 84.1901C260.273 84.3399 263.296 84.5051 266.293 84.6819C266.293 84.6819 266.297 84.6819 266.301 84.6819C267.784 64.0234 269.263 43.3648 270.746 22.7063C267.83 22.883 264.891 23.0483 261.921 23.2019L261.917 23.2058Z" fill="white"/>
<path d="M240.046 83.3217C244.825 83.4716 249.547 83.6444 254.207 83.8519C254.407 83.8403 254.611 83.8289 254.81 83.8212C255.029 79.8255 255.245 75.8297 255.464 71.834H247.43C248.364 55.736 249.297 39.638 250.231 23.5399C247.192 23.6705 244.126 23.7897 241.037 23.8973C240.13 43.6875 239.227 63.4738 238.321 83.264C238.897 83.2832 239.469 83.3025 240.046 83.3217Z" fill="white"/>
<path d="M201.037 24.7502C198.548 44.0371 196.058 63.324 193.572 82.607C193.591 82.607 193.611 82.607 193.63 82.607C196.085 82.607 198.532 82.6147 200.972 82.6263C201.456 79.6218 201.94 76.6174 202.428 73.6129C204.737 73.5284 207.05 73.4477 209.359 73.3632C209.248 76.4752 209.132 79.5834 209.021 82.6954C211.192 82.7184 213.359 82.7492 215.51 82.7837C215.172 63.3931 214.83 44.0025 214.492 24.6118C210.043 24.681 205.559 24.7271 201.041 24.7502H201.037ZM203.319 66.9354C204.841 55.9088 206.366 44.8785 207.887 33.8519C208.279 33.8519 208.667 33.8519 209.059 33.8519C209.274 44.817 209.493 55.7821 209.709 66.7472C207.58 66.8086 205.448 66.8702 203.319 66.9317V66.9354Z" fill="white"/>
<path d="M115.329 22.2568C114.699 29.6834 114.069 37.1061 113.439 44.5328C109.535 44.6634 105.635 44.794 101.732 44.9285C102.135 37.0908 102.539 29.2492 102.942 21.4114C99.3692 21.1463 95.846 20.8659 92.3728 20.5701C91.2625 42.654 90.1521 64.7379 89.0417 86.8218C92.3805 86.5451 95.7192 86.2647 99.0541 85.9881C99.7226 76.5406 100.391 67.0892 101.063 57.6417C104.982 57.4995 108.897 57.3574 112.816 57.2153C112.34 66.5091 111.863 75.8067 111.387 85.1006C115.144 84.87 118.906 84.6434 122.663 84.4129C123.812 63.9004 124.957 43.3916 126.106 22.8791C122.471 22.687 118.875 22.4796 115.325 22.2568H115.329Z" fill="white"/>
<path d="M151.633 24.047C150.565 39.1308 149.497 54.2145 148.432 69.2983C147.107 63.7081 145.808 58.0181 144.544 52.2244C142.42 42.4849 140.495 32.9336 138.739 23.5668C136.05 23.4515 133.379 23.3324 130.728 23.2018C129.964 43.5299 129.203 63.8618 128.438 84.1899C130.69 84.0747 132.957 83.9671 135.235 83.8633C135.976 74.0086 136.722 64.15 137.463 54.2952C139.857 64.0232 142.254 73.7473 144.648 83.4753C149.097 83.3101 153.596 83.1641 158.141 83.0412C159.202 63.4661 160.258 43.8948 161.318 24.3198C158.068 24.2391 154.837 24.1507 151.633 24.047Z" fill="white"/>
</svg>
