<?xml version="1.0" encoding="UTF-8"?> <svg xmlns="http://www.w3.org/2000/svg" width="113" height="21" viewBox="0 0 113 21" fill="none"><mask id="path-1-outside-1_2900_94" maskUnits="userSpaceOnUse" x="0.5" y="0" width="112" height="21" fill="black"><rect fill="white" x="0.5" width="112" height="21"></rect><path d="M1.932 1.6H6.924V19H3.348V4.84H1.908L1.932 1.6ZM17.6998 8.176C17.6998 8.624 17.6198 8.976 17.4598 9.232C17.3158 9.488 17.0438 9.752 16.6438 10.024L13.3558 12.64C13.2438 12.72 13.1878 12.856 13.1878 13.048V15.76H17.3878V19H9.70781V12.736C9.70781 12.176 9.78781 11.704 9.94781 11.32C10.1078 10.936 10.4038 10.608 10.8358 10.336L14.1238 7.816C14.2358 7.736 14.2998 7.672 14.3158 7.624C14.3478 7.576 14.3638 7.512 14.3638 7.432V5.152C14.3638 4.944 14.2518 4.84 14.0278 4.84H9.77981V1.6H15.6598C16.2358 1.6 16.7158 1.784 17.0998 2.152C17.4998 2.52 17.6998 3.048 17.6998 3.736V8.176ZM19.6097 8.992C19.6097 8.48 19.7937 8.04 20.1617 7.672C20.5297 7.304 20.9697 7.12 21.4817 7.12C21.9937 7.12 22.4337 7.304 22.8017 7.672C23.1697 8.04 23.3537 8.48 23.3537 8.992C23.3537 9.504 23.1697 9.944 22.8017 10.312C22.4337 10.664 21.9937 10.84 21.4817 10.84C20.9697 10.84 20.5297 10.664 20.1617 10.312C19.7937 9.944 19.6097 9.504 19.6097 8.992ZM19.6097 17.392C19.6097 16.88 19.7937 16.44 20.1617 16.072C20.5297 15.704 20.9697 15.52 21.4817 15.52C21.9937 15.52 22.4337 15.704 22.8017 16.072C23.1697 16.44 23.3537 16.88 23.3537 17.392C23.3537 17.904 23.1697 18.344 22.8017 18.712C22.4337 19.064 21.9937 19.24 21.4817 19.24C20.9697 19.24 20.5297 19.064 20.1617 18.712C19.7937 18.344 19.6097 17.904 19.6097 17.392ZM29.0854 4.648C28.8774 4.648 28.7734 4.76 28.7734 4.984V15.592C28.7734 15.72 28.7894 15.816 28.8214 15.88C28.8694 15.928 28.9654 15.952 29.1094 15.952H30.3814C30.5254 15.952 30.6134 15.928 30.6454 15.88C30.6934 15.816 30.7174 15.72 30.7174 15.592V4.984C30.7174 4.76 30.6134 4.648 30.4054 4.648H29.0854ZM25.2694 4C25.2694 3.312 25.4614 2.744 25.8454 2.296C26.2294 1.832 26.8214 1.6 27.6214 1.6H31.8934C32.6934 1.6 33.2854 1.832 33.6694 2.296C34.0534 2.744 34.2454 3.312 34.2454 4V16.6C34.2454 17.288 34.0534 17.864 33.6694 18.328C33.2854 18.776 32.6934 19 31.8934 19H27.6214C26.8214 19 26.2294 18.776 25.8454 18.328C25.4614 17.864 25.2694 17.288 25.2694 16.6V4ZM39.9716 4.648C39.7636 4.648 39.6596 4.76 39.6596 4.984V15.592C39.6596 15.72 39.6756 15.816 39.7076 15.88C39.7556 15.928 39.8516 15.952 39.9956 15.952H41.2676C41.4116 15.952 41.4996 15.928 41.5316 15.88C41.5796 15.816 41.6036 15.72 41.6036 15.592V4.984C41.6036 4.76 41.4996 4.648 41.2916 4.648H39.9716ZM36.1556 4C36.1556 3.312 36.3476 2.744 36.7316 2.296C37.1156 1.832 37.7076 1.6 38.5076 1.6H42.7796C43.5796 1.6 44.1716 1.832 44.5556 2.296C44.9396 2.744 45.1316 3.312 45.1316 4V16.6C45.1316 17.288 44.9396 17.864 44.5556 18.328C44.1716 18.776 43.5796 19 42.7796 19H38.5076C37.7076 19 37.1156 18.776 36.7316 18.328C36.3476 17.864 36.1556 17.288 36.1556 16.6V4ZM50.7619 13.504V11.632H60.8419V13.504H50.7619ZM74.4739 8.176C74.4739 8.624 74.3939 8.976 74.2339 9.232C74.0899 9.488 73.8179 9.752 73.4179 10.024L70.1299 12.64C70.0179 12.72 69.9619 12.856 69.9619 13.048V15.76H74.1619V19H66.4819V12.736C66.4819 12.176 66.5619 11.704 66.7219 11.32C66.8819 10.936 67.1779 10.608 67.6099 10.336L70.8979 7.816C71.0099 7.736 71.0739 7.672 71.0899 7.624C71.1219 7.576 71.1379 7.512 71.1379 7.432V5.152C71.1379 4.944 71.0259 4.84 70.8019 4.84H66.5539V1.6H72.4339C73.0099 1.6 73.4899 1.784 73.8739 2.152C74.2739 2.52 74.4739 3.048 74.4739 3.736V8.176ZM76.1437 1.6H81.1837C82.0797 1.6 82.6957 1.784 83.0317 2.152C83.3677 2.504 83.5357 3.08 83.5357 3.88V8.704C83.5357 9.104 83.4477 9.448 83.2717 9.736C83.1117 10.024 82.7517 10.192 82.1918 10.24C82.7838 10.24 83.1678 10.416 83.3438 10.768C83.5358 11.104 83.6318 11.504 83.6318 11.968V16.312C83.6318 17.272 83.4318 17.96 83.0317 18.376C82.6317 18.792 81.9277 19 80.9197 19H76.1677V15.76H79.6477C79.8077 15.76 79.9277 15.744 80.0077 15.712C80.0877 15.664 80.1277 15.536 80.1277 15.328V12.472C80.1277 12.344 80.1037 12.24 80.0558 12.16C80.0077 12.08 79.8877 12.04 79.6957 12.04H77.0317V9.04H79.6477C79.8397 9.04 79.9677 9.008 80.0317 8.944C80.0957 8.88 80.1277 8.752 80.1277 8.56V5.272C80.1277 5.096 80.0877 4.984 80.0077 4.936C79.9437 4.872 79.8477 4.84 79.7198 4.84H76.1437V1.6ZM85.5591 8.992C85.5591 8.48 85.7431 8.04 86.1111 7.672C86.4791 7.304 86.9191 7.12 87.4311 7.12C87.9431 7.12 88.3831 7.304 88.7511 7.672C89.1191 8.04 89.3031 8.48 89.3031 8.992C89.3031 9.504 89.1191 9.944 88.7511 10.312C88.3831 10.664 87.9431 10.84 87.4311 10.84C86.9191 10.84 86.4791 10.664 86.1111 10.312C85.7431 9.944 85.5591 9.504 85.5591 8.992ZM85.5591 17.392C85.5591 16.88 85.7431 16.44 86.1111 16.072C86.4791 15.704 86.9191 15.52 87.4311 15.52C87.9431 15.52 88.3831 15.704 88.7511 16.072C89.1191 16.44 89.3031 16.88 89.3031 17.392C89.3031 17.904 89.1191 18.344 88.7511 18.712C88.3831 19.064 87.9431 19.24 87.4311 19.24C86.9191 19.24 86.4791 19.064 86.1111 18.712C85.7431 18.344 85.5591 17.904 85.5591 17.392ZM95.0347 4.648C94.8267 4.648 94.7227 4.76 94.7227 4.984V15.592C94.7227 15.72 94.7387 15.816 94.7707 15.88C94.8187 15.928 94.9147 15.952 95.0587 15.952H96.3307C96.4747 15.952 96.5627 15.928 96.5947 15.88C96.6427 15.816 96.6667 15.72 96.6667 15.592V4.984C96.6667 4.76 96.5627 4.648 96.3547 4.648H95.0347ZM91.2187 4C91.2187 3.312 91.4107 2.744 91.7947 2.296C92.1787 1.832 92.7707 1.6 93.5707 1.6H97.8427C98.6427 1.6 99.2347 1.832 99.6187 2.296C100.003 2.744 100.195 3.312 100.195 4V16.6C100.195 17.288 100.003 17.864 99.6187 18.328C99.2347 18.776 98.6427 19 97.8427 19H93.5707C92.7707 19 92.1787 18.776 91.7947 18.328C91.4107 17.864 91.2187 17.288 91.2187 16.6V4ZM105.921 4.648C105.713 4.648 105.609 4.76 105.609 4.984V15.592C105.609 15.72 105.625 15.816 105.657 15.88C105.705 15.928 105.801 15.952 105.945 15.952H107.217C107.361 15.952 107.449 15.928 107.481 15.88C107.529 15.816 107.553 15.72 107.553 15.592V4.984C107.553 4.76 107.449 4.648 107.241 4.648H105.921ZM102.105 4C102.105 3.312 102.297 2.744 102.681 2.296C103.065 1.832 103.657 1.6 104.457 1.6H108.729C109.529 1.6 110.121 1.832 110.505 2.296C110.889 2.744 111.081 3.312 111.081 4V16.6C111.081 17.288 110.889 17.864 110.505 18.328C110.121 18.776 109.529 19 108.729 19H104.457C103.657 19 103.065 18.776 102.681 18.328C102.297 17.864 102.105 17.288 102.105 16.6V4Z"></path></mask><path d="M1.932 1.6H6.924V19H3.348V4.84H1.908L1.932 1.6ZM17.6998 8.176C17.6998 8.624 17.6198 8.976 17.4598 9.232C17.3158 9.488 17.0438 9.752 16.6438 10.024L13.3558 12.64C13.2438 12.72 13.1878 12.856 13.1878 13.048V15.76H17.3878V19H9.70781V12.736C9.70781 12.176 9.78781 11.704 9.94781 11.32C10.1078 10.936 10.4038 10.608 10.8358 10.336L14.1238 7.816C14.2358 7.736 14.2998 7.672 14.3158 7.624C14.3478 7.576 14.3638 7.512 14.3638 7.432V5.152C14.3638 4.944 14.2518 4.84 14.0278 4.84H9.77981V1.6H15.6598C16.2358 1.6 16.7158 1.784 17.0998 2.152C17.4998 2.52 17.6998 3.048 17.6998 3.736V8.176ZM19.6097 8.992C19.6097 8.48 19.7937 8.04 20.1617 7.672C20.5297 7.304 20.9697 7.12 21.4817 7.12C21.9937 7.12 22.4337 7.304 22.8017 7.672C23.1697 8.04 23.3537 8.48 23.3537 8.992C23.3537 9.504 23.1697 9.944 22.8017 10.312C22.4337 10.664 21.9937 10.84 21.4817 10.84C20.9697 10.84 20.5297 10.664 20.1617 10.312C19.7937 9.944 19.6097 9.504 19.6097 8.992ZM19.6097 17.392C19.6097 16.88 19.7937 16.44 20.1617 16.072C20.5297 15.704 20.9697 15.52 21.4817 15.52C21.9937 15.52 22.4337 15.704 22.8017 16.072C23.1697 16.44 23.3537 16.88 23.3537 17.392C23.3537 17.904 23.1697 18.344 22.8017 18.712C22.4337 19.064 21.9937 19.24 21.4817 19.24C20.9697 19.24 20.5297 19.064 20.1617 18.712C19.7937 18.344 19.6097 17.904 19.6097 17.392ZM29.0854 4.648C28.8774 4.648 28.7734 4.76 28.7734 4.984V15.592C28.7734 15.72 28.7894 15.816 28.8214 15.88C28.8694 15.928 28.9654 15.952 29.1094 15.952H30.3814C30.5254 15.952 30.6134 15.928 30.6454 15.88C30.6934 15.816 30.7174 15.72 30.7174 15.592V4.984C30.7174 4.76 30.6134 4.648 30.4054 4.648H29.0854ZM25.2694 4C25.2694 3.312 25.4614 2.744 25.8454 2.296C26.2294 1.832 26.8214 1.6 27.6214 1.6H31.8934C32.6934 1.6 33.2854 1.832 33.6694 2.296C34.0534 2.744 34.2454 3.312 34.2454 4V16.6C34.2454 17.288 34.0534 17.864 33.6694 18.328C33.2854 18.776 32.6934 19 31.8934 19H27.6214C26.8214 19 26.2294 18.776 25.8454 18.328C25.4614 17.864 25.2694 17.288 25.2694 16.6V4ZM39.9716 4.648C39.7636 4.648 39.6596 4.76 39.6596 4.984V15.592C39.6596 15.72 39.6756 15.816 39.7076 15.88C39.7556 15.928 39.8516 15.952 39.9956 15.952H41.2676C41.4116 15.952 41.4996 15.928 41.5316 15.88C41.5796 15.816 41.6036 15.72 41.6036 15.592V4.984C41.6036 4.76 41.4996 4.648 41.2916 4.648H39.9716ZM36.1556 4C36.1556 3.312 36.3476 2.744 36.7316 2.296C37.1156 1.832 37.7076 1.6 38.5076 1.6H42.7796C43.5796 1.6 44.1716 1.832 44.5556 2.296C44.9396 2.744 45.1316 3.312 45.1316 4V16.6C45.1316 17.288 44.9396 17.864 44.5556 18.328C44.1716 18.776 43.5796 19 42.7796 19H38.5076C37.7076 19 37.1156 18.776 36.7316 18.328C36.3476 17.864 36.1556 17.288 36.1556 16.6V4ZM50.7619 13.504V11.632H60.8419V13.504H50.7619ZM74.4739 8.176C74.4739 8.624 74.3939 8.976 74.2339 9.232C74.0899 9.488 73.8179 9.752 73.4179 10.024L70.1299 12.64C70.0179 12.72 69.9619 12.856 69.9619 13.048V15.76H74.1619V19H66.4819V12.736C66.4819 12.176 66.5619 11.704 66.7219 11.32C66.8819 10.936 67.1779 10.608 67.6099 10.336L70.8979 7.816C71.0099 7.736 71.0739 7.672 71.0899 7.624C71.1219 7.576 71.1379 7.512 71.1379 7.432V5.152C71.1379 4.944 71.0259 4.84 70.8019 4.84H66.5539V1.6H72.4339C73.0099 1.6 73.4899 1.784 73.8739 2.152C74.2739 2.52 74.4739 3.048 74.4739 3.736V8.176ZM76.1437 1.6H81.1837C82.0797 1.6 82.6957 1.784 83.0317 2.152C83.3677 2.504 83.5357 3.08 83.5357 3.88V8.704C83.5357 9.104 83.4477 9.448 83.2717 9.736C83.1117 10.024 82.7517 10.192 82.1918 10.24C82.7838 10.24 83.1678 10.416 83.3438 10.768C83.5358 11.104 83.6318 11.504 83.6318 11.968V16.312C83.6318 17.272 83.4318 17.96 83.0317 18.376C82.6317 18.792 81.9277 19 80.9197 19H76.1677V15.76H79.6477C79.8077 15.76 79.9277 15.744 80.0077 15.712C80.0877 15.664 80.1277 15.536 80.1277 15.328V12.472C80.1277 12.344 80.1037 12.24 80.0558 12.16C80.0077 12.08 79.8877 12.04 79.6957 12.04H77.0317V9.04H79.6477C79.8397 9.04 79.9677 9.008 80.0317 8.944C80.0957 8.88 80.1277 8.752 80.1277 8.56V5.272C80.1277 5.096 80.0877 4.984 80.0077 4.936C79.9437 4.872 79.8477 4.84 79.7198 4.84H76.1437V1.6ZM85.5591 8.992C85.5591 8.48 85.7431 8.04 86.1111 7.672C86.4791 7.304 86.9191 7.12 87.4311 7.12C87.9431 7.12 88.3831 7.304 88.7511 7.672C89.1191 8.04 89.3031 8.48 89.3031 8.992C89.3031 9.504 89.1191 9.944 88.7511 10.312C88.3831 10.664 87.9431 10.84 87.4311 10.84C86.9191 10.84 86.4791 10.664 86.1111 10.312C85.7431 9.944 85.5591 9.504 85.5591 8.992ZM85.5591 17.392C85.5591 16.88 85.7431 16.44 86.1111 16.072C86.4791 15.704 86.9191 15.52 87.4311 15.52C87.9431 15.52 88.3831 15.704 88.7511 16.072C89.1191 16.44 89.3031 16.88 89.3031 17.392C89.3031 17.904 89.1191 18.344 88.7511 18.712C88.3831 19.064 87.9431 19.24 87.4311 19.24C86.9191 19.24 86.4791 19.064 86.1111 18.712C85.7431 18.344 85.5591 17.904 85.5591 17.392ZM95.0347 4.648C94.8267 4.648 94.7227 4.76 94.7227 4.984V15.592C94.7227 15.72 94.7387 15.816 94.7707 15.88C94.8187 15.928 94.9147 15.952 95.0587 15.952H96.3307C96.4747 15.952 96.5627 15.928 96.5947 15.88C96.6427 15.816 96.6667 15.72 96.6667 15.592V4.984C96.6667 4.76 96.5627 4.648 96.3547 4.648H95.0347ZM91.2187 4C91.2187 3.312 91.4107 2.744 91.7947 2.296C92.1787 1.832 92.7707 1.6 93.5707 1.6H97.8427C98.6427 1.6 99.2347 1.832 99.6187 2.296C100.003 2.744 100.195 3.312 100.195 4V16.6C100.195 17.288 100.003 17.864 99.6187 18.328C99.2347 18.776 98.6427 19 97.8427 19H93.5707C92.7707 19 92.1787 18.776 91.7947 18.328C91.4107 17.864 91.2187 17.288 91.2187 16.6V4ZM105.921 4.648C105.713 4.648 105.609 4.76 105.609 4.984V15.592C105.609 15.72 105.625 15.816 105.657 15.88C105.705 15.928 105.801 15.952 105.945 15.952H107.217C107.361 15.952 107.449 15.928 107.481 15.88C107.529 15.816 107.553 15.72 107.553 15.592V4.984C107.553 4.76 107.449 4.648 107.241 4.648H105.921ZM102.105 4C102.105 3.312 102.297 2.744 102.681 2.296C103.065 1.832 103.657 1.6 104.457 1.6H108.729C109.529 1.6 110.121 1.832 110.505 2.296C110.889 2.744 111.081 3.312 111.081 4V16.6C111.081 17.288 110.889 17.864 110.505 18.328C110.121 18.776 109.529 19 108.729 19H104.457C103.657 19 103.065 18.776 102.681 18.328C102.297 17.864 102.105 17.288 102.105 16.6V4Z" fill="white"></path><path d="M1.932 1.6V0.599999H0.93938L0.932027 1.59259L1.932 1.6ZM6.924 1.6H7.924V0.599999H6.924V1.6ZM6.924 19V20H7.924V19H6.924ZM3.348 19H2.348V20H3.348V19ZM3.348 4.84H4.348V3.84H3.348V4.84ZM1.908 4.84L0.908027 4.83259L0.900565 5.84H1.908V4.84ZM1.932 2.6H6.924V0.599999H1.932V2.6ZM5.924 1.6V19H7.924V1.6H5.924ZM6.924 18H3.348V20H6.924V18ZM4.348 19V4.84H2.348V19H4.348ZM3.348 3.84H1.908V5.84H3.348V3.84ZM2.90797 4.84741L2.93197 1.60741L0.932027 1.59259L0.908027 4.83259L2.90797 4.84741ZM17.4598 9.232L16.6118 8.702L16.5996 8.7216L16.5882 8.74174L17.4598 9.232ZM16.6438 10.024L16.0815 9.19707L16.0505 9.21814L16.0212 9.24146L16.6438 10.024ZM13.3558 12.64L13.9371 13.4537L13.9581 13.4387L13.9784 13.4225L13.3558 12.64ZM13.1878 15.76H12.1878V16.76H13.1878V15.76ZM17.3878 15.76H18.3878V14.76H17.3878V15.76ZM17.3878 19V20H18.3878V19H17.3878ZM9.70781 19H8.70781V20H9.70781V19ZM9.94781 11.32L9.02474 10.9354L9.02474 10.9354L9.94781 11.32ZM10.8358 10.336L11.3686 11.1822L11.4076 11.1577L11.4441 11.1297L10.8358 10.336ZM14.1238 7.816L13.5426 7.00227L13.5289 7.01205L13.5155 7.0223L14.1238 7.816ZM14.3158 7.624L13.4838 7.0693L13.4095 7.18073L13.3671 7.30777L14.3158 7.624ZM9.77981 4.84H8.77981V5.84H9.77981V4.84ZM9.77981 1.6V0.599999H8.77981V1.6H9.77981ZM17.0998 2.152L16.4079 2.87399L16.4153 2.88103L16.4228 2.88793L17.0998 2.152ZM16.6998 8.176C16.6998 8.52151 16.6355 8.66417 16.6118 8.702L18.3078 9.762C18.6042 9.28783 18.6998 8.72649 18.6998 8.176H16.6998ZM16.5882 8.74174C16.5537 8.80311 16.4266 8.9624 16.0815 9.19707L17.2061 10.8509C17.661 10.5416 18.0779 10.1729 18.3314 9.72226L16.5882 8.74174ZM16.0212 9.24146L12.7332 11.8575L13.9784 13.4225L17.2664 10.8065L16.0212 9.24146ZM12.7746 11.8263C12.3051 12.1616 12.1878 12.6703 12.1878 13.048H14.1878C14.1878 13.048 14.1879 13.0605 14.184 13.0828C14.1802 13.1053 14.172 13.1402 14.1545 13.1827C14.1161 13.276 14.0445 13.377 13.9371 13.4537L12.7746 11.8263ZM12.1878 13.048V15.76H14.1878V13.048H12.1878ZM13.1878 16.76H17.3878V14.76H13.1878V16.76ZM16.3878 15.76V19H18.3878V15.76H16.3878ZM17.3878 18H9.70781V20H17.3878V18ZM10.7078 19V12.736H8.70781V19H10.7078ZM10.7078 12.736C10.7078 12.265 10.776 11.9325 10.8709 11.7046L9.02474 10.9354C8.79967 11.4755 8.70781 12.087 8.70781 12.736H10.7078ZM10.8709 11.7046C10.935 11.5507 11.071 11.3696 11.3686 11.1822L10.303 9.48977C9.73662 9.84638 9.28059 10.3213 9.02474 10.9354L10.8709 11.7046ZM11.4441 11.1297L14.7321 8.6097L13.5155 7.0223L10.2275 9.5423L11.4441 11.1297ZM14.7051 8.62973C14.7853 8.57238 14.8775 8.50056 14.9629 8.41511C15.031 8.34699 15.1826 8.18586 15.2645 7.94023L13.3671 7.30777C13.4037 7.1981 13.4525 7.12179 13.4811 7.08176C13.5113 7.03951 13.5371 7.01246 13.5487 7.00089C13.5702 6.97944 13.5743 6.97962 13.5426 7.00227L14.7051 8.62973ZM15.1479 8.1787C15.3242 7.91423 15.3638 7.63563 15.3638 7.432H13.3638C13.3638 7.38837 13.3714 7.23777 13.4838 7.0693L15.1479 8.1787ZM15.3638 7.432V5.152H13.3638V7.432H15.3638ZM15.3638 5.152C15.3638 4.87407 15.2855 4.48722 14.9603 4.18521C14.649 3.89617 14.2763 3.84 14.0278 3.84V5.84C14.0033 5.84 13.7986 5.83583 13.5994 5.65079C13.3861 5.45277 13.3638 5.22193 13.3638 5.152H15.3638ZM14.0278 3.84H9.77981V5.84H14.0278V3.84ZM10.7798 4.84V1.6H8.77981V4.84H10.7798ZM9.77981 2.6H15.6598V0.599999H9.77981V2.6ZM15.6598 2.6C16.0014 2.6 16.2263 2.69999 16.4079 2.87399L17.7917 1.43001C17.2053 0.868006 16.4702 0.599999 15.6598 0.599999V2.6ZM16.4228 2.88793C16.5651 3.01886 16.6998 3.24843 16.6998 3.736H18.6998C18.6998 2.84757 18.4346 2.02114 17.7769 1.41607L16.4228 2.88793ZM16.6998 3.736V8.176H18.6998V3.736H16.6998ZM22.8017 10.312L23.4929 11.0346L23.5009 11.027L23.5088 11.0191L22.8017 10.312ZM20.1617 10.312L19.4546 11.0191L19.4624 11.027L19.4705 11.0346L20.1617 10.312ZM22.8017 18.712L23.4929 19.4346L23.5009 19.427L23.5088 19.4191L22.8017 18.712ZM20.1617 18.712L19.4546 19.4191L19.4624 19.427L19.4705 19.4346L20.1617 18.712ZM20.6097 8.992C20.6097 8.75008 20.6849 8.56304 20.8688 8.37911L19.4546 6.96489C18.9025 7.51696 18.6097 8.20992 18.6097 8.992H20.6097ZM20.8688 8.37911C21.0527 8.19518 21.2398 8.12 21.4817 8.12V6.12C20.6996 6.12 20.0067 6.41282 19.4546 6.96489L20.8688 8.37911ZM21.4817 8.12C21.7236 8.12 21.9107 8.19518 22.0946 8.37911L23.5088 6.96489C22.9567 6.41282 22.2638 6.12 21.4817 6.12V8.12ZM22.0946 8.37911C22.2785 8.56304 22.3537 8.75008 22.3537 8.992H24.3537C24.3537 8.20992 24.0609 7.51696 23.5088 6.96489L22.0946 8.37911ZM22.3537 8.992C22.3537 9.23392 22.2785 9.42096 22.0946 9.60489L23.5088 11.0191C24.0609 10.467 24.3537 9.77408 24.3537 8.992H22.3537ZM22.1105 9.58936C21.9297 9.76228 21.7377 9.84 21.4817 9.84V11.84C22.2497 11.84 22.9377 11.5657 23.4929 11.0346L22.1105 9.58936ZM21.4817 9.84C21.2257 9.84 21.0337 9.76228 20.8529 9.58936L19.4705 11.0346C20.0257 11.5657 20.7137 11.84 21.4817 11.84V9.84ZM20.8688 9.60489C20.6849 9.42096 20.6097 9.23392 20.6097 8.992H18.6097C18.6097 9.77408 18.9025 10.467 19.4546 11.0191L20.8688 9.60489ZM20.6097 17.392C20.6097 17.1501 20.6849 16.963 20.8688 16.7791L19.4546 15.3649C18.9025 15.917 18.6097 16.6099 18.6097 17.392H20.6097ZM20.8688 16.7791C21.0527 16.5952 21.2398 16.52 21.4817 16.52V14.52C20.6996 14.52 20.0067 14.8128 19.4546 15.3649L20.8688 16.7791ZM21.4817 16.52C21.7236 16.52 21.9107 16.5952 22.0946 16.7791L23.5088 15.3649C22.9567 14.8128 22.2638 14.52 21.4817 14.52V16.52ZM22.0946 16.7791C22.2785 16.963 22.3537 17.1501 22.3537 17.392H24.3537C24.3537 16.6099 24.0609 15.917 23.5088 15.3649L22.0946 16.7791ZM22.3537 17.392C22.3537 17.6339 22.2785 17.821 22.0946 18.0049L23.5088 19.4191C24.0609 18.867 24.3537 18.1741 24.3537 17.392H22.3537ZM22.1105 17.9894C21.9297 18.1623 21.7377 18.24 21.4817 18.24V20.24C22.2497 20.24 22.9377 19.9657 23.4929 19.4346L22.1105 17.9894ZM21.4817 18.24C21.2257 18.24 21.0337 18.1623 20.8529 17.9894L19.4705 19.4346C20.0257 19.9657 20.7137 20.24 21.4817 20.24V18.24ZM20.8688 18.0049C20.6849 17.821 20.6097 17.6339 20.6097 17.392H18.6097C18.6097 18.1741 18.9025 18.867 19.4546 19.4191L20.8688 18.0049ZM28.8214 15.88L27.9269 16.3272L27.9995 16.4724L28.1143 16.5871L28.8214 15.88ZM30.6454 15.88L29.8454 15.28L29.8287 15.3022L29.8133 15.3253L30.6454 15.88ZM25.8454 2.296L26.6046 2.94679L26.6103 2.94023L26.6158 2.93357L25.8454 2.296ZM33.6694 2.296L32.899 2.93357L32.9045 2.94023L32.9101 2.94679L33.6694 2.296ZM33.6694 18.328L34.4286 18.9788L34.4343 18.9722L34.4398 18.9656L33.6694 18.328ZM25.8454 18.328L25.075 18.9656L25.0805 18.9722L25.0861 18.9788L25.8454 18.328ZM29.0854 3.648C28.8074 3.648 28.4206 3.7263 28.1186 4.05155C27.8295 4.36282 27.7734 4.73551 27.7734 4.984H29.7734C29.7734 5.00849 29.7692 5.21318 29.5842 5.41245C29.3862 5.6257 29.1553 5.648 29.0854 5.648V3.648ZM27.7734 4.984V15.592H29.7734V4.984H27.7734ZM27.7734 15.592C27.7734 15.7711 27.7905 16.0543 27.9269 16.3272L29.7158 15.4328C29.7572 15.5155 29.7689 15.5781 29.7718 15.5956C29.7751 15.6158 29.7734 15.617 29.7734 15.592H27.7734ZM28.1143 16.5871C28.3121 16.785 28.5386 16.8671 28.6868 16.9041C28.8411 16.9427 28.9891 16.952 29.1094 16.952V14.952C29.0856 14.952 29.1136 14.9493 29.1719 14.9639C29.2242 14.9769 29.3786 15.023 29.5285 15.1729L28.1143 16.5871ZM29.1094 16.952H30.3814V14.952H29.1094V16.952ZM30.3814 16.952C30.4973 16.952 30.6541 16.9436 30.8185 16.8988C30.9671 16.8582 31.2686 16.7479 31.4774 16.4347L29.8133 15.3253C29.9901 15.0601 30.2317 14.9858 30.2923 14.9692C30.3686 14.9484 30.4094 14.952 30.3814 14.952V16.952ZM31.4454 16.48C31.6804 16.1666 31.7174 15.8162 31.7174 15.592H29.7174C29.7174 15.5968 29.7166 15.568 29.7292 15.5175C29.7421 15.4659 29.7729 15.3767 29.8454 15.28L31.4454 16.48ZM31.7174 15.592V4.984H29.7174V15.592H31.7174ZM31.7174 4.984C31.7174 4.73551 31.6612 4.36282 31.3722 4.05155C31.0702 3.7263 30.6833 3.648 30.4054 3.648V5.648C30.3354 5.648 30.1046 5.6257 29.9066 5.41245C29.7215 5.21318 29.7174 5.00849 29.7174 4.984H31.7174ZM30.4054 3.648H29.0854V5.648H30.4054V3.648ZM26.2694 4C26.2694 3.50888 26.4012 3.18413 26.6046 2.94679L25.0861 1.64521C24.5216 2.30387 24.2694 3.11512 24.2694 4H26.2694ZM26.6158 2.93357C26.752 2.76896 27.015 2.6 27.6214 2.6V0.599999C26.6278 0.599999 25.7068 0.895036 25.075 1.65843L26.6158 2.93357ZM27.6214 2.6H31.8934V0.599999H27.6214V2.6ZM31.8934 2.6C32.4998 2.6 32.7628 2.76896 32.899 2.93357L34.4398 1.65843C33.808 0.895036 32.887 0.599999 31.8934 0.599999V2.6ZM32.9101 2.94679C33.1136 3.18413 33.2454 3.50888 33.2454 4H35.2454C35.2454 3.11512 34.9932 2.30387 34.4286 1.64521L32.9101 2.94679ZM33.2454 4V16.6H35.2454V4H33.2454ZM33.2454 16.6C33.2454 17.0902 33.1137 17.431 32.899 17.6904L34.4398 18.9656C34.9931 18.297 35.2454 17.4858 35.2454 16.6H33.2454ZM32.9101 17.6772C32.7773 17.8322 32.5108 18 31.8934 18V20C32.8759 20 33.7935 19.7198 34.4286 18.9788L32.9101 17.6772ZM31.8934 18H27.6214V20H31.8934V18ZM27.6214 18C27.0039 18 26.7375 17.8322 26.6046 17.6772L25.0861 18.9788C25.7213 19.7198 26.6388 20 27.6214 20V18ZM26.6158 17.6904C26.4011 17.431 26.2694 17.0902 26.2694 16.6H24.2694C24.2694 17.4858 24.5217 18.297 25.075 18.9656L26.6158 17.6904ZM26.2694 16.6V4H24.2694V16.6H26.2694ZM39.7076 15.88L38.8132 16.3272L38.8858 16.4724L39.0005 16.5871L39.7076 15.88ZM41.5316 15.88L40.7316 15.28L40.715 15.3022L40.6996 15.3253L41.5316 15.88ZM36.7316 2.296L37.4909 2.94679L37.4965 2.94023L37.502 2.93357L36.7316 2.296ZM44.5556 2.296L43.7852 2.93357L43.7907 2.94023L43.7964 2.94679L44.5556 2.296ZM44.5556 18.328L45.3149 18.9788L45.3205 18.9722L45.326 18.9656L44.5556 18.328ZM36.7316 18.328L35.9612 18.9656L35.9667 18.9722L35.9724 18.9788L36.7316 18.328ZM39.9716 3.648C39.6937 3.648 39.3068 3.7263 39.0048 4.05155C38.7158 4.36282 38.6596 4.73551 38.6596 4.984H40.6596C40.6596 5.00849 40.6555 5.21318 40.4704 5.41245C40.2724 5.6257 40.0416 5.648 39.9716 5.648V3.648ZM38.6596 4.984V15.592H40.6596V4.984H38.6596ZM38.6596 15.592C38.6596 15.7711 38.6767 16.0543 38.8132 16.3272L40.6021 15.4328C40.6434 15.5155 40.6551 15.5781 40.658 15.5956C40.6614 15.6158 40.6596 15.617 40.6596 15.592H38.6596ZM39.0005 16.5871C39.1984 16.785 39.4248 16.8671 39.5731 16.9041C39.7274 16.9427 39.8754 16.952 39.9956 16.952V14.952C39.9719 14.952 39.9999 14.9493 40.0582 14.9639C40.1104 14.9769 40.2649 15.023 40.4147 15.1729L39.0005 16.5871ZM39.9956 16.952H41.2676V14.952H39.9956V16.952ZM41.2676 16.952C41.3836 16.952 41.5404 16.9436 41.7047 16.8988C41.8533 16.8582 42.1549 16.7479 42.3637 16.4347L40.6996 15.3253C40.8764 15.0601 41.1179 14.9858 41.1785 14.9692C41.2549 14.9484 41.2957 14.952 41.2676 14.952V16.952ZM42.3316 16.48C42.5667 16.1666 42.6036 15.8162 42.6036 15.592H40.6036C40.6036 15.5968 40.6028 15.568 40.6155 15.5175C40.6284 15.4659 40.6591 15.3767 40.7316 15.28L42.3316 16.48ZM42.6036 15.592V4.984H40.6036V15.592H42.6036ZM42.6036 4.984C42.6036 4.73551 42.5475 4.36282 42.2584 4.05155C41.9564 3.7263 41.5696 3.648 41.2916 3.648V5.648C41.2217 5.648 40.9908 5.6257 40.7928 5.41245C40.6078 5.21318 40.6036 5.00849 40.6036 4.984H42.6036ZM41.2916 3.648H39.9716V5.648H41.2916V3.648ZM37.1556 4C37.1556 3.50888 37.2874 3.18413 37.4909 2.94679L35.9724 1.64521C35.4078 2.30387 35.1556 3.11512 35.1556 4H37.1556ZM37.502 2.93357C37.6382 2.76896 37.9012 2.6 38.5076 2.6V0.599999C37.514 0.599999 36.593 0.895036 35.9612 1.65843L37.502 2.93357ZM38.5076 2.6H42.7796V0.599999H38.5076V2.6ZM42.7796 2.6C43.386 2.6 43.649 2.76896 43.7852 2.93357L45.326 1.65843C44.6942 0.895036 43.7732 0.599999 42.7796 0.599999V2.6ZM43.7964 2.94679C43.9998 3.18413 44.1316 3.50888 44.1316 4H46.1316C46.1316 3.11512 45.8794 2.30387 45.3149 1.64521L43.7964 2.94679ZM44.1316 4V16.6H46.1316V4H44.1316ZM44.1316 16.6C44.1316 17.0902 43.9999 17.431 43.7852 17.6904L45.326 18.9656C45.8793 18.297 46.1316 17.4858 46.1316 16.6H44.1316ZM43.7964 17.6772C43.6635 17.8322 43.3971 18 42.7796 18V20C43.7622 20 44.6797 19.7198 45.3149 18.9788L43.7964 17.6772ZM42.7796 18H38.5076V20H42.7796V18ZM38.5076 18C37.8902 18 37.6237 17.8322 37.4909 17.6772L35.9724 18.9788C36.6075 19.7198 37.5251 20 38.5076 20V18ZM37.502 17.6904C37.2873 17.431 37.1556 17.0902 37.1556 16.6H35.1556C35.1556 17.4858 35.4079 18.297 35.9612 18.9656L37.502 17.6904ZM37.1556 16.6V4H35.1556V16.6H37.1556ZM50.7619 13.504H49.7619V14.504H50.7619V13.504ZM50.7619 11.632V10.632H49.7619V11.632H50.7619ZM60.8419 11.632H61.8419V10.632H60.8419V11.632ZM60.8419 13.504V14.504H61.8419V13.504H60.8419ZM51.7619 13.504V11.632H49.7619V13.504H51.7619ZM50.7619 12.632H60.8419V10.632H50.7619V12.632ZM59.8419 11.632V13.504H61.8419V11.632H59.8419ZM60.8419 12.504H50.7619V14.504H60.8419V12.504ZM74.2339 9.232L73.3859 8.702L73.3736 8.7216L73.3623 8.74174L74.2339 9.232ZM73.4179 10.024L72.8556 9.19707L72.8246 9.21814L72.7953 9.24146L73.4179 10.024ZM70.1299 12.64L70.7111 13.4537L70.7322 13.4387L70.7525 13.4225L70.1299 12.64ZM69.9619 15.76H68.9619V16.76H69.9619V15.76ZM74.1619 15.76H75.1619V14.76H74.1619V15.76ZM74.1619 19V20H75.1619V19H74.1619ZM66.4819 19H65.4819V20H66.4819V19ZM66.7219 11.32L65.7988 10.9354L65.7988 10.9354L66.7219 11.32ZM67.6099 10.336L68.1427 11.1822L68.1816 11.1577L68.2182 11.1297L67.6099 10.336ZM70.8979 7.816L70.3166 7.00227L70.3029 7.01205L70.2896 7.0223L70.8979 7.816ZM71.0899 7.624L70.2578 7.0693L70.1835 7.18073L70.1412 7.30777L71.0899 7.624ZM66.5539 4.84H65.5539V5.84H66.5539V4.84ZM66.5539 1.6V0.599999H65.5539V1.6H66.5539ZM73.8739 2.152L73.182 2.87399L73.1893 2.88103L73.1968 2.88793L73.8739 2.152ZM73.4739 8.176C73.4739 8.52151 73.4095 8.66417 73.3859 8.702L75.0819 9.762C75.3782 9.28783 75.4739 8.72649 75.4739 8.176H73.4739ZM73.3623 8.74174C73.3278 8.80311 73.2007 8.9624 72.8556 9.19707L73.9802 10.8509C74.4351 10.5416 74.852 10.1729 75.1054 9.72226L73.3623 8.74174ZM72.7953 9.24146L69.5073 11.8575L70.7525 13.4225L74.0405 10.8065L72.7953 9.24146ZM69.5486 11.8263C69.0791 12.1616 68.9619 12.6703 68.9619 13.048H70.9619C70.9619 13.048 70.9619 13.0605 70.9581 13.0828C70.9543 13.1053 70.9461 13.1402 70.9285 13.1827C70.8901 13.276 70.8186 13.377 70.7111 13.4537L69.5486 11.8263ZM68.9619 13.048V15.76H70.9619V13.048H68.9619ZM69.9619 16.76H74.1619V14.76H69.9619V16.76ZM73.1619 15.76V19H75.1619V15.76H73.1619ZM74.1619 18H66.4819V20H74.1619V18ZM67.4819 19V12.736H65.4819V19H67.4819ZM67.4819 12.736C67.4819 12.265 67.55 11.9325 67.6449 11.7046L65.7988 10.9354C65.5737 11.4755 65.4819 12.087 65.4819 12.736H67.4819ZM67.6449 11.7046C67.7091 11.5507 67.8451 11.3696 68.1427 11.1822L67.0771 9.48977C66.5107 9.84638 66.0546 10.3213 65.7988 10.9354L67.6449 11.7046ZM68.2182 11.1297L71.5062 8.6097L70.2896 7.0223L67.0016 9.5423L68.2182 11.1297ZM71.4791 8.62973C71.5594 8.57238 71.6515 8.50056 71.737 8.41511C71.8051 8.34699 71.9567 8.18586 72.0386 7.94023L70.1412 7.30777C70.1777 7.1981 70.2265 7.12179 70.2551 7.08176C70.2853 7.03951 70.3112 7.01246 70.3228 7.00089C70.3442 6.97944 70.3483 6.97962 70.3166 7.00227L71.4791 8.62973ZM71.9219 8.1787C72.0982 7.91423 72.1379 7.63563 72.1379 7.432H70.1379C70.1379 7.38837 70.1455 7.23777 70.2578 7.0693L71.9219 8.1787ZM72.1379 7.432V5.152H70.1379V7.432H72.1379ZM72.1379 5.152C72.1379 4.87407 72.0596 4.48722 71.7343 4.18521C71.4231 3.89617 71.0504 3.84 70.8019 3.84V5.84C70.7774 5.84 70.5727 5.83583 70.3734 5.65079C70.1602 5.45277 70.1379 5.22193 70.1379 5.152H72.1379ZM70.8019 3.84H66.5539V5.84H70.8019V3.84ZM67.5539 4.84V1.6H65.5539V4.84H67.5539ZM66.5539 2.6H72.4339V0.599999H66.5539V2.6ZM72.4339 2.6C72.7755 2.6 73.0004 2.69999 73.182 2.87399L74.5658 1.43001C73.9793 0.868006 73.2443 0.599999 72.4339 0.599999V2.6ZM73.1968 2.88793C73.3391 3.01886 73.4739 3.24843 73.4739 3.736H75.4739C75.4739 2.84757 75.2086 2.02114 74.5509 1.41607L73.1968 2.88793ZM73.4739 3.736V8.176H75.4739V3.736H73.4739ZM76.1437 1.6V0.599999H75.1437V1.6H76.1437ZM83.0317 2.152L82.2933 2.82627L82.3007 2.83446L82.3084 2.84247L83.0317 2.152ZM83.2717 9.736L82.4185 9.21455L82.4077 9.23224L82.3976 9.25036L83.2717 9.736ZM82.1918 10.24L82.1063 9.24365L82.1918 11.24V10.24ZM83.3438 10.768L82.4493 11.2152L82.4617 11.24L82.4755 11.2641L83.3438 10.768ZM76.1677 19H75.1677V20H76.1677V19ZM76.1677 15.76V14.76H75.1677V15.76H76.1677ZM80.0077 15.712L80.3791 16.6405L80.4535 16.6107L80.5222 16.5695L80.0077 15.712ZM80.0558 12.16L80.9132 11.6455L80.9132 11.6455L80.0558 12.16ZM77.0317 12.04H76.0317V13.04H77.0317V12.04ZM77.0317 9.04V8.04H76.0317V9.04H77.0317ZM80.0317 8.944L79.3246 8.23689L79.3246 8.23689L80.0317 8.944ZM80.0077 4.936L79.3006 5.64311L79.3877 5.73015L79.4933 5.79349L80.0077 4.936ZM76.1437 4.84H75.1437V5.84H76.1437V4.84ZM76.1437 2.6H81.1837V0.599999H76.1437V2.6ZM81.1837 2.6C82.0065 2.6 82.252 2.78102 82.2933 2.82627L83.7702 1.47773C83.1395 0.786974 82.153 0.599999 81.1837 0.599999V2.6ZM82.3084 2.84247C82.3822 2.9198 82.5357 3.18071 82.5357 3.88H84.5357C84.5357 2.97929 84.3533 2.0882 83.7551 1.46152L82.3084 2.84247ZM82.5357 3.88V8.704H84.5357V3.88H82.5357ZM82.5357 8.704C82.5357 8.9544 82.482 9.11053 82.4185 9.21455L84.125 10.2574C84.4135 9.78547 84.5357 9.2536 84.5357 8.704H82.5357ZM82.3976 9.25036C82.4396 9.1748 82.4881 9.15818 82.4589 9.17182C82.4194 9.19025 82.3141 9.22585 82.1063 9.24365L82.2772 11.2363C82.9348 11.18 83.7365 10.9585 84.1459 10.2216L82.3976 9.25036ZM82.1918 11.24C82.3979 11.24 82.4873 11.272 82.5071 11.2811C82.5137 11.2841 82.5034 11.2803 82.4867 11.2646C82.4694 11.2482 82.4566 11.2298 82.4493 11.2152L84.2382 10.3208C83.8149 9.47423 82.9495 9.24 82.1918 9.24V11.24ZM82.4755 11.2641C82.5655 11.4216 82.6318 11.6434 82.6318 11.968H84.6318C84.6318 11.3646 84.506 10.7864 84.212 10.2719L82.4755 11.2641ZM82.6318 11.968V16.312H84.6318V11.968H82.6318ZM82.6318 16.312C82.6318 17.1749 82.4447 17.5438 82.3109 17.6829L83.7526 19.0691C84.4188 18.3762 84.6318 17.3691 84.6318 16.312H82.6318ZM82.3109 17.6829C82.1993 17.799 81.8449 18 80.9197 18V20C82.0106 20 83.0642 19.785 83.7526 19.0691L82.3109 17.6829ZM80.9197 18H76.1677V20H80.9197V18ZM77.1677 19V15.76H75.1677V19H77.1677ZM76.1677 16.76H79.6477V14.76H76.1677V16.76ZM79.6477 16.76C79.8449 16.76 80.1192 16.7444 80.3791 16.6405L79.6364 14.7835C79.6688 14.7705 79.6936 14.7638 79.7069 14.7606C79.7205 14.7573 79.7273 14.7565 79.7256 14.7568C79.7241 14.757 79.7169 14.7578 79.7032 14.7586C79.6896 14.7594 79.6713 14.76 79.6477 14.76V16.76ZM80.5222 16.5695C80.8484 16.3738 80.9907 16.0752 81.0522 15.8783C81.1142 15.6799 81.1277 15.4839 81.1277 15.328H79.1277C79.1277 15.3801 79.1213 15.3521 79.1433 15.2817C79.1648 15.2128 79.2471 15.0022 79.4933 14.8545L80.5222 16.5695ZM81.1277 15.328V12.472H79.1277V15.328H81.1277ZM81.1277 12.472C81.1277 12.2275 81.083 11.9284 80.9132 11.6455L79.1983 12.6745C79.1245 12.5516 79.1277 12.4605 79.1277 12.472H81.1277ZM80.9132 11.6455C80.7287 11.3379 80.4515 11.1898 80.246 11.1213C80.0457 11.0545 79.8495 11.04 79.6957 11.04V13.04C79.734 13.04 79.6938 13.0455 79.6135 13.0187C79.528 12.9902 79.3348 12.9021 79.1983 12.6745L80.9132 11.6455ZM79.6957 11.04H77.0317V13.04H79.6957V11.04ZM78.0317 12.04V9.04H76.0317V12.04H78.0317ZM77.0317 10.04H79.6477V8.04H77.0317V10.04ZM79.6477 10.04C79.792 10.04 79.96 10.0287 80.1303 9.98614C80.2945 9.94508 80.533 9.85697 80.7389 9.65111L79.3246 8.23689C79.4665 8.09502 79.609 8.05492 79.6452 8.04586C79.6875 8.03528 79.6955 8.04 79.6477 8.04V10.04ZM80.7389 9.65111C80.9447 9.44524 81.0328 9.20678 81.0739 9.04253C81.1165 8.87223 81.1277 8.70426 81.1277 8.56H79.1277C79.1277 8.60773 79.123 8.59977 79.1336 8.55746C79.1427 8.52122 79.1828 8.37876 79.3246 8.23689L80.7389 9.65111ZM81.1277 8.56V5.272H79.1277V8.56H81.1277ZM81.1277 5.272C81.1277 5.04723 81.0942 4.4217 80.5222 4.07851L79.4933 5.79349C79.2856 5.66887 79.192 5.49318 79.156 5.39234C79.1237 5.30183 79.1277 5.24891 79.1277 5.272H81.1277ZM80.7149 4.22889C80.3972 3.91121 80.0019 3.84 79.7198 3.84V5.84C79.6936 5.84 79.4903 5.83279 79.3006 5.64311L80.7149 4.22889ZM79.7198 3.84H76.1437V5.84H79.7198V3.84ZM77.1437 4.84V1.6H75.1437V4.84H77.1437ZM88.7511 10.312L89.4423 11.0346L89.4503 11.027L89.4582 11.0191L88.7511 10.312ZM86.1111 10.312L85.404 11.0191L85.4118 11.027L85.4198 11.0346L86.1111 10.312ZM88.7511 18.712L89.4423 19.4346L89.4503 19.427L89.4582 19.4191L88.7511 18.712ZM86.1111 18.712L85.404 19.4191L85.4118 19.427L85.4198 19.4346L86.1111 18.712ZM86.5591 8.992C86.5591 8.75008 86.6342 8.56304 86.8182 8.37911L85.404 6.96489C84.8519 7.51696 84.5591 8.20992 84.5591 8.992H86.5591ZM86.8182 8.37911C87.0021 8.19518 87.1891 8.12 87.4311 8.12V6.12C86.649 6.12 85.956 6.41282 85.404 6.96489L86.8182 8.37911ZM87.4311 8.12C87.673 8.12 87.86 8.19518 88.044 8.37911L89.4582 6.96489C88.9061 6.41282 88.2131 6.12 87.4311 6.12V8.12ZM88.044 8.37911C88.2279 8.56304 88.3031 8.75008 88.3031 8.992H90.3031C90.3031 8.20992 90.0102 7.51696 89.4582 6.96489L88.044 8.37911ZM88.3031 8.992C88.3031 9.23392 88.2279 9.42096 88.044 9.60489L89.4582 11.0191C90.0102 10.467 90.3031 9.77408 90.3031 8.992H88.3031ZM88.0598 9.58936C87.8791 9.76228 87.6871 9.84 87.4311 9.84V11.84C88.199 11.84 88.8871 11.5657 89.4423 11.0346L88.0598 9.58936ZM87.4311 9.84C87.175 9.84 86.9831 9.76228 86.8023 9.58936L85.4198 11.0346C85.9751 11.5657 86.6631 11.84 87.4311 11.84V9.84ZM86.8182 9.60489C86.6342 9.42096 86.5591 9.23392 86.5591 8.992H84.5591C84.5591 9.77408 84.8519 10.467 85.404 11.0191L86.8182 9.60489ZM86.5591 17.392C86.5591 17.1501 86.6342 16.963 86.8182 16.7791L85.404 15.3649C84.8519 15.917 84.5591 16.6099 84.5591 17.392H86.5591ZM86.8182 16.7791C87.0021 16.5952 87.1891 16.52 87.4311 16.52V14.52C86.649 14.52 85.956 14.8128 85.404 15.3649L86.8182 16.7791ZM87.4311 16.52C87.673 16.52 87.86 16.5952 88.044 16.7791L89.4582 15.3649C88.9061 14.8128 88.2131 14.52 87.4311 14.52V16.52ZM88.044 16.7791C88.2279 16.963 88.3031 17.1501 88.3031 17.392H90.3031C90.3031 16.6099 90.0102 15.917 89.4582 15.3649L88.044 16.7791ZM88.3031 17.392C88.3031 17.6339 88.2279 17.821 88.044 18.0049L89.4582 19.4191C90.0102 18.867 90.3031 18.1741 90.3031 17.392H88.3031ZM88.0598 17.9894C87.8791 18.1623 87.6871 18.24 87.4311 18.24V20.24C88.199 20.24 88.8871 19.9657 89.4423 19.4346L88.0598 17.9894ZM87.4311 18.24C87.175 18.24 86.9831 18.1623 86.8023 17.9894L85.4198 19.4346C85.9751 19.9657 86.6631 20.24 87.4311 20.24V18.24ZM86.8182 18.0049C86.6342 17.821 86.5591 17.6339 86.5591 17.392H84.5591C84.5591 18.1741 84.8519 18.867 85.404 19.4191L86.8182 18.0049ZM94.7707 15.88L93.8763 16.3272L93.9489 16.4724L94.0636 16.5871L94.7707 15.88ZM96.5947 15.88L95.7947 15.28L95.7781 15.3022L95.7627 15.3253L96.5947 15.88ZM91.7947 2.296L92.554 2.94679L92.5596 2.94023L92.5651 2.93357L91.7947 2.296ZM99.6187 2.296L98.8484 2.93357L98.8539 2.94023L98.8595 2.94679L99.6187 2.296ZM99.6187 18.328L100.378 18.9788L100.384 18.9722L100.389 18.9656L99.6187 18.328ZM91.7947 18.328L91.0244 18.9656L91.0299 18.9722L91.0355 18.9788L91.7947 18.328ZM95.0347 3.648C94.7568 3.648 94.37 3.7263 94.068 4.05155C93.7789 4.36282 93.7227 4.73551 93.7227 4.984H95.7227C95.7227 5.00849 95.7186 5.21318 95.5335 5.41245C95.3355 5.6257 95.1047 5.648 95.0347 5.648V3.648ZM93.7227 4.984V15.592H95.7227V4.984H93.7227ZM93.7227 15.592C93.7227 15.7711 93.7398 16.0543 93.8763 16.3272L95.6652 15.4328C95.7065 15.5155 95.7182 15.5781 95.7211 15.5956C95.7245 15.6158 95.7227 15.617 95.7227 15.592H93.7227ZM94.0636 16.5871C94.2615 16.785 94.488 16.8671 94.6362 16.9041C94.7905 16.9427 94.9385 16.952 95.0587 16.952V14.952C95.035 14.952 95.063 14.9493 95.1213 14.9639C95.1735 14.9769 95.328 15.023 95.4779 15.1729L94.0636 16.5871ZM95.0587 16.952H96.3307V14.952H95.0587V16.952ZM96.3307 16.952C96.4467 16.952 96.6035 16.9436 96.7679 16.8988C96.9164 16.8582 97.218 16.7479 97.4268 16.4347L95.7627 15.3253C95.9395 15.0601 96.1811 14.9858 96.2416 14.9692C96.318 14.9484 96.3588 14.952 96.3307 14.952V16.952ZM97.3947 16.48C97.6298 16.1666 97.6667 15.8162 97.6667 15.592H95.6667C95.6667 15.5968 95.666 15.568 95.6786 15.5175C95.6915 15.4659 95.7223 15.3767 95.7947 15.28L97.3947 16.48ZM97.6667 15.592V4.984H95.6667V15.592H97.6667ZM97.6667 4.984C97.6667 4.73551 97.6106 4.36282 97.3215 4.05155C97.0195 3.7263 96.6327 3.648 96.3547 3.648V5.648C96.2848 5.648 96.054 5.6257 95.856 5.41245C95.6709 5.21318 95.6667 5.00849 95.6667 4.984H97.6667ZM96.3547 3.648H95.0347V5.648H96.3547V3.648ZM92.2187 4C92.2187 3.50888 92.3506 3.18413 92.554 2.94679L91.0355 1.64521C90.4709 2.30387 90.2187 3.11512 90.2187 4H92.2187ZM92.5651 2.93357C92.7014 2.76896 92.9643 2.6 93.5707 2.6V0.599999C92.5772 0.599999 91.6561 0.895036 91.0244 1.65843L92.5651 2.93357ZM93.5707 2.6H97.8427V0.599999H93.5707V2.6ZM97.8427 2.6C98.4492 2.6 98.7121 2.76896 98.8484 2.93357L100.389 1.65843C99.7574 0.895036 98.8363 0.599999 97.8427 0.599999V2.6ZM98.8595 2.94679C99.0629 3.18413 99.1947 3.50888 99.1947 4H101.195C101.195 3.11512 100.943 2.30387 100.378 1.64521L98.8595 2.94679ZM99.1947 4V16.6H101.195V4H99.1947ZM99.1947 16.6C99.1947 17.0902 99.0631 17.431 98.8484 17.6904L100.389 18.9656C100.942 18.297 101.195 17.4858 101.195 16.6H99.1947ZM98.8595 17.6772C98.7267 17.8322 98.4602 18 97.8427 18V20C98.8253 20 99.7428 19.7198 100.378 18.9788L98.8595 17.6772ZM97.8427 18H93.5707V20H97.8427V18ZM93.5707 18C92.9533 18 92.6868 17.8322 92.554 17.6772L91.0355 18.9788C91.6707 19.7198 92.5882 20 93.5707 20V18ZM92.5651 17.6904C92.3504 17.431 92.2187 17.0902 92.2187 16.6H90.2187C90.2187 17.4858 90.4711 18.297 91.0244 18.9656L92.5651 17.6904ZM92.2187 16.6V4H90.2187V16.6H92.2187ZM105.657 15.88L104.763 16.3272L104.835 16.4724L104.95 16.5871L105.657 15.88ZM107.481 15.88L106.681 15.28L106.664 15.3022L106.649 15.3253L107.481 15.88ZM102.681 2.296L103.44 2.94679L103.446 2.94023L103.451 2.93357L102.681 2.296ZM110.505 2.296L109.735 2.93357L109.74 2.94023L109.746 2.94679L110.505 2.296ZM110.505 18.328L111.264 18.9788L111.27 18.9722L111.275 18.9656L110.505 18.328ZM102.681 18.328L101.911 18.9656L101.916 18.9722L101.922 18.9788L102.681 18.328ZM105.921 3.648C105.643 3.648 105.256 3.7263 104.954 4.05155C104.665 4.36282 104.609 4.73551 104.609 4.984H106.609C106.609 5.00849 106.605 5.21318 106.42 5.41245C106.222 5.6257 105.991 5.648 105.921 5.648V3.648ZM104.609 4.984V15.592H106.609V4.984H104.609ZM104.609 15.592C104.609 15.7711 104.626 16.0543 104.763 16.3272L106.551 15.4328C106.593 15.5155 106.604 15.5781 106.607 15.5956C106.611 15.6158 106.609 15.617 106.609 15.592H104.609ZM104.95 16.5871C105.148 16.785 105.374 16.8671 105.522 16.9041C105.677 16.9427 105.825 16.952 105.945 16.952V14.952C105.921 14.952 105.949 14.9493 106.008 14.9639C106.06 14.9769 106.214 15.023 106.364 15.1729L104.95 16.5871ZM105.945 16.952H107.217V14.952H105.945V16.952ZM107.217 16.952C107.333 16.952 107.49 16.9436 107.654 16.8988C107.803 16.8582 108.104 16.7479 108.313 16.4347L106.649 15.3253C106.826 15.0601 107.067 14.9858 107.128 14.9692C107.204 14.9484 107.245 14.952 107.217 14.952V16.952ZM108.281 16.48C108.516 16.1666 108.553 15.8162 108.553 15.592H106.553C106.553 15.5968 106.552 15.568 106.565 15.5175C106.578 15.4659 106.609 15.3767 106.681 15.28L108.281 16.48ZM108.553 15.592V4.984H106.553V15.592H108.553ZM108.553 4.984C108.553 4.73551 108.497 4.36282 108.208 4.05155C107.906 3.7263 107.519 3.648 107.241 3.648V5.648C107.171 5.648 106.94 5.6257 106.742 5.41245C106.557 5.21318 106.553 5.00849 106.553 4.984H108.553ZM107.241 3.648H105.921V5.648H107.241V3.648ZM103.105 4C103.105 3.50888 103.237 3.18413 103.44 2.94679L101.922 1.64521C101.357 2.30387 101.105 3.11512 101.105 4H103.105ZM103.451 2.93357C103.588 2.76896 103.851 2.6 104.457 2.6V0.599999C103.463 0.599999 102.542 0.895036 101.911 1.65843L103.451 2.93357ZM104.457 2.6H108.729V0.599999H104.457V2.6ZM108.729 2.6C109.335 2.6 109.598 2.76896 109.735 2.93357L111.275 1.65843C110.644 0.895036 109.723 0.599999 108.729 0.599999V2.6ZM109.746 2.94679C109.949 3.18413 110.081 3.50888 110.081 4H112.081C112.081 3.11512 111.829 2.30387 111.264 1.64521L109.746 2.94679ZM110.081 4V16.6H112.081V4H110.081ZM110.081 16.6C110.081 17.0902 109.949 17.431 109.735 17.6904L111.275 18.9656C111.829 18.297 112.081 17.4858 112.081 16.6H110.081ZM109.746 17.6772C109.613 17.8322 109.346 18 108.729 18V20C109.712 20 110.629 19.7198 111.264 18.9788L109.746 17.6772ZM108.729 18H104.457V20H108.729V18ZM104.457 18C103.84 18 103.573 17.8322 103.44 17.6772L101.922 18.9788C102.557 19.7198 103.474 20 104.457 20V18ZM103.451 17.6904C103.237 17.431 103.105 17.0902 103.105 16.6H101.105C101.105 17.4858 101.357 18.297 101.911 18.9656L103.451 17.6904ZM103.105 16.6V4H101.105V16.6H103.105Z" fill="#1B1B1B" mask="url(#path-1-outside-1_2900_94)"></path></svg> 