<svg xmlns="http://www.w3.org/2000/svg" height="40" viewBox="0 0 116 20" fill="none"><mask id="path-1-outside-1_2900_92" maskUnits="userSpaceOnUse" x="0" y="0" width="116" height="20" fill="black"><rect fill="white" width="116" height="20"></rect><path d="M1.432 1.6H6.424V19H2.848V4.84H1.408L1.432 1.6ZM14.5358 4.936C14.5358 4.744 14.4478 4.648 14.2718 4.648H12.8558C12.6798 4.648 12.5918 4.744 12.5918 4.936V10.072C12.5918 10.232 12.6638 10.312 12.8078 10.312H14.5358V4.936ZM18.0398 16.312C18.0398 17.272 17.8398 17.96 17.4398 18.376C17.0398 18.792 16.3358 19 15.3278 19H9.73581V15.76H14.2478C14.4398 15.76 14.5358 15.648 14.5358 15.424V12.952H11.0318C10.5038 12.952 10.0638 12.8 9.71181 12.496C9.37581 12.176 9.20781 11.696 9.20781 11.056V3.736C9.20781 3.048 9.39981 2.52 9.78381 2.152C10.1838 1.784 10.6718 1.6 11.2478 1.6H15.9998C16.5758 1.6 17.0558 1.784 17.4398 2.152C17.8398 2.52 18.0398 3.048 18.0398 3.736V16.312ZM32.0974 19H28.8814V11.728L27.0094 19H23.4334V1.6H27.0094V8.584L28.7854 1.6H32.0974V19ZM47.839 16.528C47.839 16.864 47.799 17.184 47.719 17.488C47.639 17.776 47.503 18.032 47.311 18.256C47.119 18.48 46.863 18.664 46.543 18.808C46.223 18.936 45.823 19 45.343 19H41.311C40.831 19 40.431 18.936 40.111 18.808C39.791 18.664 39.535 18.48 39.343 18.256C39.151 18.032 39.015 17.776 38.935 17.488C38.855 17.184 38.815 16.864 38.815 16.528V12.04H37.567V19H34.015V1.6H37.567V9.04H38.815V3.856C38.815 3.168 38.999 2.624 39.367 2.224C39.751 1.808 40.351 1.6 41.167 1.6H45.487C46.303 1.6 46.895 1.808 47.263 2.224C47.647 2.624 47.839 3.168 47.839 3.856V16.528ZM42.631 4.648C42.423 4.648 42.319 4.76 42.319 4.984V15.592C42.319 15.72 42.335 15.816 42.367 15.88C42.415 15.928 42.511 15.952 42.655 15.952H43.975C44.119 15.952 44.207 15.928 44.239 15.88C44.287 15.816 44.311 15.72 44.311 15.592V4.984C44.311 4.76 44.207 4.648 43.999 4.648H42.631ZM55.8248 4.84C55.5848 4.84 55.3928 4.872 55.2488 4.936C55.1048 4.984 54.9928 5.08 54.9128 5.224C54.8328 5.368 54.7688 5.56 54.7208 5.8C54.6728 6.04 54.6168 6.352 54.5528 6.736L53.1128 16.768L52.8008 19H49.2728L51.5048 4.864C51.5688 4.48 51.6408 4.096 51.7208 3.712C51.8168 3.328 51.9608 2.984 52.1528 2.68C52.3608 2.36 52.6488 2.104 53.0168 1.912C53.3848 1.704 53.8888 1.6 54.5288 1.6H59.3288V19H55.8008L55.8248 4.84ZM61.3924 3.856C61.3924 3.168 61.5764 2.624 61.9444 2.224C62.3284 1.808 62.9284 1.6 63.7444 1.6H70.3444V19H66.8644V13.456H66.4084L64.7284 19H61.1284L62.9524 13.456C62.4404 13.456 62.0484 13.296 61.7764 12.976C61.5204 12.656 61.3924 12.304 61.3924 11.92V3.856ZM65.1604 4.648C64.9364 4.648 64.8244 4.768 64.8244 5.008V10.288C64.8244 10.528 64.9364 10.648 65.1604 10.648H66.8644V4.648H65.1604ZM83.7473 8.176C83.7473 8.624 83.6673 8.976 83.5073 9.232C83.3633 9.488 83.0913 9.752 82.6913 10.024L79.4033 12.64C79.2913 12.72 79.2353 12.856 79.2353 13.048V15.76H83.4353V19H75.7553V12.736C75.7553 12.176 75.8353 11.704 75.9953 11.32C76.1553 10.936 76.4513 10.608 76.8833 10.336L80.1713 7.816C80.2833 7.736 80.3473 7.672 80.3633 7.624C80.3953 7.576 80.4113 7.512 80.4113 7.432V5.152C80.4113 4.944 80.2993 4.84 80.0753 4.84H75.8273V1.6H81.7073C82.2833 1.6 82.7633 1.784 83.1473 2.152C83.5473 2.52 83.7473 3.048 83.7473 3.736V8.176ZM89.4732 4.648C89.2652 4.648 89.1612 4.76 89.1612 4.984V15.592C89.1612 15.72 89.1772 15.816 89.2092 15.88C89.2572 15.928 89.3532 15.952 89.4972 15.952H90.7692C90.9132 15.952 91.0012 15.928 91.0332 15.88C91.0812 15.816 91.1052 15.72 91.1052 15.592V4.984C91.1052 4.76 91.0012 4.648 90.7932 4.648H89.4732ZM85.6572 4C85.6572 3.312 85.8492 2.744 86.2332 2.296C86.6172 1.832 87.2092 1.6 88.0092 1.6H92.2812C93.0812 1.6 93.6732 1.832 94.0572 2.296C94.4412 2.744 94.6332 3.312 94.6332 4V16.6C94.6332 17.288 94.4412 17.864 94.0572 18.328C93.6732 18.776 93.0812 19 92.2812 19H88.0092C87.2092 19 86.6172 18.776 86.2332 18.328C85.8492 17.864 85.6572 17.288 85.6572 16.6V4ZM104.535 8.176C104.535 8.624 104.455 8.976 104.295 9.232C104.151 9.488 103.879 9.752 103.479 10.024L100.191 12.64C100.079 12.72 100.023 12.856 100.023 13.048V15.76H104.223V19H96.5434V12.736C96.5434 12.176 96.6234 11.704 96.7834 11.32C96.9434 10.936 97.2394 10.608 97.6714 10.336L100.959 7.816C101.071 7.736 101.135 7.672 101.151 7.624C101.183 7.576 101.199 7.512 101.199 7.432V5.152C101.199 4.944 101.087 4.84 100.863 4.84H96.6154V1.6H102.495C103.071 1.6 103.551 1.784 103.935 2.152C104.335 2.52 104.535 3.048 104.535 3.736V8.176ZM106.589 19V15.76H110.477C110.669 15.76 110.765 15.672 110.765 15.496V11.584C110.765 11.424 110.685 11.344 110.525 11.344L107.477 11.368L106.421 10.312V1.624H113.909V4.84H109.829V8.536H112.445C112.973 8.536 113.405 8.704 113.741 9.04C114.093 9.36 114.269 9.752 114.269 10.216V16.384C114.269 17.344 114.069 18.024 113.669 18.424C113.269 18.808 112.573 19 111.581 19H106.589ZM106.421 10.312L107.477 11.368C106.981 11.16 106.629 10.808 106.421 10.312Z"></path></mask><path d="M1.432 1.6H6.424V19H2.848V4.84H1.408L1.432 1.6ZM14.5358 4.936C14.5358 4.744 14.4478 4.648 14.2718 4.648H12.8558C12.6798 4.648 12.5918 4.744 12.5918 4.936V10.072C12.5918 10.232 12.6638 10.312 12.8078 10.312H14.5358V4.936ZM18.0398 16.312C18.0398 17.272 17.8398 17.96 17.4398 18.376C17.0398 18.792 16.3358 19 15.3278 19H9.73581V15.76H14.2478C14.4398 15.76 14.5358 15.648 14.5358 15.424V12.952H11.0318C10.5038 12.952 10.0638 12.8 9.71181 12.496C9.37581 12.176 9.20781 11.696 9.20781 11.056V3.736C9.20781 3.048 9.39981 2.52 9.78381 2.152C10.1838 1.784 10.6718 1.6 11.2478 1.6H15.9998C16.5758 1.6 17.0558 1.784 17.4398 2.152C17.8398 2.52 18.0398 3.048 18.0398 3.736V16.312ZM32.0974 19H28.8814V11.728L27.0094 19H23.4334V1.6H27.0094V8.584L28.7854 1.6H32.0974V19ZM47.839 16.528C47.839 16.864 47.799 17.184 47.719 17.488C47.639 17.776 47.503 18.032 47.311 18.256C47.119 18.48 46.863 18.664 46.543 18.808C46.223 18.936 45.823 19 45.343 19H41.311C40.831 19 40.431 18.936 40.111 18.808C39.791 18.664 39.535 18.48 39.343 18.256C39.151 18.032 39.015 17.776 38.935 17.488C38.855 17.184 38.815 16.864 38.815 16.528V12.04H37.567V19H34.015V1.6H37.567V9.04H38.815V3.856C38.815 3.168 38.999 2.624 39.367 2.224C39.751 1.808 40.351 1.6 41.167 1.6H45.487C46.303 1.6 46.895 1.808 47.263 2.224C47.647 2.624 47.839 3.168 47.839 3.856V16.528ZM42.631 4.648C42.423 4.648 42.319 4.76 42.319 4.984V15.592C42.319 15.72 42.335 15.816 42.367 15.88C42.415 15.928 42.511 15.952 42.655 15.952H43.975C44.119 15.952 44.207 15.928 44.239 15.88C44.287 15.816 44.311 15.72 44.311 15.592V4.984C44.311 4.76 44.207 4.648 43.999 4.648H42.631ZM55.8248 4.84C55.5848 4.84 55.3928 4.872 55.2488 4.936C55.1048 4.984 54.9928 5.08 54.9128 5.224C54.8328 5.368 54.7688 5.56 54.7208 5.8C54.6728 6.04 54.6168 6.352 54.5528 6.736L53.1128 16.768L52.8008 19H49.2728L51.5048 4.864C51.5688 4.48 51.6408 4.096 51.7208 3.712C51.8168 3.328 51.9608 2.984 52.1528 2.68C52.3608 2.36 52.6488 2.104 53.0168 1.912C53.3848 1.704 53.8888 1.6 54.5288 1.6H59.3288V19H55.8008L55.8248 4.84ZM61.3924 3.856C61.3924 3.168 61.5764 2.624 61.9444 2.224C62.3284 1.808 62.9284 1.6 63.7444 1.6H70.3444V19H66.8644V13.456H66.4084L64.7284 19H61.1284L62.9524 13.456C62.4404 13.456 62.0484 13.296 61.7764 12.976C61.5204 12.656 61.3924 12.304 61.3924 11.92V3.856ZM65.1604 4.648C64.9364 4.648 64.8244 4.768 64.8244 5.008V10.288C64.8244 10.528 64.9364 10.648 65.1604 10.648H66.8644V4.648H65.1604ZM83.7473 8.176C83.7473 8.624 83.6673 8.976 83.5073 9.232C83.3633 9.488 83.0913 9.752 82.6913 10.024L79.4033 12.64C79.2913 12.72 79.2353 12.856 79.2353 13.048V15.76H83.4353V19H75.7553V12.736C75.7553 12.176 75.8353 11.704 75.9953 11.32C76.1553 10.936 76.4513 10.608 76.8833 10.336L80.1713 7.816C80.2833 7.736 80.3473 7.672 80.3633 7.624C80.3953 7.576 80.4113 7.512 80.4113 7.432V5.152C80.4113 4.944 80.2993 4.84 80.0753 4.84H75.8273V1.6H81.7073C82.2833 1.6 82.7633 1.784 83.1473 2.152C83.5473 2.52 83.7473 3.048 83.7473 3.736V8.176ZM89.4732 4.648C89.2652 4.648 89.1612 4.76 89.1612 4.984V15.592C89.1612 15.72 89.1772 15.816 89.2092 15.88C89.2572 15.928 89.3532 15.952 89.4972 15.952H90.7692C90.9132 15.952 91.0012 15.928 91.0332 15.88C91.0812 15.816 91.1052 15.72 91.1052 15.592V4.984C91.1052 4.76 91.0012 4.648 90.7932 4.648H89.4732ZM85.6572 4C85.6572 3.312 85.8492 2.744 86.2332 2.296C86.6172 1.832 87.2092 1.6 88.0092 1.6H92.2812C93.0812 1.6 93.6732 1.832 94.0572 2.296C94.4412 2.744 94.6332 3.312 94.6332 4V16.6C94.6332 17.288 94.4412 17.864 94.0572 18.328C93.6732 18.776 93.0812 19 92.2812 19H88.0092C87.2092 19 86.6172 18.776 86.2332 18.328C85.8492 17.864 85.6572 17.288 85.6572 16.6V4ZM104.535 8.176C104.535 8.624 104.455 8.976 104.295 9.232C104.151 9.488 103.879 9.752 103.479 10.024L100.191 12.64C100.079 12.72 100.023 12.856 100.023 13.048V15.76H104.223V19H96.5434V12.736C96.5434 12.176 96.6234 11.704 96.7834 11.32C96.9434 10.936 97.2394 10.608 97.6714 10.336L100.959 7.816C101.071 7.736 101.135 7.672 101.151 7.624C101.183 7.576 101.199 7.512 101.199 7.432V5.152C101.199 4.944 101.087 4.84 100.863 4.84H96.6154V1.6H102.495C103.071 1.6 103.551 1.784 103.935 2.152C104.335 2.52 104.535 3.048 104.535 3.736V8.176ZM106.589 19V15.76H110.477C110.669 15.76 110.765 15.672 110.765 15.496V11.584C110.765 11.424 110.685 11.344 110.525 11.344L107.477 11.368L106.421 10.312V1.624H113.909V4.84H109.829V8.536H112.445C112.973 8.536 113.405 8.704 113.741 9.04C114.093 9.36 114.269 9.752 114.269 10.216V16.384C114.269 17.344 114.069 18.024 113.669 18.424C113.269 18.808 112.573 19 111.581 19H106.589ZM106.421 10.312L107.477 11.368C106.981 11.16 106.629 10.808 106.421 10.312Z" fill="white"></path><path d="M1.432 1.6V0.599999H0.43938L0.432027 1.59259L1.432 1.6ZM6.424 1.6H7.424V0.599999H6.424V1.6ZM6.424 19V20H7.424V19H6.424ZM2.848 19H1.848V20H2.848V19ZM2.848 4.84H3.848V3.84H2.848V4.84ZM1.408 4.84L0.408027 4.83259L0.400565 5.84H1.408V4.84ZM1.432 2.6H6.424V0.599999H1.432V2.6ZM5.424 1.6V19H7.424V1.6H5.424ZM6.424 18H2.848V20H6.424V18ZM3.848 19V4.84H1.848V19H3.848ZM2.848 3.84H1.408V5.84H2.848V3.84ZM2.40797 4.84741L2.43197 1.60741L0.432027 1.59259L0.408027 4.83259L2.40797 4.84741ZM14.5358 10.312V11.312H15.5358V10.312H14.5358ZM9.73581 19H8.73581V20H9.73581V19ZM9.73581 15.76V14.76H8.73581V15.76H9.73581ZM14.5358 12.952H15.5358V11.952H14.5358V12.952ZM9.71181 12.496L9.02216 13.2201L9.03978 13.2369L9.05819 13.2528L9.71181 12.496ZM9.78381 2.152L9.10676 1.41607L9.09926 1.42296L9.09191 1.43001L9.78381 2.152ZM17.4398 2.152L16.7479 2.87399L16.7553 2.88103L16.7628 2.88793L17.4398 2.152ZM15.5358 4.936C15.5358 4.70637 15.485 4.34762 15.207 4.04428C14.9138 3.72446 14.5374 3.648 14.2718 3.648V5.648C14.1822 5.648 13.9378 5.61954 13.7327 5.39572C13.5426 5.18838 13.5358 4.97363 13.5358 4.936H15.5358ZM14.2718 3.648H12.8558V5.648H14.2718V3.648ZM12.8558 3.648C12.5902 3.648 12.2138 3.72446 11.9207 4.04427C11.6426 4.34762 11.5918 4.70637 11.5918 4.936H13.5918C13.5918 4.97363 13.585 5.18838 13.395 5.39572C13.1898 5.61954 12.9454 5.648 12.8558 5.648V3.648ZM11.5918 4.936V10.072H13.5918V4.936H11.5918ZM11.5918 10.072C11.5918 10.2817 11.6367 10.6256 11.9025 10.921C12.1864 11.2363 12.5529 11.312 12.8078 11.312V9.312C12.9188 9.312 13.1773 9.34766 13.3891 9.58303C13.5829 9.79838 13.5918 10.0223 13.5918 10.072H11.5918ZM12.8078 11.312H14.5358V9.312H12.8078V11.312ZM15.5358 10.312V4.936H13.5358V10.312H15.5358ZM17.0398 16.312C17.0398 17.1749 16.8528 17.5438 16.719 17.6829L18.1606 19.0691C18.8269 18.3762 19.0398 17.3691 19.0398 16.312H17.0398ZM16.719 17.6829C16.6073 17.799 16.253 18 15.3278 18V20C16.4187 20 17.4723 19.785 18.1606 19.0691L16.719 17.6829ZM15.3278 18H9.73581V20H15.3278V18ZM10.7358 19V15.76H8.73581V19H10.7358ZM9.73581 16.76H14.2478V14.76H9.73581V16.76ZM14.2478 16.76C14.5417 16.76 14.9314 16.6671 15.2231 16.3268C15.4895 16.016 15.5358 15.6557 15.5358 15.424H13.5358C13.5358 15.4163 13.5342 15.224 13.7046 15.0252C13.9002 14.7969 14.146 14.76 14.2478 14.76V16.76ZM15.5358 15.424V12.952H13.5358V15.424H15.5358ZM14.5358 11.952H11.0318V13.952H14.5358V11.952ZM11.0318 11.952C10.7092 11.952 10.5112 11.8651 10.3654 11.7392L9.05819 13.2528C9.61639 13.7349 10.2984 13.952 11.0318 13.952V11.952ZM10.4015 11.7719C10.3295 11.7034 10.2078 11.5291 10.2078 11.056H8.20781C8.20781 11.8629 8.42208 12.6486 9.02216 13.2201L10.4015 11.7719ZM10.2078 11.056V3.736H8.20781V11.056H10.2078ZM10.2078 3.736C10.2078 3.23648 10.342 3.00217 10.4757 2.87399L9.09191 1.43001C8.45767 2.03783 8.20781 2.85952 8.20781 3.736H10.2078ZM10.4609 2.88793C10.6645 2.70055 10.9062 2.6 11.2478 2.6V0.599999C10.4374 0.599999 9.70308 0.86745 9.10676 1.41607L10.4609 2.88793ZM11.2478 2.6H15.9998V0.599999H11.2478V2.6ZM15.9998 2.6C16.3414 2.6 16.5663 2.69999 16.7479 2.87399L18.1317 1.43001C17.5453 0.868006 16.8102 0.599999 15.9998 0.599999V2.6ZM16.7628 2.88793C16.9051 3.01886 17.0398 3.24843 17.0398 3.736H19.0398C19.0398 2.84757 18.7746 2.02114 18.1169 1.41607L16.7628 2.88793ZM17.0398 3.736V16.312H19.0398V3.736H17.0398ZM32.0974 19V20H33.0974V19H32.0974ZM28.8814 19H27.8814V20H28.8814V19ZM28.8814 11.728H29.8814L27.913 11.4787L28.8814 11.728ZM27.0094 19V20H27.7846L27.9779 19.2493L27.0094 19ZM23.4334 19H22.4334V20H23.4334V19ZM23.4334 1.6V0.599999H22.4334V1.6H23.4334ZM27.0094 1.6H28.0094V0.599999H27.0094V1.6ZM27.0094 8.584H26.0094L27.9786 8.83045L27.0094 8.584ZM28.7854 1.6V0.599999H28.0079L27.8163 1.35355L28.7854 1.6ZM32.0974 1.6H33.0974V0.599999H32.0974V1.6ZM32.0974 18H28.8814V20H32.0974V18ZM29.8814 19V11.728H27.8814V19H29.8814ZM27.913 11.4787L26.041 18.7507L27.9779 19.2493L29.8499 11.9773L27.913 11.4787ZM27.0094 18H23.4334V20H27.0094V18ZM24.4334 19V1.6H22.4334V19H24.4334ZM23.4334 2.6H27.0094V0.599999H23.4334V2.6ZM26.0094 1.6V8.584H28.0094V1.6H26.0094ZM27.9786 8.83045L29.7546 1.84645L27.8163 1.35355L26.0403 8.33755L27.9786 8.83045ZM28.7854 2.6H32.0974V0.599999H28.7854V2.6ZM31.0974 1.6V19H33.0974V1.6H31.0974ZM47.719 17.488L48.6826 17.7557L48.6861 17.7425L47.719 17.488ZM47.311 18.256L48.0703 18.9068L48.0703 18.9068L47.311 18.256ZM46.543 18.808L46.9144 19.7365L46.9341 19.7286L46.9534 19.7199L46.543 18.808ZM40.111 18.808L39.7006 19.7199L39.7199 19.7286L39.7396 19.7365L40.111 18.808ZM38.935 17.488L37.9678 17.7425L37.9715 17.7556L38.935 17.488ZM38.815 12.04H39.815V11.04H38.815V12.04ZM37.567 12.04V11.04H36.567V12.04H37.567ZM37.567 19V20H38.567V19H37.567ZM34.015 19H33.015V20H34.015V19ZM34.015 1.6V0.599999H33.015V1.6H34.015ZM37.567 1.6H38.567V0.599999H37.567V1.6ZM37.567 9.04H36.567V10.04H37.567V9.04ZM38.815 9.04V10.04H39.815V9.04H38.815ZM39.367 2.224L38.6322 1.54572L38.6311 1.54694L39.367 2.224ZM47.263 2.224L46.514 2.88657L46.5275 2.90183L46.5416 2.91653L47.263 2.224ZM42.367 15.88L41.4726 16.3272L41.5451 16.4724L41.6599 16.5871L42.367 15.88ZM44.239 15.88L43.439 15.28L43.4223 15.3022L43.4069 15.3253L44.239 15.88ZM46.839 16.528C46.839 16.784 46.8086 17.0181 46.7519 17.2335L48.6861 17.7425C48.7894 17.3499 48.839 16.944 48.839 16.528H46.839ZM46.7555 17.2204C46.7142 17.3691 46.6471 17.4939 46.5517 17.6052L48.0703 18.9068C48.3589 18.5701 48.5638 18.1829 48.6825 17.7556L46.7555 17.2204ZM46.5517 17.6052C46.4719 17.6984 46.3437 17.8011 46.1326 17.8961L46.9534 19.7199C47.3823 19.5269 47.7661 19.2616 48.0703 18.9068L46.5517 17.6052ZM46.1716 17.8795C46.0063 17.9457 45.7422 18 45.343 18V20C45.9038 20 46.4397 19.9263 46.9144 19.7365L46.1716 17.8795ZM45.343 18H41.311V20H45.343V18ZM41.311 18C40.9118 18 40.6477 17.9457 40.4824 17.8795L39.7396 19.7365C40.2143 19.9263 40.7502 20 41.311 20V18ZM40.5214 17.8961C40.3103 17.8011 40.1821 17.6984 40.1023 17.6052L38.5837 18.9068C38.8879 19.2616 39.2717 19.5269 39.7006 19.7199L40.5214 17.8961ZM40.1023 17.6052C40.0069 17.4939 39.9398 17.3691 39.8985 17.2204L37.9715 17.7556C38.0902 18.1829 38.2951 18.5701 38.5837 18.9068L40.1023 17.6052ZM39.9021 17.2335C39.8454 17.0181 39.815 16.784 39.815 16.528H37.815C37.815 16.944 37.8646 17.3499 37.9679 17.7425L39.9021 17.2335ZM39.815 16.528V12.04H37.815V16.528H39.815ZM38.815 11.04H37.567V13.04H38.815V11.04ZM36.567 12.04V19H38.567V12.04H36.567ZM37.567 18H34.015V20H37.567V18ZM35.015 19V1.6H33.015V19H35.015ZM34.015 2.6H37.567V0.599999H34.015V2.6ZM36.567 1.6V9.04H38.567V1.6H36.567ZM37.567 10.04H38.815V8.04H37.567V10.04ZM39.815 9.04V3.856H37.815V9.04H39.815ZM39.815 3.856C39.815 3.34957 39.9464 3.07116 40.1029 2.90105L38.6311 1.54694C38.0516 2.17684 37.815 2.98643 37.815 3.856H39.815ZM40.1018 2.90228C40.2256 2.76814 40.5049 2.6 41.167 2.6V0.599999C40.1971 0.599999 39.2764 0.847862 38.6322 1.54572L40.1018 2.90228ZM41.167 2.6H45.487V0.599999H41.167V2.6ZM45.487 2.6C46.1531 2.6 46.4106 2.7697 46.514 2.88657L48.012 1.56142C47.3794 0.846297 46.4529 0.599999 45.487 0.599999V2.6ZM46.5416 2.91653C46.7062 3.08793 46.839 3.36075 46.839 3.856H48.839C48.839 2.97525 48.5878 2.16007 47.9844 1.53147L46.5416 2.91653ZM46.839 3.856V16.528H48.839V3.856H46.839ZM42.631 3.648C42.3531 3.648 41.9662 3.7263 41.6642 4.05155C41.3752 4.36282 41.319 4.73551 41.319 4.984H43.319C43.319 5.00849 43.3148 5.21318 43.1298 5.41245C42.9318 5.6257 42.7009 5.648 42.631 5.648V3.648ZM41.319 4.984V15.592H43.319V4.984H41.319ZM41.319 15.592C41.319 15.7711 41.3361 16.0543 41.4726 16.3272L43.2614 15.4328C43.3028 15.5155 43.3145 15.5781 43.3174 15.5956C43.3208 15.6158 43.319 15.617 43.319 15.592H41.319ZM41.6599 16.5871C41.8578 16.785 42.0842 16.8671 42.2325 16.9041C42.3868 16.9427 42.5347 16.952 42.655 16.952V14.952C42.6313 14.952 42.6592 14.9493 42.7175 14.9639C42.7698 14.9769 42.9242 15.023 43.0741 15.1729L41.6599 16.5871ZM42.655 16.952H43.975V14.952H42.655V16.952ZM43.975 16.952C44.0909 16.952 44.2478 16.9436 44.4121 16.8988C44.5607 16.8582 44.8622 16.7479 45.071 16.4347L43.4069 15.3253C43.5838 15.0601 43.8253 14.9858 43.8859 14.9692C43.9622 14.9484 44.0031 14.952 43.975 14.952V16.952ZM45.039 16.48C45.274 16.1666 45.311 15.8162 45.311 15.592H43.311C43.311 15.5968 43.3102 15.568 43.3229 15.5175C43.3358 15.4659 43.3665 15.3767 43.439 15.28L45.039 16.48ZM45.311 15.592V4.984H43.311V15.592H45.311ZM45.311 4.984C45.311 4.73551 45.2548 4.36282 44.9658 4.05155C44.6638 3.7263 44.2769 3.648 43.999 3.648V5.648C43.9291 5.648 43.6982 5.6257 43.5002 5.41245C43.3152 5.21318 43.311 5.00849 43.311 4.984H45.311ZM43.999 3.648H42.631V5.648H43.999V3.648ZM55.8248 4.84L56.8248 4.84169L56.8265 3.84H55.8248V4.84ZM55.2488 4.936L55.565 5.88468L55.6108 5.86942L55.655 5.84981L55.2488 4.936ZM54.7208 5.8L55.7014 5.99612L55.7014 5.99612L54.7208 5.8ZM54.5528 6.736L53.5664 6.5716L53.5646 6.58274L53.563 6.59391L54.5528 6.736ZM53.1128 16.768L52.123 16.6259L52.1224 16.6296L53.1128 16.768ZM52.8008 19V20H53.6708L53.7912 19.1384L52.8008 19ZM49.2728 19L48.2851 18.844L48.1025 20H49.2728V19ZM51.5048 4.864L50.5184 4.69959L50.5171 4.70804L51.5048 4.864ZM51.7208 3.712L50.7507 3.46946L50.7459 3.48867L50.7418 3.50805L51.7208 3.712ZM52.1528 2.68L51.3143 2.13497L51.3073 2.14601L52.1528 2.68ZM53.0168 1.912L53.4794 2.79859L53.4943 2.79082L53.5089 2.78256L53.0168 1.912ZM59.3288 1.6H60.3288V0.599999H59.3288V1.6ZM59.3288 19V20H60.3288V19H59.3288ZM55.8008 19L54.8008 18.9983L54.7991 20H55.8008V19ZM55.8248 3.84C55.511 3.84 55.1636 3.87955 54.8427 4.02219L55.655 5.84981C55.6342 5.85904 55.6339 5.85562 55.6652 5.85039C55.6961 5.84525 55.7477 5.84 55.8248 5.84V3.84ZM54.9326 3.98732C54.5301 4.12148 54.2289 4.39594 54.0387 4.73836L55.787 5.70964C55.776 5.72934 55.7516 5.76555 55.7076 5.80326C55.6625 5.8419 55.6121 5.86899 55.565 5.88468L54.9326 3.98732ZM54.0387 4.73836C53.8904 5.00524 53.7997 5.30674 53.7402 5.60388L55.7014 5.99612C55.738 5.81326 55.7752 5.73076 55.787 5.70964L54.0387 4.73836ZM53.7402 5.60388C53.6893 5.85868 53.6313 6.18238 53.5664 6.5716L55.5392 6.9004C55.6023 6.52162 55.6564 6.22132 55.7014 5.99612L53.7402 5.60388ZM53.563 6.59391L52.123 16.6259L54.1027 16.9101L55.5427 6.87808L53.563 6.59391ZM52.1224 16.6296L51.8104 18.8616L53.7912 19.1384L54.1032 16.9064L52.1224 16.6296ZM52.8008 18H49.2728V20H52.8008V18ZM50.2606 19.156L52.4926 5.01996L50.5171 4.70804L48.2851 18.844L50.2606 19.156ZM52.4912 5.0284C52.553 4.65773 52.6225 4.28692 52.6998 3.91595L50.7418 3.50805C50.6591 3.90508 50.5846 4.30227 50.5184 4.6996L52.4912 5.0284ZM52.691 3.95454C52.7638 3.66336 52.8685 3.4195 52.9983 3.21399L51.3073 2.14601C51.0531 2.5485 50.8699 2.99264 50.7507 3.46946L52.691 3.95454ZM52.9913 3.22499C53.0974 3.06176 53.2502 2.91813 53.4794 2.79859L52.5542 1.02541C52.0474 1.28986 51.6243 1.65823 51.3144 2.13501L52.9913 3.22499ZM53.5089 2.78256C53.6689 2.69212 53.9796 2.6 54.5288 2.6V0.599999C53.798 0.599999 53.1007 0.715876 52.5248 1.04144L53.5089 2.78256ZM54.5288 2.6H59.3288V0.599999H54.5288V2.6ZM58.3288 1.6V19H60.3288V1.6H58.3288ZM59.3288 18H55.8008V20H59.3288V18ZM56.8008 19.0017L56.8248 4.84169L54.8248 4.8383L54.8008 18.9983L56.8008 19.0017ZM61.9444 2.224L61.2096 1.54572L61.2085 1.54694L61.9444 2.224ZM70.3444 1.6H71.3444V0.599999H70.3444V1.6ZM70.3444 19V20H71.3444V19H70.3444ZM66.8644 19H65.8644V20H66.8644V19ZM66.8644 13.456H67.8644V12.456H66.8644V13.456ZM66.4084 13.456V12.456H65.6666L65.4514 13.166L66.4084 13.456ZM64.7284 19V20H65.4703L65.6855 19.29L64.7284 19ZM61.1284 19L60.1785 18.6875L59.7467 20H61.1284V19ZM62.9524 13.456L63.9023 13.7685L64.3342 12.456H62.9524V13.456ZM61.7764 12.976L60.9956 13.6007L61.0049 13.6123L61.0145 13.6236L61.7764 12.976ZM66.8644 10.648V11.648H67.8644V10.648H66.8644ZM66.8644 4.648H67.8644V3.648H66.8644V4.648ZM62.3924 3.856C62.3924 3.34957 62.5239 3.07116 62.6804 2.90105L61.2085 1.54694C60.629 2.17684 60.3924 2.98643 60.3924 3.856H62.3924ZM62.6792 2.90228C62.8031 2.76814 63.0823 2.6 63.7444 2.6V0.599999C62.7746 0.599999 61.8538 0.847862 61.2096 1.54572L62.6792 2.90228ZM63.7444 2.6H70.3444V0.599999H63.7444V2.6ZM69.3444 1.6V19H71.3444V1.6H69.3444ZM70.3444 18H66.8644V20H70.3444V18ZM67.8644 19V13.456H65.8644V19H67.8644ZM66.8644 12.456H66.4084V14.456H66.8644V12.456ZM65.4514 13.166L63.7714 18.71L65.6855 19.29L67.3655 13.746L65.4514 13.166ZM64.7284 18H61.1284V20H64.7284V18ZM62.0783 19.3125L63.9023 13.7685L62.0025 13.1435L60.1785 18.6875L62.0783 19.3125ZM62.9524 12.456C62.6635 12.456 62.5791 12.3763 62.5384 12.3284L61.0145 13.6236C61.5178 14.2157 62.2174 14.456 62.9524 14.456V12.456ZM62.5573 12.3513C62.4329 12.1958 62.3924 12.0611 62.3924 11.92H60.3924C60.3924 12.5469 60.6079 13.1162 60.9956 13.6007L62.5573 12.3513ZM62.3924 11.92V3.856H60.3924V11.92H62.3924ZM65.1604 3.648C64.8759 3.648 64.4837 3.72746 64.1774 4.05568C63.8832 4.37091 63.8244 4.75035 63.8244 5.008H65.8244C65.8244 5.02564 65.8217 5.22509 65.6395 5.42032C65.4452 5.62854 65.2209 5.648 65.1604 5.648V3.648ZM63.8244 5.008V10.288H65.8244V5.008H63.8244ZM63.8244 10.288C63.8244 10.5456 63.8832 10.9251 64.1774 11.2403C64.4837 11.5685 64.8759 11.648 65.1604 11.648V9.648C65.2209 9.648 65.4452 9.66746 65.6395 9.87568C65.8217 10.0709 65.8244 10.2704 65.8244 10.288H63.8244ZM65.1604 11.648H66.8644V9.648H65.1604V11.648ZM67.8644 10.648V4.648H65.8644V10.648H67.8644ZM66.8644 3.648H65.1604V5.648H66.8644V3.648ZM83.5073 9.232L82.6593 8.702L82.6471 8.7216L82.6357 8.74174L83.5073 9.232ZM82.6913 10.024L82.129 9.19707L82.098 9.21814L82.0687 9.24146L82.6913 10.024ZM79.4033 12.64L79.9845 13.4537L80.0056 13.4387L80.0259 13.4225L79.4033 12.64ZM79.2353 15.76H78.2353V16.76H79.2353V15.76ZM83.4353 15.76H84.4353V14.76H83.4353V15.76ZM83.4353 19V20H84.4353V19H83.4353ZM75.7553 19H74.7553V20H75.7553V19ZM75.9953 11.32L75.0722 10.9354L75.0722 10.9354L75.9953 11.32ZM76.8833 10.336L77.4161 11.1822L77.4551 11.1577L77.4916 11.1297L76.8833 10.336ZM80.1713 7.816L79.5901 7.00227L79.5764 7.01205L79.563 7.0223L80.1713 7.816ZM80.3633 7.624L79.5313 7.0693L79.457 7.18073L79.4146 7.30777L80.3633 7.624ZM75.8273 4.84H74.8273V5.84H75.8273V4.84ZM75.8273 1.6V0.599999H74.8273V1.6H75.8273ZM83.1473 2.152L82.4554 2.87399L82.4628 2.88103L82.4703 2.88793L83.1473 2.152ZM82.7473 8.176C82.7473 8.52151 82.683 8.66417 82.6593 8.702L84.3553 9.762C84.6517 9.28783 84.7473 8.72649 84.7473 8.176H82.7473ZM82.6357 8.74174C82.6012 8.80311 82.4741 8.9624 82.129 9.19707L83.2536 10.8509C83.7085 10.5416 84.1254 10.1729 84.3789 9.72226L82.6357 8.74174ZM82.0687 9.24146L78.7807 11.8575L80.0259 13.4225L83.3139 10.8065L82.0687 9.24146ZM78.8221 11.8263C78.3526 12.1616 78.2353 12.6703 78.2353 13.048H80.2353C80.2353 13.048 80.2354 13.0605 80.2315 13.0828C80.2277 13.1053 80.2195 13.1402 80.202 13.1827C80.1636 13.276 80.092 13.377 79.9845 13.4537L78.8221 11.8263ZM78.2353 13.048V15.76H80.2353V13.048H78.2353ZM79.2353 16.76H83.4353V14.76H79.2353V16.76ZM82.4353 15.76V19H84.4353V15.76H82.4353ZM83.4353 18H75.7553V20H83.4353V18ZM76.7553 19V12.736H74.7553V19H76.7553ZM76.7553 12.736C76.7553 12.265 76.8235 11.9325 76.9184 11.7046L75.0722 10.9354C74.8472 11.4755 74.7553 12.087 74.7553 12.736H76.7553ZM76.9184 11.7046C76.9825 11.5507 77.1185 11.3696 77.4161 11.1822L76.3505 9.48977C75.7841 9.84638 75.3281 10.3213 75.0722 10.9354L76.9184 11.7046ZM77.4916 11.1297L80.7796 8.6097L79.563 7.0223L76.275 9.5423L77.4916 11.1297ZM80.7525 8.62973C80.8328 8.57238 80.925 8.50056 81.0104 8.41511C81.0785 8.34699 81.2301 8.18586 81.312 7.94023L79.4146 7.30777C79.4512 7.1981 79.5 7.12179 79.5286 7.08176C79.5588 7.03951 79.5846 7.01246 79.5962 7.00089C79.6177 6.97944 79.6218 6.97962 79.5901 7.00227L80.7525 8.62973ZM81.1954 8.1787C81.3717 7.91423 81.4113 7.63563 81.4113 7.432H79.4113C79.4113 7.38837 79.4189 7.23777 79.5313 7.0693L81.1954 8.1787ZM81.4113 7.432V5.152H79.4113V7.432H81.4113ZM81.4113 5.152C81.4113 4.87407 81.333 4.48722 81.0078 4.18521C80.6965 3.89617 80.3238 3.84 80.0753 3.84V5.84C80.0508 5.84 79.8461 5.83583 79.6469 5.65079C79.4336 5.45277 79.4113 5.22193 79.4113 5.152H81.4113ZM80.0753 3.84H75.8273V5.84H80.0753V3.84ZM76.8273 4.84V1.6H74.8273V4.84H76.8273ZM75.8273 2.6H81.7073V0.599999H75.8273V2.6ZM81.7073 2.6C82.0489 2.6 82.2738 2.69999 82.4554 2.87399L83.8392 1.43001C83.2528 0.868006 82.5177 0.599999 81.7073 0.599999V2.6ZM82.4703 2.88793C82.6126 3.01886 82.7473 3.24843 82.7473 3.736H84.7473C84.7473 2.84757 84.482 2.02114 83.8244 1.41607L82.4703 2.88793ZM82.7473 3.736V8.176H84.7473V3.736H82.7473ZM89.2092 15.88L88.3148 16.3272L88.3873 16.4724L88.5021 16.5871L89.2092 15.88ZM91.0332 15.88L90.2332 15.28L90.2165 15.3022L90.2011 15.3253L91.0332 15.88ZM86.2332 2.296L86.9924 2.94679L86.9981 2.94023L87.0036 2.93357L86.2332 2.296ZM94.0572 2.296L93.2868 2.93357L93.2923 2.94023L93.2979 2.94679L94.0572 2.296ZM94.0572 18.328L94.8164 18.9788L94.8221 18.9722L94.8276 18.9656L94.0572 18.328ZM86.2332 18.328L85.4628 18.9656L85.4683 18.9722L85.4739 18.9788L86.2332 18.328ZM89.4732 3.648C89.1953 3.648 88.8084 3.7263 88.5064 4.05155C88.2174 4.36282 88.1612 4.73551 88.1612 4.984H90.1612C90.1612 5.00849 90.157 5.21318 89.972 5.41245C89.774 5.6257 89.5431 5.648 89.4732 5.648V3.648ZM88.1612 4.984V15.592H90.1612V4.984H88.1612ZM88.1612 15.592C88.1612 15.7711 88.1783 16.0543 88.3148 16.3272L90.1036 15.4328C90.145 15.5155 90.1567 15.5781 90.1596 15.5956C90.1629 15.6158 90.1612 15.617 90.1612 15.592H88.1612ZM88.5021 16.5871C88.6999 16.785 88.9264 16.8671 89.0747 16.9041C89.229 16.9427 89.3769 16.952 89.4972 16.952V14.952C89.4735 14.952 89.5014 14.9493 89.5597 14.9639C89.612 14.9769 89.7664 15.023 89.9163 15.1729L88.5021 16.5871ZM89.4972 16.952H90.7692V14.952H89.4972V16.952ZM90.7692 16.952C90.8851 16.952 91.0419 16.9436 91.2063 16.8988C91.3549 16.8582 91.6564 16.7479 91.8652 16.4347L90.2011 15.3253C90.3779 15.0601 90.6195 14.9858 90.6801 14.9692C90.7564 14.9484 90.7972 14.952 90.7692 14.952V16.952ZM91.8332 16.48C92.0682 16.1666 92.1052 15.8162 92.1052 15.592H90.1052C90.1052 15.5968 90.1044 15.568 90.117 15.5175C90.1299 15.4659 90.1607 15.3767 90.2332 15.28L91.8332 16.48ZM92.1052 15.592V4.984H90.1052V15.592H92.1052ZM92.1052 4.984C92.1052 4.73551 92.049 4.36282 91.76 4.05155C91.458 3.7263 91.0711 3.648 90.7932 3.648V5.648C90.7233 5.648 90.4924 5.6257 90.2944 5.41245C90.1094 5.21318 90.1052 5.00849 90.1052 4.984H92.1052ZM90.7932 3.648H89.4732V5.648H90.7932V3.648ZM86.6572 4C86.6572 3.50888 86.789 3.18413 86.9924 2.94679L85.4739 1.64521C84.9094 2.30387 84.6572 3.11512 84.6572 4H86.6572ZM87.0036 2.93357C87.1398 2.76896 87.4028 2.6 88.0092 2.6V0.599999C87.0156 0.599999 86.0946 0.895036 85.4628 1.65843L87.0036 2.93357ZM88.0092 2.6H92.2812V0.599999H88.0092V2.6ZM92.2812 2.6C92.8876 2.6 93.1506 2.76896 93.2868 2.93357L94.8276 1.65843C94.1958 0.895036 93.2748 0.599999 92.2812 0.599999V2.6ZM93.2979 2.94679C93.5014 3.18413 93.6332 3.50888 93.6332 4H95.6332C95.6332 3.11512 95.381 2.30387 94.8164 1.64521L93.2979 2.94679ZM93.6332 4V16.6H95.6332V4H93.6332ZM93.6332 16.6C93.6332 17.0902 93.5015 17.431 93.2868 17.6904L94.8276 18.9656C95.3809 18.297 95.6332 17.4858 95.6332 16.6H93.6332ZM93.2979 17.6772C93.1651 17.8322 92.8986 18 92.2812 18V20C93.2637 20 94.1813 19.7198 94.8164 18.9788L93.2979 17.6772ZM92.2812 18H88.0092V20H92.2812V18ZM88.0092 18C87.3917 18 87.1253 17.8322 86.9924 17.6772L85.4739 18.9788C86.1091 19.7198 87.0266 20 88.0092 20V18ZM87.0036 17.6904C86.7889 17.431 86.6572 17.0902 86.6572 16.6H84.6572C84.6572 17.4858 84.9095 18.297 85.4628 18.9656L87.0036 17.6904ZM86.6572 16.6V4H84.6572V16.6H86.6572ZM104.295 9.232L103.447 8.702L103.435 8.7216L103.424 8.74174L104.295 9.232ZM103.479 10.024L102.917 9.19707L102.886 9.21814L102.857 9.24146L103.479 10.024ZM100.191 12.64L100.773 13.4537L100.794 13.4387L100.814 13.4225L100.191 12.64ZM100.023 15.76H99.0234V16.76H100.023V15.76ZM104.223 15.76H105.223V14.76H104.223V15.76ZM104.223 19V20H105.223V19H104.223ZM96.5434 19H95.5434V20H96.5434V19ZM96.7834 11.32L95.8604 10.9354L95.8604 10.9354L96.7834 11.32ZM97.6714 10.336L98.2043 11.1822L98.2432 11.1577L98.2798 11.1297L97.6714 10.336ZM100.959 7.816L100.378 7.00227L100.364 7.01205L100.351 7.0223L100.959 7.816ZM101.151 7.624L100.319 7.0693L100.245 7.18073L100.203 7.30777L101.151 7.624ZM96.6154 4.84H95.6154V5.84H96.6154V4.84ZM96.6154 1.6V0.599999H95.6154V1.6H96.6154ZM103.935 2.152L103.244 2.87399L103.251 2.88103L103.258 2.88793L103.935 2.152ZM103.535 8.176C103.535 8.52151 103.471 8.66417 103.447 8.702L105.143 9.762C105.44 9.28783 105.535 8.72649 105.535 8.176H103.535ZM103.424 8.74174C103.389 8.80311 103.262 8.9624 102.917 9.19707L104.042 10.8509C104.497 10.5416 104.914 10.1729 105.167 9.72226L103.424 8.74174ZM102.857 9.24146L99.5688 11.8575L100.814 13.4225L104.102 10.8065L102.857 9.24146ZM99.6102 11.8263C99.1407 12.1616 99.0234 12.6703 99.0234 13.048H101.023C101.023 13.048 101.023 13.0605 101.02 13.0828C101.016 13.1053 101.008 13.1402 100.99 13.1827C100.952 13.276 100.88 13.377 100.773 13.4537L99.6102 11.8263ZM99.0234 13.048V15.76H101.023V13.048H99.0234ZM100.023 16.76H104.223V14.76H100.023V16.76ZM103.223 15.76V19H105.223V15.76H103.223ZM104.223 18H96.5434V20H104.223V18ZM97.5434 19V12.736H95.5434V19H97.5434ZM97.5434 12.736C97.5434 12.265 97.6116 11.9325 97.7065 11.7046L95.8604 10.9354C95.6353 11.4755 95.5434 12.087 95.5434 12.736H97.5434ZM97.7065 11.7046C97.7707 11.5507 97.9066 11.3696 98.2043 11.1822L97.1386 9.48977C96.5722 9.84638 96.1162 10.3213 95.8604 10.9354L97.7065 11.7046ZM98.2798 11.1297L101.568 8.6097L100.351 7.0223L97.0631 9.5423L98.2798 11.1297ZM101.541 8.62973C101.621 8.57238 101.713 8.50056 101.799 8.41511C101.867 8.34699 102.018 8.18586 102.1 7.94023L100.203 7.30777C100.239 7.1981 100.288 7.12179 100.317 7.08176C100.347 7.03951 100.373 7.01246 100.384 7.00089C100.406 6.97944 100.41 6.97962 100.378 7.00227L101.541 8.62973ZM101.983 8.1787C102.16 7.91423 102.199 7.63563 102.199 7.432H100.199C100.199 7.38837 100.207 7.23777 100.319 7.0693L101.983 8.1787ZM102.199 7.432V5.152H100.199V7.432H102.199ZM102.199 5.152C102.199 4.87407 102.121 4.48722 101.796 4.18521C101.485 3.89617 101.112 3.84 100.863 3.84V5.84C100.839 5.84 100.634 5.83583 100.435 5.65079C100.222 5.45277 100.199 5.22193 100.199 5.152H102.199ZM100.863 3.84H96.6154V5.84H100.863V3.84ZM97.6154 4.84V1.6H95.6154V4.84H97.6154ZM96.6154 2.6H102.495V0.599999H96.6154V2.6ZM102.495 2.6C102.837 2.6 103.062 2.69999 103.244 2.87399L104.627 1.43001C104.041 0.868006 103.306 0.599999 102.495 0.599999V2.6ZM103.258 2.88793C103.401 3.01886 103.535 3.24843 103.535 3.736H105.535C105.535 2.84757 105.27 2.02114 104.612 1.41607L103.258 2.88793ZM103.535 3.736V8.176H105.535V3.736H103.535ZM106.589 19H105.589V20H106.589V19ZM106.589 15.76V14.76H105.589V15.76H106.589ZM110.525 11.344V10.344L110.517 10.344L110.525 11.344ZM107.477 11.368L106.77 12.0751L107.066 12.3713L107.485 12.368L107.477 11.368ZM106.421 10.312H105.421V10.7262L105.714 11.0191L106.421 10.312ZM106.421 1.624V0.623999H105.421V1.624H106.421ZM113.909 1.624H114.909V0.623999H113.909V1.624ZM113.909 4.84V5.84H114.909V4.84H113.909ZM109.829 4.84V3.84H108.829V4.84H109.829ZM109.829 8.536H108.829V9.536H109.829V8.536ZM113.741 9.04L113.034 9.74711L113.051 9.76393L113.069 9.77994L113.741 9.04ZM113.669 18.424L114.362 19.1454L114.369 19.1383L114.376 19.1311L113.669 18.424ZM106.421 10.312L107.128 9.60489L105.499 10.6987L106.421 10.312ZM107.477 11.368L107.091 12.2902L108.184 10.6609L107.477 11.368ZM107.589 19V15.76H105.589V19H107.589ZM106.589 16.76H110.477V14.76H106.589V16.76ZM110.477 16.76C110.707 16.76 111.066 16.7092 111.369 16.4312C111.689 16.138 111.765 15.7616 111.765 15.496H109.765C109.765 15.4064 109.794 15.162 110.018 14.9568C110.225 14.7668 110.44 14.76 110.477 14.76V16.76ZM111.765 15.496V11.584H109.765V15.496H111.765ZM111.765 11.584C111.765 11.3499 111.706 10.9906 111.412 10.6969C111.119 10.4032 110.759 10.344 110.525 10.344V12.344C110.451 12.344 110.212 12.3248 109.998 12.1111C109.785 11.8974 109.765 11.6581 109.765 11.584H111.765ZM110.517 10.344L107.469 10.368L107.485 12.368L110.533 12.344L110.517 10.344ZM108.184 10.6609L107.128 9.60489L105.714 11.0191L106.77 12.0751L108.184 10.6609ZM107.421 10.312V1.624H105.421V10.312H107.421ZM106.421 2.624H113.909V0.623999H106.421V2.624ZM112.909 1.624V4.84H114.909V1.624H112.909ZM113.909 3.84H109.829V5.84H113.909V3.84ZM108.829 4.84V8.536H110.829V4.84H108.829ZM109.829 9.536H112.445V7.536H109.829V9.536ZM112.445 9.536C112.74 9.536 112.907 9.62031 113.034 9.74711L114.448 8.33289C113.903 7.78769 113.206 7.536 112.445 7.536V9.536ZM113.069 9.77994C113.218 9.91586 113.269 10.0417 113.269 10.216H115.269C115.269 9.46227 114.968 8.80414 114.414 8.30006L113.069 9.77994ZM113.269 10.216V16.384H115.269V10.216H113.269ZM113.269 16.384C113.269 17.2522 113.08 17.5991 112.962 17.7169L114.376 19.1311C115.059 18.4489 115.269 17.4358 115.269 16.384H113.269ZM112.977 17.7026C112.864 17.8111 112.501 18 111.581 18V20C112.646 20 113.675 19.8049 114.362 19.1454L112.977 17.7026ZM111.581 18H106.589V20H111.581V18ZM105.714 11.0191L106.77 12.0751L108.184 10.6609L107.128 9.60489L105.714 11.0191ZM107.864 10.4458C107.61 10.3392 107.45 10.1795 107.344 9.92527L105.499 10.6987C105.809 11.4365 106.353 11.9808 107.091 12.2902L107.864 10.4458Z" fill="#1B1B1B" mask="url(#path-1-outside-1_2900_92)"></path></svg> 
