<svg xmlns="http://www.w3.org/2000/svg" height="40" viewBox="0 0 273 22" fill="none"><mask id="path-1-outside-1_2900_96" maskUnits="userSpaceOnUse" x="0" y="0" width="273" height="22" fill="black"><rect fill="white" width="273" height="22"></rect><path d="M5.104 10.792V19H1.72V1.6H5.392L7.288 8.944L9.184 1.6H12.88V19H9.496V10.792L7.288 17.752L5.104 10.792ZM18.6254 4.648C18.4174 4.648 18.3134 4.76 18.3134 4.984V15.592C18.3134 15.72 18.3294 15.816 18.3614 15.88C18.4094 15.928 18.5054 15.952 18.6494 15.952H19.9694C20.1134 15.952 20.2014 15.928 20.2334 15.88C20.2814 15.816 20.3054 15.72 20.3054 15.592V4.984C20.3054 4.76 20.2014 4.648 19.9934 4.648H18.6254ZM23.8334 16.528C23.8334 16.864 23.7934 17.184 23.7134 17.488C23.6334 17.776 23.4974 18.032 23.3054 18.256C23.1134 18.48 22.8574 18.664 22.5374 18.808C22.2174 18.936 21.8174 19 21.3374 19H17.3054C16.8254 19 16.4254 18.936 16.1054 18.808C15.7854 18.664 15.5294 18.48 15.3374 18.256C15.1454 18.032 15.0094 17.776 14.9294 17.488C14.8494 17.184 14.8094 16.864 14.8094 16.528V3.856C14.8094 3.168 14.9934 2.624 15.3614 2.224C15.7454 1.808 16.3454 1.6 17.1614 1.6H21.4814C22.2974 1.6 22.8894 1.808 23.2574 2.224C23.6414 2.624 23.8334 3.168 23.8334 3.856V16.528ZM28.4545 19C27.4465 19 26.7425 18.792 26.3425 18.376C25.9425 17.96 25.7425 17.272 25.7425 16.312V3.736C25.7425 3.048 25.9345 2.52 26.3185 2.152C26.7185 1.784 27.2065 1.6 27.7825 1.6H32.9665V4.84H29.6305C29.4225 4.84 29.3185 4.952 29.3185 5.176V15.424C29.3185 15.648 29.4225 15.76 29.6305 15.76H32.9665V19H28.4545ZM38.1886 9.064H38.7166L40.4926 1.6H44.0926L42.0046 9.616L44.0686 19H40.2526L38.8846 11.824H38.1886V19H34.6366V1.6H38.1886V9.064ZM49.3388 4.648C49.1308 4.648 49.0268 4.76 49.0268 4.984V15.592C49.0268 15.72 49.0428 15.816 49.0748 15.88C49.1228 15.928 49.2188 15.952 49.3628 15.952H50.6828C50.8268 15.952 50.9148 15.928 50.9468 15.88C50.9948 15.816 51.0188 15.72 51.0188 15.592V4.984C51.0188 4.76 50.9148 4.648 50.7068 4.648H49.3388ZM54.5468 16.528C54.5468 16.864 54.5068 17.184 54.4268 17.488C54.3468 17.776 54.2108 18.032 54.0188 18.256C53.8268 18.48 53.5708 18.664 53.2508 18.808C52.9308 18.936 52.5308 19 52.0508 19H48.0188C47.5388 19 47.1388 18.936 46.8188 18.808C46.4988 18.664 46.2428 18.48 46.0508 18.256C45.8588 18.032 45.7228 17.776 45.6428 17.488C45.5628 17.184 45.5228 16.864 45.5228 16.528V3.856C45.5228 3.168 45.7068 2.624 46.0748 2.224C46.4588 1.808 47.0588 1.6 47.8748 1.6H52.1948C53.0108 1.6 53.6028 1.808 53.9708 2.224C54.3548 2.624 54.5468 3.168 54.5468 3.856V16.528ZM59.9119 4.648V9.208H61.5439C61.6719 9.208 61.7759 9.176 61.8559 9.112C61.9359 9.032 61.9759 8.912 61.9759 8.752V4.984C61.9759 4.76 61.8719 4.648 61.6639 4.648H59.9119ZM62.0239 12.352C62.0239 12.16 61.9759 12.032 61.8799 11.968C61.7839 11.888 61.6559 11.848 61.4959 11.848H59.9119V15.952H61.6639C61.8079 15.952 61.9039 15.928 61.9519 15.88C61.9999 15.816 62.0239 15.72 62.0239 15.592V12.352ZM65.3119 8.488C65.3119 8.92 65.2239 9.296 65.0479 9.616C64.8879 9.92 64.5759 10.136 64.1119 10.264C64.5919 10.296 64.9359 10.464 65.1439 10.768C65.3679 11.072 65.4799 11.416 65.4799 11.8V16.312C65.4799 17.272 65.2799 17.96 64.8799 18.376C64.4799 18.792 63.7759 19 62.7679 19H56.4559V1.6H63.2479C63.9359 1.6 64.4479 1.792 64.7839 2.176C65.1359 2.56 65.3119 3.072 65.3119 3.712V8.488ZM70.1011 19C69.0931 19 68.3891 18.792 67.9891 18.376C67.5891 17.96 67.3891 17.272 67.3891 16.312V3.736C67.3891 3.048 67.5811 2.52 67.9651 2.152C68.3651 1.784 68.8531 1.6 69.4291 1.6H74.6131V4.84H71.2771C71.0691 4.84 70.9651 4.952 70.9651 5.176V15.424C70.9651 15.648 71.0691 15.76 71.2771 15.76H74.6131V19H70.1011ZM79.8351 9.064H80.3631L82.1391 1.6H85.7391L83.6511 9.616L85.7151 19H81.8991L80.5311 11.824H79.8351V19H76.2831V1.6H79.8351V9.064ZM90.5054 16.84L90.1934 19H86.6894L89.8334 1.6H93.5534L96.6974 19H93.1934L92.8814 16.84H90.5054ZM90.8894 14.08H92.4974L91.7054 7.912L90.8894 14.08ZM98.2699 3.856C98.2699 3.168 98.4539 2.624 98.8219 2.224C99.2059 1.808 99.8059 1.6 100.622 1.6H107.222V19H103.742V13.456H103.286L101.606 19H98.0059L99.8299 13.456C99.3179 13.456 98.9259 13.296 98.6539 12.976C98.3979 12.656 98.2699 12.304 98.2699 11.92V3.856ZM102.038 4.648C101.814 4.648 101.702 4.768 101.702 5.008V10.288C101.702 10.528 101.814 10.648 102.038 10.648H103.742V4.648H102.038ZM116.449 4.648C116.241 4.648 116.137 4.76 116.137 4.984V15.592C116.137 15.72 116.153 15.816 116.185 15.88C116.233 15.928 116.329 15.952 116.473 15.952H117.793C117.937 15.952 118.025 15.928 118.057 15.88C118.105 15.816 118.129 15.72 118.129 15.592V4.984C118.129 4.76 118.025 4.648 117.817 4.648H116.449ZM121.657 16.528C121.657 16.864 121.617 17.184 121.537 17.488C121.457 17.776 121.321 18.032 121.129 18.256C120.937 18.48 120.681 18.664 120.361 18.808C120.041 18.936 119.641 19 119.161 19H115.129C114.649 19 114.249 18.936 113.929 18.808C113.609 18.664 113.353 18.48 113.161 18.256C112.969 18.032 112.833 17.776 112.753 17.488C112.673 17.184 112.633 16.864 112.633 16.528V3.856C112.633 3.168 112.817 2.624 113.185 2.224C113.569 1.808 114.169 1.6 114.985 1.6H119.305C120.121 1.6 120.713 1.808 121.081 2.224C121.465 2.624 121.657 3.168 121.657 3.856V16.528ZM123.566 1.6H131.654V4.84H127.142V9.208H130.238C130.718 9.208 131.118 9.272 131.438 9.4C131.758 9.512 132.014 9.672 132.206 9.88C132.398 10.088 132.526 10.336 132.59 10.624C132.67 10.896 132.71 11.2 132.71 11.536V16.528C132.71 17.36 132.502 17.984 132.086 18.4C131.67 18.8 130.974 19 129.998 19H123.566V1.6ZM128.942 15.952C129.15 15.952 129.254 15.84 129.254 15.616V12.208C129.254 12.08 129.23 11.992 129.182 11.944C129.15 11.88 129.062 11.848 128.918 11.848H127.142V15.952H128.942ZM140.712 4.84C140.472 4.84 140.28 4.872 140.136 4.936C139.992 4.984 139.88 5.08 139.8 5.224C139.72 5.368 139.656 5.56 139.608 5.8C139.56 6.04 139.504 6.352 139.44 6.736L138 16.768L137.688 19H134.16L136.392 4.864C136.456 4.48 136.528 4.096 136.608 3.712C136.704 3.328 136.848 2.984 137.04 2.68C137.248 2.36 137.536 2.104 137.904 1.912C138.272 1.704 138.776 1.6 139.416 1.6H144.216V19H140.688L140.712 4.84ZM149.471 16.84L149.159 19H145.655L148.799 1.6H152.519L155.663 19H152.159L151.847 16.84H149.471ZM149.855 14.08H151.463L150.671 7.912L149.855 14.08ZM159.804 19C158.796 19 158.092 18.792 157.692 18.376C157.292 17.96 157.092 17.272 157.092 16.312V3.736C157.092 3.048 157.284 2.52 157.668 2.152C158.068 1.784 158.556 1.6 159.132 1.6H164.316V4.84H160.98C160.772 4.84 160.668 4.952 160.668 5.176V15.424C160.668 15.648 160.772 15.76 160.98 15.76H164.316V19H159.804ZM173.714 1.6V4.84H171.386V19H167.834V4.84H165.506V1.6H173.714ZM175.161 19V1.6H178.617V9.04H181.593C182.073 9.04 182.473 9.104 182.793 9.232C183.113 9.344 183.369 9.504 183.561 9.712C183.753 9.92 183.881 10.168 183.945 10.456C184.025 10.728 184.065 11.032 184.065 11.368V16.888C184.065 17.528 183.889 18.04 183.537 18.424C183.201 18.808 182.689 19 182.001 19H175.161ZM180.369 15.952C180.577 15.952 180.681 15.84 180.681 15.616V12.4C180.681 12.272 180.657 12.184 180.609 12.136C180.577 12.072 180.489 12.04 180.345 12.04H178.617V15.952H180.369ZM185.86 17.392C185.86 16.88 186.044 16.44 186.412 16.072C186.78 15.704 187.22 15.52 187.732 15.52C188.244 15.52 188.684 15.704 189.052 16.072C189.42 16.44 189.604 16.88 189.604 17.392C189.604 17.664 189.548 17.96 189.436 18.28C189.324 18.584 189.172 18.88 188.98 19.168C188.804 19.472 188.604 19.752 188.38 20.008C188.172 20.28 187.964 20.512 187.756 20.704H186.508C186.668 20.464 186.812 20.216 186.94 19.96C187.084 19.704 187.196 19.44 187.276 19.168C186.796 19.088 186.436 18.872 186.196 18.52C185.972 18.168 185.86 17.792 185.86 17.392ZM204 19H200.448V12.04H198.552V19H195V1.6H198.552V9.04H200.448V1.6H204V19ZM209.461 9.064H209.989L211.765 1.6H215.365L213.277 9.616L215.341 19H211.525L210.157 11.824H209.461V19H205.909V1.6H209.461V9.064ZM225.796 19H222.244V4.6H220.348V19H216.796V1.6H225.796V19ZM234.641 4.648V11.488H236.369C236.513 11.488 236.601 11.464 236.633 11.416C236.681 11.352 236.705 11.256 236.705 11.128V4.984C236.705 4.76 236.601 4.648 236.393 4.648H234.641ZM238.025 1.6C238.713 1.6 239.225 1.792 239.561 2.176C239.913 2.56 240.089 3.072 240.089 3.712V12.04C240.089 12.376 240.049 12.688 239.969 12.976C239.905 13.248 239.777 13.488 239.585 13.696C239.393 13.904 239.137 14.072 238.817 14.2C238.497 14.312 238.097 14.368 237.617 14.368H234.641V19H231.185V1.6H238.025ZM247.403 19H243.683L244.787 14.584L241.451 1.6H245.051L246.611 9.808L248.195 1.6H251.795L247.403 19ZM255.951 19C254.943 19 254.239 18.792 253.839 18.376C253.439 17.96 253.239 17.272 253.239 16.312V3.736C253.239 3.048 253.431 2.52 253.815 2.152C254.215 1.784 254.703 1.6 255.279 1.6H260.463V4.84H257.127C256.919 4.84 256.815 4.952 256.815 5.176V15.424C256.815 15.648 256.919 15.76 257.127 15.76H260.463V19H255.951ZM262.133 19V1.6H265.589V9.04H268.565C269.045 9.04 269.445 9.104 269.765 9.232C270.085 9.344 270.341 9.504 270.533 9.712C270.725 9.92 270.853 10.168 270.917 10.456C270.997 10.728 271.037 11.032 271.037 11.368V16.888C271.037 17.528 270.861 18.04 270.509 18.424C270.173 18.808 269.661 19 268.973 19H262.133ZM267.341 15.952C267.549 15.952 267.653 15.84 267.653 15.616V12.4C267.653 12.272 267.629 12.184 267.581 12.136C267.549 12.072 267.461 12.04 267.317 12.04H265.589V15.952H267.341Z"></path></mask><path d="M5.104 10.792V19H1.72V1.6H5.392L7.288 8.944L9.184 1.6H12.88V19H9.496V10.792L7.288 17.752L5.104 10.792ZM18.6254 4.648C18.4174 4.648 18.3134 4.76 18.3134 4.984V15.592C18.3134 15.72 18.3294 15.816 18.3614 15.88C18.4094 15.928 18.5054 15.952 18.6494 15.952H19.9694C20.1134 15.952 20.2014 15.928 20.2334 15.88C20.2814 15.816 20.3054 15.72 20.3054 15.592V4.984C20.3054 4.76 20.2014 4.648 19.9934 4.648H18.6254ZM23.8334 16.528C23.8334 16.864 23.7934 17.184 23.7134 17.488C23.6334 17.776 23.4974 18.032 23.3054 18.256C23.1134 18.48 22.8574 18.664 22.5374 18.808C22.2174 18.936 21.8174 19 21.3374 19H17.3054C16.8254 19 16.4254 18.936 16.1054 18.808C15.7854 18.664 15.5294 18.48 15.3374 18.256C15.1454 18.032 15.0094 17.776 14.9294 17.488C14.8494 17.184 14.8094 16.864 14.8094 16.528V3.856C14.8094 3.168 14.9934 2.624 15.3614 2.224C15.7454 1.808 16.3454 1.6 17.1614 1.6H21.4814C22.2974 1.6 22.8894 1.808 23.2574 2.224C23.6414 2.624 23.8334 3.168 23.8334 3.856V16.528ZM28.4545 19C27.4465 19 26.7425 18.792 26.3425 18.376C25.9425 17.96 25.7425 17.272 25.7425 16.312V3.736C25.7425 3.048 25.9345 2.52 26.3185 2.152C26.7185 1.784 27.2065 1.6 27.7825 1.6H32.9665V4.84H29.6305C29.4225 4.84 29.3185 4.952 29.3185 5.176V15.424C29.3185 15.648 29.4225 15.76 29.6305 15.76H32.9665V19H28.4545ZM38.1886 9.064H38.7166L40.4926 1.6H44.0926L42.0046 9.616L44.0686 19H40.2526L38.8846 11.824H38.1886V19H34.6366V1.6H38.1886V9.064ZM49.3388 4.648C49.1308 4.648 49.0268 4.76 49.0268 4.984V15.592C49.0268 15.72 49.0428 15.816 49.0748 15.88C49.1228 15.928 49.2188 15.952 49.3628 15.952H50.6828C50.8268 15.952 50.9148 15.928 50.9468 15.88C50.9948 15.816 51.0188 15.72 51.0188 15.592V4.984C51.0188 4.76 50.9148 4.648 50.7068 4.648H49.3388ZM54.5468 16.528C54.5468 16.864 54.5068 17.184 54.4268 17.488C54.3468 17.776 54.2108 18.032 54.0188 18.256C53.8268 18.48 53.5708 18.664 53.2508 18.808C52.9308 18.936 52.5308 19 52.0508 19H48.0188C47.5388 19 47.1388 18.936 46.8188 18.808C46.4988 18.664 46.2428 18.48 46.0508 18.256C45.8588 18.032 45.7228 17.776 45.6428 17.488C45.5628 17.184 45.5228 16.864 45.5228 16.528V3.856C45.5228 3.168 45.7068 2.624 46.0748 2.224C46.4588 1.808 47.0588 1.6 47.8748 1.6H52.1948C53.0108 1.6 53.6028 1.808 53.9708 2.224C54.3548 2.624 54.5468 3.168 54.5468 3.856V16.528ZM59.9119 4.648V9.208H61.5439C61.6719 9.208 61.7759 9.176 61.8559 9.112C61.9359 9.032 61.9759 8.912 61.9759 8.752V4.984C61.9759 4.76 61.8719 4.648 61.6639 4.648H59.9119ZM62.0239 12.352C62.0239 12.16 61.9759 12.032 61.8799 11.968C61.7839 11.888 61.6559 11.848 61.4959 11.848H59.9119V15.952H61.6639C61.8079 15.952 61.9039 15.928 61.9519 15.88C61.9999 15.816 62.0239 15.72 62.0239 15.592V12.352ZM65.3119 8.488C65.3119 8.92 65.2239 9.296 65.0479 9.616C64.8879 9.92 64.5759 10.136 64.1119 10.264C64.5919 10.296 64.9359 10.464 65.1439 10.768C65.3679 11.072 65.4799 11.416 65.4799 11.8V16.312C65.4799 17.272 65.2799 17.96 64.8799 18.376C64.4799 18.792 63.7759 19 62.7679 19H56.4559V1.6H63.2479C63.9359 1.6 64.4479 1.792 64.7839 2.176C65.1359 2.56 65.3119 3.072 65.3119 3.712V8.488ZM70.1011 19C69.0931 19 68.3891 18.792 67.9891 18.376C67.5891 17.96 67.3891 17.272 67.3891 16.312V3.736C67.3891 3.048 67.5811 2.52 67.9651 2.152C68.3651 1.784 68.8531 1.6 69.4291 1.6H74.6131V4.84H71.2771C71.0691 4.84 70.9651 4.952 70.9651 5.176V15.424C70.9651 15.648 71.0691 15.76 71.2771 15.76H74.6131V19H70.1011ZM79.8351 9.064H80.3631L82.1391 1.6H85.7391L83.6511 9.616L85.7151 19H81.8991L80.5311 11.824H79.8351V19H76.2831V1.6H79.8351V9.064ZM90.5054 16.84L90.1934 19H86.6894L89.8334 1.6H93.5534L96.6974 19H93.1934L92.8814 16.84H90.5054ZM90.8894 14.08H92.4974L91.7054 7.912L90.8894 14.08ZM98.2699 3.856C98.2699 3.168 98.4539 2.624 98.8219 2.224C99.2059 1.808 99.8059 1.6 100.622 1.6H107.222V19H103.742V13.456H103.286L101.606 19H98.0059L99.8299 13.456C99.3179 13.456 98.9259 13.296 98.6539 12.976C98.3979 12.656 98.2699 12.304 98.2699 11.92V3.856ZM102.038 4.648C101.814 4.648 101.702 4.768 101.702 5.008V10.288C101.702 10.528 101.814 10.648 102.038 10.648H103.742V4.648H102.038ZM116.449 4.648C116.241 4.648 116.137 4.76 116.137 4.984V15.592C116.137 15.72 116.153 15.816 116.185 15.88C116.233 15.928 116.329 15.952 116.473 15.952H117.793C117.937 15.952 118.025 15.928 118.057 15.88C118.105 15.816 118.129 15.72 118.129 15.592V4.984C118.129 4.76 118.025 4.648 117.817 4.648H116.449ZM121.657 16.528C121.657 16.864 121.617 17.184 121.537 17.488C121.457 17.776 121.321 18.032 121.129 18.256C120.937 18.48 120.681 18.664 120.361 18.808C120.041 18.936 119.641 19 119.161 19H115.129C114.649 19 114.249 18.936 113.929 18.808C113.609 18.664 113.353 18.48 113.161 18.256C112.969 18.032 112.833 17.776 112.753 17.488C112.673 17.184 112.633 16.864 112.633 16.528V3.856C112.633 3.168 112.817 2.624 113.185 2.224C113.569 1.808 114.169 1.6 114.985 1.6H119.305C120.121 1.6 120.713 1.808 121.081 2.224C121.465 2.624 121.657 3.168 121.657 3.856V16.528ZM123.566 1.6H131.654V4.84H127.142V9.208H130.238C130.718 9.208 131.118 9.272 131.438 9.4C131.758 9.512 132.014 9.672 132.206 9.88C132.398 10.088 132.526 10.336 132.59 10.624C132.67 10.896 132.71 11.2 132.71 11.536V16.528C132.71 17.36 132.502 17.984 132.086 18.4C131.67 18.8 130.974 19 129.998 19H123.566V1.6ZM128.942 15.952C129.15 15.952 129.254 15.84 129.254 15.616V12.208C129.254 12.08 129.23 11.992 129.182 11.944C129.15 11.88 129.062 11.848 128.918 11.848H127.142V15.952H128.942ZM140.712 4.84C140.472 4.84 140.28 4.872 140.136 4.936C139.992 4.984 139.88 5.08 139.8 5.224C139.72 5.368 139.656 5.56 139.608 5.8C139.56 6.04 139.504 6.352 139.44 6.736L138 16.768L137.688 19H134.16L136.392 4.864C136.456 4.48 136.528 4.096 136.608 3.712C136.704 3.328 136.848 2.984 137.04 2.68C137.248 2.36 137.536 2.104 137.904 1.912C138.272 1.704 138.776 1.6 139.416 1.6H144.216V19H140.688L140.712 4.84ZM149.471 16.84L149.159 19H145.655L148.799 1.6H152.519L155.663 19H152.159L151.847 16.84H149.471ZM149.855 14.08H151.463L150.671 7.912L149.855 14.08ZM159.804 19C158.796 19 158.092 18.792 157.692 18.376C157.292 17.96 157.092 17.272 157.092 16.312V3.736C157.092 3.048 157.284 2.52 157.668 2.152C158.068 1.784 158.556 1.6 159.132 1.6H164.316V4.84H160.98C160.772 4.84 160.668 4.952 160.668 5.176V15.424C160.668 15.648 160.772 15.76 160.98 15.76H164.316V19H159.804ZM173.714 1.6V4.84H171.386V19H167.834V4.84H165.506V1.6H173.714ZM175.161 19V1.6H178.617V9.04H181.593C182.073 9.04 182.473 9.104 182.793 9.232C183.113 9.344 183.369 9.504 183.561 9.712C183.753 9.92 183.881 10.168 183.945 10.456C184.025 10.728 184.065 11.032 184.065 11.368V16.888C184.065 17.528 183.889 18.04 183.537 18.424C183.201 18.808 182.689 19 182.001 19H175.161ZM180.369 15.952C180.577 15.952 180.681 15.84 180.681 15.616V12.4C180.681 12.272 180.657 12.184 180.609 12.136C180.577 12.072 180.489 12.04 180.345 12.04H178.617V15.952H180.369ZM185.86 17.392C185.86 16.88 186.044 16.44 186.412 16.072C186.78 15.704 187.22 15.52 187.732 15.52C188.244 15.52 188.684 15.704 189.052 16.072C189.42 16.44 189.604 16.88 189.604 17.392C189.604 17.664 189.548 17.96 189.436 18.28C189.324 18.584 189.172 18.88 188.98 19.168C188.804 19.472 188.604 19.752 188.38 20.008C188.172 20.28 187.964 20.512 187.756 20.704H186.508C186.668 20.464 186.812 20.216 186.94 19.96C187.084 19.704 187.196 19.44 187.276 19.168C186.796 19.088 186.436 18.872 186.196 18.52C185.972 18.168 185.86 17.792 185.86 17.392ZM204 19H200.448V12.04H198.552V19H195V1.6H198.552V9.04H200.448V1.6H204V19ZM209.461 9.064H209.989L211.765 1.6H215.365L213.277 9.616L215.341 19H211.525L210.157 11.824H209.461V19H205.909V1.6H209.461V9.064ZM225.796 19H222.244V4.6H220.348V19H216.796V1.6H225.796V19ZM234.641 4.648V11.488H236.369C236.513 11.488 236.601 11.464 236.633 11.416C236.681 11.352 236.705 11.256 236.705 11.128V4.984C236.705 4.76 236.601 4.648 236.393 4.648H234.641ZM238.025 1.6C238.713 1.6 239.225 1.792 239.561 2.176C239.913 2.56 240.089 3.072 240.089 3.712V12.04C240.089 12.376 240.049 12.688 239.969 12.976C239.905 13.248 239.777 13.488 239.585 13.696C239.393 13.904 239.137 14.072 238.817 14.2C238.497 14.312 238.097 14.368 237.617 14.368H234.641V19H231.185V1.6H238.025ZM247.403 19H243.683L244.787 14.584L241.451 1.6H245.051L246.611 9.808L248.195 1.6H251.795L247.403 19ZM255.951 19C254.943 19 254.239 18.792 253.839 18.376C253.439 17.96 253.239 17.272 253.239 16.312V3.736C253.239 3.048 253.431 2.52 253.815 2.152C254.215 1.784 254.703 1.6 255.279 1.6H260.463V4.84H257.127C256.919 4.84 256.815 4.952 256.815 5.176V15.424C256.815 15.648 256.919 15.76 257.127 15.76H260.463V19H255.951ZM262.133 19V1.6H265.589V9.04H268.565C269.045 9.04 269.445 9.104 269.765 9.232C270.085 9.344 270.341 9.504 270.533 9.712C270.725 9.92 270.853 10.168 270.917 10.456C270.997 10.728 271.037 11.032 271.037 11.368V16.888C271.037 17.528 270.861 18.04 270.509 18.424C270.173 18.808 269.661 19 268.973 19H262.133ZM267.341 15.952C267.549 15.952 267.653 15.84 267.653 15.616V12.4C267.653 12.272 267.629 12.184 267.581 12.136C267.549 12.072 267.461 12.04 267.317 12.04H265.589V15.952H267.341Z" fill="white"></path><path d="M5.104 10.792L6.05813 10.4926L4.104 10.792H5.104ZM5.104 19V20H6.104V19H5.104ZM1.72 19H0.72V20H1.72V19ZM1.72 1.6V0.599999H0.72V1.6H1.72ZM5.392 1.6L6.36025 1.35003L6.16662 0.599999H5.392V1.6ZM7.288 8.944L6.31975 9.19397L8.25625 9.19397L7.288 8.944ZM9.184 1.6V0.599999H8.40938L8.21575 1.35003L9.184 1.6ZM12.88 1.6H13.88V0.599999H12.88V1.6ZM12.88 19V20H13.88V19H12.88ZM9.496 19H8.496V20H9.496V19ZM9.496 10.792H10.496L8.54282 10.4896L9.496 10.792ZM7.288 17.752L6.33387 18.0514L7.28279 21.0754L8.24119 18.0544L7.288 17.752ZM4.104 10.792V19H6.104V10.792H4.104ZM5.104 18H1.72V20H5.104V18ZM2.72 19V1.6H0.72V19H2.72ZM1.72 2.6H5.392V0.599999H1.72V2.6ZM4.42375 1.84997L6.31975 9.19397L8.25625 8.69403L6.36025 1.35003L4.42375 1.84997ZM8.25625 9.19397L10.1523 1.84997L8.21575 1.35003L6.31975 8.69403L8.25625 9.19397ZM9.184 2.6H12.88V0.599999H9.184V2.6ZM11.88 1.6V19H13.88V1.6H11.88ZM12.88 18H9.496V20H12.88V18ZM10.496 19V10.792H8.496V19H10.496ZM8.54282 10.4896L6.33482 17.4496L8.24119 18.0544L10.4492 11.0944L8.54282 10.4896ZM8.24213 17.4526L6.05813 10.4926L4.14987 11.0914L6.33387 18.0514L8.24213 17.4526ZM18.3614 15.88L17.4669 16.3272L17.5395 16.4724L17.6543 16.5871L18.3614 15.88ZM20.2334 15.88L19.4334 15.28L19.4167 15.3022L19.4013 15.3253L20.2334 15.88ZM23.7134 17.488L24.677 17.7557L24.6804 17.7425L23.7134 17.488ZM23.3054 18.256L22.5461 17.6052L22.5461 17.6052L23.3054 18.256ZM22.5374 18.808L22.9088 19.7365L22.9284 19.7286L22.9477 19.7199L22.5374 18.808ZM16.1054 18.808L15.695 19.7199L15.7143 19.7286L15.734 19.7365L16.1054 18.808ZM15.3374 18.256L14.5781 18.9068L14.5781 18.9068L15.3374 18.256ZM14.9294 17.488L13.9622 17.7425L13.9659 17.7556L14.9294 17.488ZM15.3614 2.224L14.6266 1.54572L14.6254 1.54694L15.3614 2.224ZM23.2574 2.224L22.5084 2.88657L22.5219 2.90183L22.536 2.91653L23.2574 2.224ZM18.6254 3.648C18.3474 3.648 17.9606 3.7263 17.6586 4.05155C17.3695 4.36282 17.3134 4.73551 17.3134 4.984H19.3134C19.3134 5.00849 19.3092 5.21318 19.1242 5.41245C18.9261 5.6257 18.6953 5.648 18.6254 5.648V3.648ZM17.3134 4.984V15.592H19.3134V4.984H17.3134ZM17.3134 15.592C17.3134 15.7711 17.3305 16.0543 17.4669 16.3272L19.2558 15.4328C19.2972 15.5155 19.3089 15.5781 19.3118 15.5956C19.3151 15.6158 19.3134 15.617 19.3134 15.592H17.3134ZM17.6543 16.5871C17.8521 16.785 18.0786 16.8671 18.2268 16.9041C18.3811 16.9427 18.5291 16.952 18.6494 16.952V14.952C18.6256 14.952 18.6536 14.9493 18.7119 14.9639C18.7642 14.9769 18.9186 15.023 19.0685 15.1729L17.6543 16.5871ZM18.6494 16.952H19.9694V14.952H18.6494V16.952ZM19.9694 16.952C20.0853 16.952 20.2421 16.9436 20.4065 16.8988C20.5551 16.8582 20.8566 16.7479 21.0654 16.4347L19.4013 15.3253C19.5781 15.0601 19.8197 14.9858 19.8803 14.9692C19.9566 14.9484 19.9974 14.952 19.9694 14.952V16.952ZM21.0334 16.48C21.2684 16.1666 21.3054 15.8162 21.3054 15.592H19.3054C19.3054 15.5968 19.3046 15.568 19.3172 15.5175C19.3301 15.4659 19.3609 15.3767 19.4334 15.28L21.0334 16.48ZM21.3054 15.592V4.984H19.3054V15.592H21.3054ZM21.3054 4.984C21.3054 4.73551 21.2492 4.36282 20.9602 4.05155C20.6581 3.7263 20.2713 3.648 19.9934 3.648V5.648C19.9234 5.648 19.6926 5.6257 19.4946 5.41245C19.3095 5.21318 19.3054 5.00849 19.3054 4.984H21.3054ZM19.9934 3.648H18.6254V5.648H19.9934V3.648ZM22.8334 16.528C22.8334 16.784 22.803 17.0181 22.7463 17.2335L24.6804 17.7425C24.7838 17.3499 24.8334 16.944 24.8334 16.528H22.8334ZM22.7499 17.2204C22.7085 17.3691 22.6415 17.4939 22.5461 17.6052L24.0646 18.9068C24.3532 18.5701 24.5582 18.1829 24.6769 17.7556L22.7499 17.2204ZM22.5461 17.6052C22.4662 17.6984 22.338 17.8011 22.127 17.8961L22.9477 19.7199C23.3767 19.5269 23.7605 19.2616 24.0646 18.9068L22.5461 17.6052ZM22.166 17.8795C22.0007 17.9457 21.7366 18 21.3374 18V20C21.8982 20 22.4341 19.9263 22.9088 19.7365L22.166 17.8795ZM21.3374 18H17.3054V20H21.3374V18ZM17.3054 18C16.9062 18 16.6421 17.9457 16.4768 17.8795L15.734 19.7365C16.2087 19.9263 16.7446 20 17.3054 20V18ZM16.5157 17.8961C16.3047 17.8011 16.1765 17.6984 16.0966 17.6052L14.5781 18.9068C14.8822 19.2616 15.266 19.5269 15.695 19.7199L16.5157 17.8961ZM16.0966 17.6052C16.0012 17.4939 15.9342 17.3691 15.8929 17.2204L13.9659 17.7556C14.0845 18.1829 14.2895 18.5701 14.5781 18.9068L16.0966 17.6052ZM15.8964 17.2335C15.8398 17.0181 15.8094 16.784 15.8094 16.528H13.8094C13.8094 16.944 13.859 17.3499 13.9623 17.7425L15.8964 17.2335ZM15.8094 16.528V3.856H13.8094V16.528H15.8094ZM15.8094 3.856C15.8094 3.34957 15.9408 3.07116 16.0973 2.90105L14.6254 1.54694C14.0459 2.17684 13.8094 2.98643 13.8094 3.856H15.8094ZM16.0962 2.90228C16.22 2.76814 16.4993 2.6 17.1614 2.6V0.599999C16.1915 0.599999 15.2707 0.847862 14.6266 1.54572L16.0962 2.90228ZM17.1614 2.6H21.4814V0.599999H17.1614V2.6ZM21.4814 2.6C22.1475 2.6 22.405 2.7697 22.5084 2.88657L24.0064 1.56142C23.3738 0.846297 22.4473 0.599999 21.4814 0.599999V2.6ZM22.536 2.91653C22.7005 3.08793 22.8334 3.36075 22.8334 3.856H24.8334C24.8334 2.97525 24.5822 2.16007 23.9788 1.53147L22.536 2.91653ZM22.8334 3.856V16.528H24.8334V3.856H22.8334ZM26.3185 2.152L25.6414 1.41607L25.6339 1.42296L25.6266 1.43001L26.3185 2.152ZM32.9665 1.6H33.9665V0.599999H32.9665V1.6ZM32.9665 4.84V5.84H33.9665V4.84H32.9665ZM32.9665 15.76H33.9665V14.76H32.9665V15.76ZM32.9665 19V20H33.9665V19H32.9665ZM28.4545 18C27.5293 18 27.175 17.799 27.0633 17.6829L25.6217 19.0691C26.31 19.785 27.3637 20 28.4545 20V18ZM27.0633 17.6829C26.9296 17.5438 26.7425 17.1749 26.7425 16.312H24.7425C24.7425 17.3691 24.9554 18.3762 25.6217 19.0691L27.0633 17.6829ZM26.7425 16.312V3.736H24.7425V16.312H26.7425ZM26.7425 3.736C26.7425 3.23648 26.8766 3.00217 27.0104 2.87399L25.6266 1.43001C24.9924 2.03783 24.7425 2.85952 24.7425 3.736H26.7425ZM26.9956 2.88793C27.1992 2.70055 27.4409 2.6 27.7825 2.6V0.599999C26.9721 0.599999 26.2378 0.86745 25.6414 1.41607L26.9956 2.88793ZM27.7825 2.6H32.9665V0.599999H27.7825V2.6ZM31.9665 1.6V4.84H33.9665V1.6H31.9665ZM32.9665 3.84H29.6305V5.84H32.9665V3.84ZM29.6305 3.84C29.3526 3.84 28.9657 3.9183 28.6637 4.24355C28.3747 4.55482 28.3185 4.92751 28.3185 5.176H30.3185C30.3185 5.20049 30.3143 5.40518 30.1293 5.60445C29.9313 5.8177 29.7004 5.84 29.6305 5.84V3.84ZM28.3185 5.176V15.424H30.3185V5.176H28.3185ZM28.3185 15.424C28.3185 15.6725 28.3747 16.0452 28.6637 16.3565C28.9657 16.6817 29.3526 16.76 29.6305 16.76V14.76C29.7004 14.76 29.9313 14.7823 30.1293 14.9955C30.3143 15.1948 30.3185 15.3995 30.3185 15.424H28.3185ZM29.6305 16.76H32.9665V14.76H29.6305V16.76ZM31.9665 15.76V19H33.9665V15.76H31.9665ZM32.9665 18H28.4545V20H32.9665V18ZM38.1886 9.064H37.1886V10.064H38.1886V9.064ZM38.7166 9.064V10.064H39.5065L39.6894 9.29548L38.7166 9.064ZM40.4926 1.6V0.599999H39.7026L39.5197 1.36852L40.4926 1.6ZM44.0926 1.6L45.0603 1.85207L45.3864 0.599999H44.0926V1.6ZM42.0046 9.616L41.0369 9.36393L40.9763 9.5963L41.0279 9.83081L42.0046 9.616ZM44.0686 19V20H45.3124L45.0452 18.7852L44.0686 19ZM40.2526 19L39.2703 19.1873L39.4252 20H40.2526V19ZM38.8846 11.824L39.8669 11.6367L39.7119 10.824H38.8846V11.824ZM38.1886 11.824V10.824H37.1886V11.824H38.1886ZM38.1886 19V20H39.1886V19H38.1886ZM34.6366 19H33.6366V20H34.6366V19ZM34.6366 1.6V0.599999H33.6366V1.6H34.6366ZM38.1886 1.6H39.1886V0.599999H38.1886V1.6ZM38.1886 10.064H38.7166V8.064H38.1886V10.064ZM39.6894 9.29548L41.4654 1.83148L39.5197 1.36852L37.7437 8.83252L39.6894 9.29548ZM40.4926 2.6H44.0926V0.599999H40.4926V2.6ZM43.1249 1.34793L41.0369 9.36393L42.9723 9.86807L45.0603 1.85207L43.1249 1.34793ZM41.0279 9.83081L43.0919 19.2148L45.0452 18.7852L42.9812 9.40119L41.0279 9.83081ZM44.0686 18H40.2526V20H44.0686V18ZM41.2349 18.8127L39.8669 11.6367L37.9023 12.0113L39.2703 19.1873L41.2349 18.8127ZM38.8846 10.824H38.1886V12.824H38.8846V10.824ZM37.1886 11.824V19H39.1886V11.824H37.1886ZM38.1886 18H34.6366V20H38.1886V18ZM35.6366 19V1.6H33.6366V19H35.6366ZM34.6366 2.6H38.1886V0.599999H34.6366V2.6ZM37.1886 1.6V9.064H39.1886V1.6H37.1886ZM49.0748 15.88L48.1804 16.3272L48.253 16.4724L48.3677 16.5871L49.0748 15.88ZM50.9468 15.88L50.1468 15.28L50.1302 15.3022L50.1148 15.3253L50.9468 15.88ZM54.4268 17.488L55.3904 17.7557L55.3939 17.7425L54.4268 17.488ZM54.0188 18.256L53.2596 17.6052L53.2596 17.6052L54.0188 18.256ZM53.2508 18.808L53.6222 19.7365L53.6419 19.7286L53.6612 19.7199L53.2508 18.808ZM46.8188 18.808L46.4084 19.7199L46.4278 19.7286L46.4474 19.7365L46.8188 18.808ZM46.0508 18.256L45.2916 18.9068L45.2916 18.9068L46.0508 18.256ZM45.6428 17.488L44.6756 17.7425L44.6793 17.7556L45.6428 17.488ZM46.0748 2.224L45.34 1.54572L45.3389 1.54694L46.0748 2.224ZM53.9708 2.224L53.2218 2.88657L53.2353 2.90183L53.2494 2.91653L53.9708 2.224ZM49.3388 3.648C49.0609 3.648 48.674 3.7263 48.372 4.05155C48.083 4.36282 48.0268 4.73551 48.0268 4.984H50.0268C50.0268 5.00849 50.0226 5.21318 49.8376 5.41245C49.6396 5.6257 49.4087 5.648 49.3388 5.648V3.648ZM48.0268 4.984V15.592H50.0268V4.984H48.0268ZM48.0268 15.592C48.0268 15.7711 48.0439 16.0543 48.1804 16.3272L49.9692 15.4328C50.0106 15.5155 50.0223 15.5781 50.0252 15.5956C50.0286 15.6158 50.0268 15.617 50.0268 15.592H48.0268ZM48.3677 16.5871C48.5656 16.785 48.792 16.8671 48.9403 16.9041C49.0946 16.9427 49.2425 16.952 49.3628 16.952V14.952C49.3391 14.952 49.367 14.9493 49.4253 14.9639C49.4776 14.9769 49.632 15.023 49.7819 15.1729L48.3677 16.5871ZM49.3628 16.952H50.6828V14.952H49.3628V16.952ZM50.6828 16.952C50.7987 16.952 50.9556 16.9436 51.1199 16.8988C51.2685 16.8582 51.5701 16.7479 51.7789 16.4347L50.1148 15.3253C50.2916 15.0601 50.5331 14.9858 50.5937 14.9692C50.6701 14.9484 50.7109 14.952 50.6828 14.952V16.952ZM51.7468 16.48C51.9819 16.1666 52.0188 15.8162 52.0188 15.592H50.0188C50.0188 15.5968 50.018 15.568 50.0307 15.5175C50.0436 15.4659 50.0743 15.3767 50.1468 15.28L51.7468 16.48ZM52.0188 15.592V4.984H50.0188V15.592H52.0188ZM52.0188 4.984C52.0188 4.73551 51.9626 4.36282 51.6736 4.05155C51.3716 3.7263 50.9847 3.648 50.7068 3.648V5.648C50.6369 5.648 50.406 5.6257 50.208 5.41245C50.023 5.21318 50.0188 5.00849 50.0188 4.984H52.0188ZM50.7068 3.648H49.3388V5.648H50.7068V3.648ZM53.5468 16.528C53.5468 16.784 53.5164 17.0181 53.4597 17.2335L55.3939 17.7425C55.4972 17.3499 55.5468 16.944 55.5468 16.528H53.5468ZM53.4633 17.2204C53.422 17.3691 53.3549 17.4939 53.2596 17.6052L54.7781 18.9068C55.0667 18.5701 55.2717 18.1829 55.3903 17.7556L53.4633 17.2204ZM53.2596 17.6052C53.1797 17.6984 53.0515 17.8011 52.8404 17.8961L53.6612 19.7199C54.0902 19.5269 54.474 19.2616 54.7781 18.9068L53.2596 17.6052ZM52.8794 17.8795C52.7141 17.9457 52.45 18 52.0508 18V20C52.6116 20 53.1475 19.9263 53.6222 19.7365L52.8794 17.8795ZM52.0508 18H48.0188V20H52.0508V18ZM48.0188 18C47.6196 18 47.3555 17.9457 47.1902 17.8795L46.4474 19.7365C46.9221 19.9263 47.458 20 48.0188 20V18ZM47.2292 17.8961C47.0182 17.8011 46.89 17.6984 46.8101 17.6052L45.2916 18.9068C45.5957 19.2616 45.9795 19.5269 46.4084 19.7199L47.2292 17.8961ZM46.8101 17.6052C46.7147 17.4939 46.6477 17.3691 46.6063 17.2204L44.6793 17.7556C44.798 18.1829 45.0029 18.5701 45.2916 18.9068L46.8101 17.6052ZM46.6099 17.2335C46.5532 17.0181 46.5228 16.784 46.5228 16.528H44.5228C44.5228 16.944 44.5724 17.3499 44.6757 17.7425L46.6099 17.2335ZM46.5228 16.528V3.856H44.5228V16.528H46.5228ZM46.5228 3.856C46.5228 3.34957 46.6542 3.07116 46.8107 2.90105L45.3389 1.54694C44.7594 2.17684 44.5228 2.98643 44.5228 3.856H46.5228ZM46.8096 2.90228C46.9334 2.76814 47.2127 2.6 47.8748 2.6V0.599999C46.9049 0.599999 45.9842 0.847862 45.34 1.54572L46.8096 2.90228ZM47.8748 2.6H52.1948V0.599999H47.8748V2.6ZM52.1948 2.6C52.8609 2.6 53.1184 2.7697 53.2218 2.88657L54.7198 1.56142C54.0872 0.846297 53.1607 0.599999 52.1948 0.599999V2.6ZM53.2494 2.91653C53.414 3.08793 53.5468 3.36075 53.5468 3.856H55.5468C55.5468 2.97525 55.2957 2.16007 54.6922 1.53147L53.2494 2.91653ZM53.5468 3.856V16.528H55.5468V3.856H53.5468ZM59.9119 4.648V3.648H58.9119V4.648H59.9119ZM59.9119 9.208H58.9119V10.208H59.9119V9.208ZM61.8559 9.112L62.4806 9.89287L62.5239 9.85827L62.563 9.81911L61.8559 9.112ZM61.8799 11.968L61.2398 12.7362L61.2808 12.7704L61.3252 12.8L61.8799 11.968ZM59.9119 11.848V10.848H58.9119V11.848H59.9119ZM59.9119 15.952H58.9119V16.952H59.9119V15.952ZM61.9519 15.88L62.659 16.5871L62.7093 16.5369L62.7519 16.48L61.9519 15.88ZM65.0479 9.616L64.1717 9.13408L64.1673 9.14213L64.163 9.15025L65.0479 9.616ZM64.1119 10.264L63.846 9.30001L64.0454 11.2618L64.1119 10.264ZM65.1439 10.768L64.3186 11.3327L64.3285 11.3471L64.3389 11.3612L65.1439 10.768ZM56.4559 19H55.4559V20H56.4559V19ZM56.4559 1.6V0.599999H55.4559V1.6H56.4559ZM64.7839 2.176L64.0314 2.8345L64.039 2.8432L64.0468 2.85172L64.7839 2.176ZM58.9119 4.648V9.208H60.9119V4.648H58.9119ZM59.9119 10.208H61.5439V8.208H59.9119V10.208ZM61.5439 10.208C61.8411 10.208 62.1828 10.1311 62.4806 9.89287L61.2312 8.33113C61.3691 8.22088 61.5028 8.208 61.5439 8.208V10.208ZM62.563 9.81911C62.8967 9.48543 62.9759 9.06614 62.9759 8.752H60.9759C60.9759 8.75165 60.9756 8.71063 60.9973 8.64577C61.0205 8.57607 61.0667 8.48706 61.1488 8.40489L62.563 9.81911ZM62.9759 8.752V4.984H60.9759V8.752H62.9759ZM62.9759 4.984C62.9759 4.73551 62.9198 4.36282 62.6307 4.05155C62.3287 3.7263 61.9419 3.648 61.6639 3.648V5.648C61.594 5.648 61.3632 5.6257 61.1651 5.41245C60.9801 5.21318 60.9759 5.00849 60.9759 4.984H62.9759ZM61.6639 3.648H59.9119V5.648H61.6639V3.648ZM63.0239 12.352C63.0239 12.0504 62.9546 11.4826 62.4346 11.1359L61.3252 12.8C61.1683 12.6954 61.0873 12.5582 61.0516 12.4631C61.0202 12.3794 61.0239 12.3311 61.0239 12.352H63.0239ZM62.5201 11.1998C62.1989 10.9321 61.8229 10.848 61.4959 10.848V12.848C61.4889 12.848 61.3689 12.8439 61.2398 12.7362L62.5201 11.1998ZM61.4959 10.848H59.9119V12.848H61.4959V10.848ZM58.9119 11.848V15.952H60.9119V11.848H58.9119ZM59.9119 16.952H61.6639V14.952H59.9119V16.952ZM61.6639 16.952C61.7842 16.952 61.9322 16.9427 62.0865 16.9041C62.2347 16.8671 62.4612 16.785 62.659 16.5871L61.2448 15.1729C61.3947 15.023 61.5492 14.9769 61.6014 14.9639C61.6597 14.9493 61.6877 14.952 61.6639 14.952V16.952ZM62.7519 16.48C62.987 16.1666 63.0239 15.8162 63.0239 15.592H61.0239C61.0239 15.5968 61.0232 15.568 61.0358 15.5175C61.0487 15.4659 61.0794 15.3767 61.1519 15.28L62.7519 16.48ZM63.0239 15.592V12.352H61.0239V15.592H63.0239ZM64.3119 8.488C64.3119 8.78236 64.2528 8.98659 64.1717 9.13408L65.9242 10.0979C66.195 9.60541 66.3119 9.05764 66.3119 8.488H64.3119ZM64.163 9.15025C64.1629 9.15047 64.1628 9.15073 64.1624 9.15124C64.162 9.15177 64.161 9.15314 64.159 9.15539C64.1551 9.15968 64.1451 9.16969 64.1247 9.18381C64.0822 9.21328 63.9974 9.25824 63.846 9.30001L64.3779 11.228C64.9987 11.0567 65.5995 10.7152 65.9329 10.0817L64.163 9.15025ZM64.0454 11.2618C64.188 11.2713 64.2613 11.298 64.2911 11.3126C64.3139 11.3237 64.3163 11.3293 64.3186 11.3327L65.9692 10.2033C65.5378 9.57279 64.863 9.31185 64.1785 9.26621L64.0454 11.2618ZM64.3389 11.3612C64.434 11.4902 64.4799 11.6256 64.4799 11.8H66.4799C66.4799 11.2064 66.3019 10.6538 65.949 10.1748L64.3389 11.3612ZM64.4799 11.8V16.312H66.4799V11.8H64.4799ZM64.4799 16.312C64.4799 17.1749 64.2929 17.5438 64.1591 17.6829L65.6008 19.0691C66.267 18.3762 66.4799 17.3691 66.4799 16.312H64.4799ZM64.1591 17.6829C64.0475 17.799 63.6931 18 62.7679 18V20C63.8588 20 64.9124 19.785 65.6008 19.0691L64.1591 17.6829ZM62.7679 18H56.4559V20H62.7679V18ZM57.4559 19V1.6H55.4559V19H57.4559ZM56.4559 2.6H63.2479V0.599999H56.4559V2.6ZM63.2479 2.6C63.7532 2.6 63.9452 2.73604 64.0314 2.8345L65.5365 1.51749C64.9507 0.847956 64.1187 0.599999 63.2479 0.599999V2.6ZM64.0468 2.85172C64.1932 3.01141 64.3119 3.26223 64.3119 3.712H66.3119C66.3119 2.88177 66.0787 2.10859 65.5211 1.50027L64.0468 2.85172ZM64.3119 3.712V8.488H66.3119V3.712H64.3119ZM67.9651 2.152L67.288 1.41607L67.2805 1.42296L67.2732 1.43001L67.9651 2.152ZM74.6131 1.6H75.6131V0.599999H74.6131V1.6ZM74.6131 4.84V5.84H75.6131V4.84H74.6131ZM74.6131 15.76H75.6131V14.76H74.6131V15.76ZM74.6131 19V20H75.6131V19H74.6131ZM70.1011 18C69.1759 18 68.8215 17.799 68.7099 17.6829L67.2682 19.0691C67.9566 19.785 69.0102 20 70.1011 20V18ZM68.7099 17.6829C68.5761 17.5438 68.3891 17.1749 68.3891 16.312H66.3891C66.3891 17.3691 66.602 18.3762 67.2682 19.0691L68.7099 17.6829ZM68.3891 16.312V3.736H66.3891V16.312H68.3891ZM68.3891 3.736C68.3891 3.23648 68.5232 3.00217 68.657 2.87399L67.2732 1.43001C66.6389 2.03783 66.3891 2.85952 66.3891 3.736H68.3891ZM68.6421 2.88793C68.8458 2.70055 69.0875 2.6 69.4291 2.6V0.599999C68.6187 0.599999 67.8843 0.86745 67.288 1.41607L68.6421 2.88793ZM69.4291 2.6H74.6131V0.599999H69.4291V2.6ZM73.6131 1.6V4.84H75.6131V1.6H73.6131ZM74.6131 3.84H71.2771V5.84H74.6131V3.84ZM71.2771 3.84C70.9991 3.84 70.6123 3.9183 70.3103 4.24355C70.0212 4.55482 69.9651 4.92751 69.9651 5.176H71.9651C71.9651 5.20049 71.9609 5.40518 71.7759 5.60445C71.5778 5.8177 71.347 5.84 71.2771 5.84V3.84ZM69.9651 5.176V15.424H71.9651V5.176H69.9651ZM69.9651 15.424C69.9651 15.6725 70.0212 16.0452 70.3103 16.3565C70.6123 16.6817 70.9991 16.76 71.2771 16.76V14.76C71.347 14.76 71.5778 14.7823 71.7759 14.9955C71.9609 15.1948 71.9651 15.3995 71.9651 15.424H69.9651ZM71.2771 16.76H74.6131V14.76H71.2771V16.76ZM73.6131 15.76V19H75.6131V15.76H73.6131ZM74.6131 18H70.1011V20H74.6131V18ZM79.8351 9.064H78.8351V10.064H79.8351V9.064ZM80.3631 9.064V10.064H81.1531L81.336 9.29548L80.3631 9.064ZM82.1391 1.6V0.599999H81.3491L81.1663 1.36852L82.1391 1.6ZM85.7391 1.6L86.7068 1.85207L87.033 0.599999H85.7391V1.6ZM83.6511 9.616L82.6834 9.36393L82.6229 9.5963L82.6745 9.83081L83.6511 9.616ZM85.7151 19V20H86.959L86.6918 18.7852L85.7151 19ZM81.8991 19L80.9168 19.1873L81.0718 20H81.8991V19ZM80.5311 11.824L81.5134 11.6367L81.3585 10.824H80.5311V11.824ZM79.8351 11.824V10.824H78.8351V11.824H79.8351ZM79.8351 19V20H80.8351V19H79.8351ZM76.2831 19H75.2831V20H76.2831V19ZM76.2831 1.6V0.599999H75.2831V1.6H76.2831ZM79.8351 1.6H80.8351V0.599999H79.8351V1.6ZM79.8351 10.064H80.3631V8.064H79.8351V10.064ZM81.336 9.29548L83.112 1.83148L81.1663 1.36852L79.3903 8.83252L81.336 9.29548ZM82.1391 2.6H85.7391V0.599999H82.1391V2.6ZM84.7714 1.34793L82.6834 9.36393L84.6188 9.86807L86.7068 1.85207L84.7714 1.34793ZM82.6745 9.83081L84.7385 19.2148L86.6918 18.7852L84.6278 9.40119L82.6745 9.83081ZM85.7151 18H81.8991V20H85.7151V18ZM82.8814 18.8127L81.5134 11.6367L79.5488 12.0113L80.9168 19.1873L82.8814 18.8127ZM80.5311 10.824H79.8351V12.824H80.5311V10.824ZM78.8351 11.824V19H80.8351V11.824H78.8351ZM79.8351 18H76.2831V20H79.8351V18ZM77.2831 19V1.6H75.2831V19H77.2831ZM76.2831 2.6H79.8351V0.599999H76.2831V2.6ZM78.8351 1.6V9.064H80.8351V1.6H78.8351ZM90.5054 16.84V15.84H89.6394L89.5156 16.697L90.5054 16.84ZM90.1934 19V20H91.0593L91.1831 19.143L90.1934 19ZM86.6894 19L85.7053 18.8222L85.4925 20H86.6894V19ZM89.8334 1.6V0.599999H88.9979L88.8493 1.42219L89.8334 1.6ZM93.5534 1.6L94.5374 1.42219L94.3889 0.599999H93.5534V1.6ZM96.6974 19V20H97.8943L97.6814 18.8222L96.6974 19ZM93.1934 19L92.2036 19.143L92.3274 20H93.1934V19ZM92.8814 16.84L93.8711 16.697L93.7473 15.84H92.8814V16.84ZM90.8894 14.08L89.898 13.9488L89.7484 15.08H90.8894V14.08ZM92.4974 14.08V15.08H93.634L93.4892 13.9526L92.4974 14.08ZM91.7054 7.912L92.6972 7.78464L90.714 7.78085L91.7054 7.912ZM89.5156 16.697L89.2036 18.857L91.1831 19.143L91.4951 16.983L89.5156 16.697ZM90.1934 18H86.6894V20H90.1934V18ZM87.6734 19.1778L90.8174 1.77781L88.8493 1.42219L85.7053 18.8222L87.6734 19.1778ZM89.8334 2.6H93.5534V0.599999H89.8334V2.6ZM92.5693 1.77781L95.7133 19.1778L97.6814 18.8222L94.5374 1.42219L92.5693 1.77781ZM96.6974 18H93.1934V20H96.6974V18ZM94.1831 18.857L93.8711 16.697L91.8916 16.983L92.2036 19.143L94.1831 18.857ZM92.8814 15.84H90.5054V17.84H92.8814V15.84ZM90.8894 15.08H92.4974V13.08H90.8894V15.08ZM93.4892 13.9526L92.6972 7.78464L90.7135 8.03936L91.5055 14.2074L93.4892 13.9526ZM90.714 7.78085L89.898 13.9488L91.8807 14.2112L92.6967 8.04315L90.714 7.78085ZM98.8219 2.224L98.0871 1.54572L98.086 1.54694L98.8219 2.224ZM107.222 1.6H108.222V0.599999H107.222V1.6ZM107.222 19V20H108.222V19H107.222ZM103.742 19H102.742V20H103.742V19ZM103.742 13.456H104.742V12.456H103.742V13.456ZM103.286 13.456V12.456H102.544L102.329 13.166L103.286 13.456ZM101.606 19V20H102.348L102.563 19.29L101.606 19ZM98.0059 19L97.056 18.6875L96.6242 20H98.0059V19ZM99.8299 13.456L100.78 13.7685L101.212 12.456H99.8299V13.456ZM98.6539 12.976L97.8731 13.6007L97.8824 13.6123L97.892 13.6236L98.6539 12.976ZM103.742 10.648V11.648H104.742V10.648H103.742ZM103.742 4.648H104.742V3.648H103.742V4.648ZM99.2699 3.856C99.2699 3.34957 99.4014 3.07116 99.5579 2.90105L98.086 1.54694C97.5065 2.17684 97.2699 2.98643 97.2699 3.856H99.2699ZM99.5567 2.90228C99.6806 2.76814 99.9598 2.6 100.622 2.6V0.599999C99.6521 0.599999 98.7313 0.847862 98.0871 1.54572L99.5567 2.90228ZM100.622 2.6H107.222V0.599999H100.622V2.6ZM106.222 1.6V19H108.222V1.6H106.222ZM107.222 18H103.742V20H107.222V18ZM104.742 19V13.456H102.742V19H104.742ZM103.742 12.456H103.286V14.456H103.742V12.456ZM102.329 13.166L100.649 18.71L102.563 19.29L104.243 13.746L102.329 13.166ZM101.606 18H98.0059V20H101.606V18ZM98.9558 19.3125L100.78 13.7685L98.88 13.1435L97.056 18.6875L98.9558 19.3125ZM99.8299 12.456C99.541 12.456 99.4566 12.3763 99.4159 12.3284L97.892 13.6236C98.3953 14.2157 99.0949 14.456 99.8299 14.456V12.456ZM99.4348 12.3513C99.3104 12.1958 99.2699 12.0611 99.2699 11.92H97.2699C97.2699 12.5469 97.4854 13.1162 97.8731 13.6007L99.4348 12.3513ZM99.2699 11.92V3.856H97.2699V11.92H99.2699ZM102.038 3.648C101.753 3.648 101.361 3.72746 101.055 4.05568C100.761 4.37091 100.702 4.75035 100.702 5.008H102.702C102.702 5.02564 102.699 5.22509 102.517 5.42032C102.323 5.62854 102.098 5.648 102.038 5.648V3.648ZM100.702 5.008V10.288H102.702V5.008H100.702ZM100.702 10.288C100.702 10.5456 100.761 10.9251 101.055 11.2403C101.361 11.5685 101.753 11.648 102.038 11.648V9.648C102.098 9.648 102.323 9.66746 102.517 9.87568C102.699 10.0709 102.702 10.2704 102.702 10.288H100.702ZM102.038 11.648H103.742V9.648H102.038V11.648ZM104.742 10.648V4.648H102.742V10.648H104.742ZM103.742 3.648H102.038V5.648H103.742V3.648ZM116.185 15.88L115.29 16.3272L115.363 16.4724L115.478 16.5871L116.185 15.88ZM118.057 15.88L117.257 15.28L117.24 15.3022L117.225 15.3253L118.057 15.88ZM121.537 17.488L122.5 17.7557L122.504 17.7425L121.537 17.488ZM121.129 18.256L120.37 17.6052L120.37 17.6052L121.129 18.256ZM120.361 18.808L120.732 19.7365L120.752 19.7286L120.771 19.7199L120.361 18.808ZM113.929 18.808L113.518 19.7199L113.538 19.7286L113.557 19.7365L113.929 18.808ZM113.161 18.256L112.402 18.9068L112.402 18.9068L113.161 18.256ZM112.753 17.488L111.786 17.7425L111.789 17.7556L112.753 17.488ZM113.185 2.224L112.45 1.54572L112.449 1.54694L113.185 2.224ZM121.081 2.224L120.332 2.88657L120.345 2.90183L120.359 2.91653L121.081 2.224ZM116.449 3.648C116.171 3.648 115.784 3.7263 115.482 4.05155C115.193 4.36282 115.137 4.73551 115.137 4.984H117.137C117.137 5.00849 117.133 5.21318 116.948 5.41245C116.75 5.6257 116.519 5.648 116.449 5.648V3.648ZM115.137 4.984V15.592H117.137V4.984H115.137ZM115.137 15.592C115.137 15.7711 115.154 16.0543 115.29 16.3272L117.079 15.4328C117.121 15.5155 117.132 15.5781 117.135 15.5956C117.139 15.6158 117.137 15.617 117.137 15.592H115.137ZM115.478 16.5871C115.676 16.785 115.902 16.8671 116.05 16.9041C116.205 16.9427 116.353 16.952 116.473 16.952V14.952C116.449 14.952 116.477 14.9493 116.535 14.9639C116.588 14.9769 116.742 15.023 116.892 15.1729L115.478 16.5871ZM116.473 16.952H117.793V14.952H116.473V16.952ZM117.793 16.952C117.909 16.952 118.066 16.9436 118.23 16.8988C118.379 16.8582 118.68 16.7479 118.889 16.4347L117.225 15.3253C117.402 15.0601 117.643 14.9858 117.704 14.9692C117.78 14.9484 117.821 14.952 117.793 14.952V16.952ZM118.857 16.48C119.092 16.1666 119.129 15.8162 119.129 15.592H117.129C117.129 15.5968 117.128 15.568 117.141 15.5175C117.154 15.4659 117.184 15.3767 117.257 15.28L118.857 16.48ZM119.129 15.592V4.984H117.129V15.592H119.129ZM119.129 4.984C119.129 4.73551 119.073 4.36282 118.784 4.05155C118.482 3.7263 118.095 3.648 117.817 3.648V5.648C117.747 5.648 117.516 5.6257 117.318 5.41245C117.133 5.21318 117.129 5.00849 117.129 4.984H119.129ZM117.817 3.648H116.449V5.648H117.817V3.648ZM120.657 16.528C120.657 16.784 120.626 17.0181 120.57 17.2335L122.504 17.7425C122.607 17.3499 122.657 16.944 122.657 16.528H120.657ZM120.573 17.2204C120.532 17.3691 120.465 17.4939 120.37 17.6052L121.888 18.9068C122.177 18.5701 122.382 18.1829 122.5 17.7556L120.573 17.2204ZM120.37 17.6052C120.29 17.6984 120.161 17.8011 119.95 17.8961L120.771 19.7199C121.2 19.5269 121.584 19.2616 121.888 18.9068L120.37 17.6052ZM119.989 17.8795C119.824 17.9457 119.56 18 119.161 18V20C119.722 20 120.258 19.9263 120.732 19.7365L119.989 17.8795ZM119.161 18H115.129V20H119.161V18ZM115.129 18C114.73 18 114.466 17.9457 114.3 17.8795L113.557 19.7365C114.032 19.9263 114.568 20 115.129 20V18ZM114.339 17.8961C114.128 17.8011 114 17.6984 113.92 17.6052L112.402 18.9068C112.706 19.2616 113.089 19.5269 113.518 19.7199L114.339 17.8961ZM113.92 17.6052C113.825 17.4939 113.758 17.3691 113.716 17.2204L111.789 17.7556C111.908 18.1829 112.113 18.5701 112.402 18.9068L113.92 17.6052ZM113.72 17.2335C113.663 17.0181 113.633 16.784 113.633 16.528H111.633C111.633 16.944 111.682 17.3499 111.786 17.7425L113.72 17.2335ZM113.633 16.528V3.856H111.633V16.528H113.633ZM113.633 3.856C113.633 3.34957 113.764 3.07116 113.921 2.90105L112.449 1.54694C111.869 2.17684 111.633 2.98643 111.633 3.856H113.633ZM113.92 2.90228C114.043 2.76814 114.323 2.6 114.985 2.6V0.599999C114.015 0.599999 113.094 0.847862 112.45 1.54572L113.92 2.90228ZM114.985 2.6H119.305V0.599999H114.985V2.6ZM119.305 2.6C119.971 2.6 120.228 2.7697 120.332 2.88657L121.83 1.56142C121.197 0.846297 120.271 0.599999 119.305 0.599999V2.6ZM120.359 2.91653C120.524 3.08793 120.657 3.36075 120.657 3.856H122.657C122.657 2.97525 122.406 2.16007 121.802 1.53147L120.359 2.91653ZM120.657 3.856V16.528H122.657V3.856H120.657ZM123.566 1.6V0.599999H122.566V1.6H123.566ZM131.654 1.6H132.654V0.599999H131.654V1.6ZM131.654 4.84V5.84H132.654V4.84H131.654ZM127.142 4.84V3.84H126.142V4.84H127.142ZM127.142 9.208H126.142V10.208H127.142V9.208ZM131.438 9.4L131.067 10.3285L131.087 10.3366L131.108 10.3439L131.438 9.4ZM132.206 9.88L132.941 9.20172L132.941 9.20172L132.206 9.88ZM132.59 10.624L131.614 10.8409L131.621 10.8738L131.631 10.9062L132.59 10.624ZM132.086 18.4L132.779 19.1208L132.786 19.114L132.793 19.1071L132.086 18.4ZM123.566 19H122.566V20H123.566V19ZM129.182 11.944L128.288 12.3912L128.36 12.5364L128.475 12.6511L129.182 11.944ZM127.142 11.848V10.848H126.142V11.848H127.142ZM127.142 15.952H126.142V16.952H127.142V15.952ZM123.566 2.6H131.654V0.599999H123.566V2.6ZM130.654 1.6V4.84H132.654V1.6H130.654ZM131.654 3.84H127.142V5.84H131.654V3.84ZM126.142 4.84V9.208H128.142V4.84H126.142ZM127.142 10.208H130.238V8.208H127.142V10.208ZM130.238 10.208C130.637 10.208 130.901 10.2623 131.067 10.3285L131.809 8.47152C131.335 8.28165 130.799 8.208 130.238 8.208V10.208ZM131.108 10.3439C131.303 10.4124 131.41 10.4922 131.471 10.5583L132.941 9.20172C132.618 8.8518 132.212 8.61159 131.768 8.45614L131.108 10.3439ZM131.471 10.5583C131.538 10.6309 131.586 10.7177 131.614 10.8409L133.566 10.4071C133.466 9.95426 133.258 9.54509 132.941 9.20172L131.471 10.5583ZM131.631 10.9062C131.679 11.0714 131.71 11.2784 131.71 11.536H133.71C133.71 11.1216 133.661 10.7206 133.549 10.3418L131.631 10.9062ZM131.71 11.536V16.528H133.71V11.536H131.71ZM131.71 16.528C131.71 17.2059 131.541 17.5306 131.379 17.6929L132.793 19.1071C133.463 18.4374 133.71 17.5141 133.71 16.528H131.71ZM131.393 17.6792C131.256 17.8107 130.882 18 129.998 18V20C131.066 20 132.084 19.7893 132.779 19.1208L131.393 17.6792ZM129.998 18H123.566V20H129.998V18ZM124.566 19V1.6H122.566V19H124.566ZM128.942 16.952C129.22 16.952 129.607 16.8737 129.909 16.5485C130.198 16.2372 130.254 15.8645 130.254 15.616H128.254C128.254 15.5915 128.258 15.3868 128.443 15.1875C128.641 14.9743 128.872 14.952 128.942 14.952V16.952ZM130.254 15.616V12.208H128.254V15.616H130.254ZM130.254 12.208C130.254 12.0246 130.234 11.5815 129.889 11.2369L128.475 12.6511C128.341 12.5169 128.29 12.3774 128.271 12.3091C128.253 12.2407 128.254 12.2001 128.254 12.208H130.254ZM130.076 11.4968C129.914 11.1722 129.642 11.0078 129.434 10.9322C129.238 10.8609 129.051 10.848 128.918 10.848V12.848C128.918 12.848 128.914 12.848 128.908 12.8476C128.902 12.8472 128.892 12.8464 128.879 12.8446C128.854 12.8413 128.809 12.833 128.75 12.8118C128.63 12.7682 128.418 12.6518 128.288 12.3912L130.076 11.4968ZM128.918 10.848H127.142V12.848H128.918V10.848ZM126.142 11.848V15.952H128.142V11.848H126.142ZM127.142 16.952H128.942V14.952H127.142V16.952ZM140.712 4.84L141.712 4.84169L141.713 3.84H140.712V4.84ZM140.136 4.936L140.452 5.88468L140.498 5.86942L140.542 5.84981L140.136 4.936ZM139.608 5.8L140.588 5.99612L140.588 5.99612L139.608 5.8ZM139.44 6.736L138.453 6.5716L138.451 6.58274L138.45 6.59391L139.44 6.736ZM138 16.768L137.01 16.6259L137.009 16.6296L138 16.768ZM137.688 19V20H138.558L138.678 19.1384L137.688 19ZM134.16 19L133.172 18.844L132.989 20H134.16V19ZM136.392 4.864L135.405 4.69959L135.404 4.70804L136.392 4.864ZM136.608 3.712L135.638 3.46946L135.633 3.48867L135.629 3.50805L136.608 3.712ZM137.04 2.68L136.201 2.13497L136.194 2.14601L137.04 2.68ZM137.904 1.912L138.366 2.79859L138.381 2.79082L138.396 2.78256L137.904 1.912ZM144.216 1.6H145.216V0.599999H144.216V1.6ZM144.216 19V20H145.216V19H144.216ZM140.688 19L139.688 18.9983L139.686 20H140.688V19ZM140.712 3.84C140.398 3.84 140.05 3.87955 139.73 4.02219L140.542 5.84981C140.521 5.85904 140.521 5.85562 140.552 5.85039C140.583 5.84525 140.635 5.84 140.712 5.84V3.84ZM139.819 3.98732C139.417 4.12148 139.116 4.39594 138.926 4.73836L140.674 5.70964C140.663 5.72934 140.638 5.76555 140.594 5.80326C140.549 5.8419 140.499 5.86899 140.452 5.88468L139.819 3.98732ZM138.926 4.73836C138.777 5.00524 138.687 5.30674 138.627 5.60388L140.588 5.99612C140.625 5.81326 140.662 5.73076 140.674 5.70964L138.926 4.73836ZM138.627 5.60388C138.576 5.85868 138.518 6.18238 138.453 6.5716L140.426 6.9004C140.489 6.52162 140.543 6.22132 140.588 5.99612L138.627 5.60388ZM138.45 6.59391L137.01 16.6259L138.99 16.9101L140.43 6.87808L138.45 6.59391ZM137.009 16.6296L136.697 18.8616L138.678 19.1384L138.99 16.9064L137.009 16.6296ZM137.688 18H134.16V20H137.688V18ZM135.147 19.156L137.379 5.01996L135.404 4.70804L133.172 18.844L135.147 19.156ZM137.378 5.0284C137.44 4.65773 137.509 4.28692 137.587 3.91595L135.629 3.50805C135.546 3.90508 135.472 4.30227 135.405 4.6996L137.378 5.0284ZM137.578 3.95454C137.651 3.66336 137.755 3.4195 137.885 3.21399L136.194 2.14601C135.94 2.5485 135.757 2.99264 135.638 3.46946L137.578 3.95454ZM137.878 3.22499C137.984 3.06176 138.137 2.91813 138.366 2.79859L137.441 1.02541C136.934 1.28986 136.511 1.65823 136.201 2.13501L137.878 3.22499ZM138.396 2.78256C138.556 2.69212 138.867 2.6 139.416 2.6V0.599999C138.685 0.599999 137.988 0.715876 137.412 1.04144L138.396 2.78256ZM139.416 2.6H144.216V0.599999H139.416V2.6ZM143.216 1.6V19H145.216V1.6H143.216ZM144.216 18H140.688V20H144.216V18ZM141.688 19.0017L141.712 4.84169L139.712 4.8383L139.688 18.9983L141.688 19.0017ZM149.471 16.84V15.84H148.605L148.482 16.697L149.471 16.84ZM149.159 19V20H150.025L150.149 19.143L149.159 19ZM145.655 19L144.671 18.8222L144.458 20H145.655V19ZM148.799 1.6V0.599999H147.964L147.815 1.42219L148.799 1.6ZM152.519 1.6L153.503 1.42219L153.355 0.599999H152.519V1.6ZM155.663 19V20H156.86L156.647 18.8222L155.663 19ZM152.159 19L151.17 19.143L151.293 20H152.159V19ZM151.847 16.84L152.837 16.697L152.713 15.84H151.847V16.84ZM149.855 14.08L148.864 13.9488L148.714 15.08H149.855V14.08ZM151.463 14.08V15.08H152.6L152.455 13.9526L151.463 14.08ZM150.671 7.912L151.663 7.78464L149.68 7.78085L150.671 7.912ZM148.482 16.697L148.17 18.857L150.149 19.143L150.461 16.983L148.482 16.697ZM149.159 18H145.655V20H149.159V18ZM146.639 19.1778L149.783 1.77781L147.815 1.42219L144.671 18.8222L146.639 19.1778ZM148.799 2.6H152.519V0.599999H148.799V2.6ZM151.535 1.77781L154.679 19.1778L156.647 18.8222L153.503 1.42219L151.535 1.77781ZM155.663 18H152.159V20H155.663V18ZM153.149 18.857L152.837 16.697L150.858 16.983L151.17 19.143L153.149 18.857ZM151.847 15.84H149.471V17.84H151.847V15.84ZM149.855 15.08H151.463V13.08H149.855V15.08ZM152.455 13.9526L151.663 7.78464L149.679 8.03936L150.471 14.2074L152.455 13.9526ZM149.68 7.78085L148.864 13.9488L150.847 14.2112L151.663 8.04315L149.68 7.78085ZM157.668 2.152L156.991 1.41607L156.983 1.42296L156.976 1.43001L157.668 2.152ZM164.316 1.6H165.316V0.599999H164.316V1.6ZM164.316 4.84V5.84H165.316V4.84H164.316ZM164.316 15.76H165.316V14.76H164.316V15.76ZM164.316 19V20H165.316V19H164.316ZM159.804 18C158.879 18 158.524 17.799 158.413 17.6829L156.971 19.0691C157.659 19.785 158.713 20 159.804 20V18ZM158.413 17.6829C158.279 17.5438 158.092 17.1749 158.092 16.312H156.092C156.092 17.3691 156.305 18.3762 156.971 19.0691L158.413 17.6829ZM158.092 16.312V3.736H156.092V16.312H158.092ZM158.092 3.736C158.092 3.23648 158.226 3.00217 158.36 2.87399L156.976 1.43001C156.342 2.03783 156.092 2.85952 156.092 3.736H158.092ZM158.345 2.88793C158.549 2.70055 158.79 2.6 159.132 2.6V0.599999C158.321 0.599999 157.587 0.86745 156.991 1.41607L158.345 2.88793ZM159.132 2.6H164.316V0.599999H159.132V2.6ZM163.316 1.6V4.84H165.316V1.6H163.316ZM164.316 3.84H160.98V5.84H164.316V3.84ZM160.98 3.84C160.702 3.84 160.315 3.9183 160.013 4.24355C159.724 4.55482 159.668 4.92751 159.668 5.176H161.668C161.668 5.20049 161.664 5.40518 161.479 5.60445C161.281 5.8177 161.05 5.84 160.98 5.84V3.84ZM159.668 5.176V15.424H161.668V5.176H159.668ZM159.668 15.424C159.668 15.6725 159.724 16.0452 160.013 16.3565C160.315 16.6817 160.702 16.76 160.98 16.76V14.76C161.05 14.76 161.281 14.7823 161.479 14.9955C161.664 15.1948 161.668 15.3995 161.668 15.424H159.668ZM160.98 16.76H164.316V14.76H160.98V16.76ZM163.316 15.76V19H165.316V15.76H163.316ZM164.316 18H159.804V20H164.316V18ZM173.714 1.6H174.714V0.599999H173.714V1.6ZM173.714 4.84V5.84H174.714V4.84H173.714ZM171.386 4.84V3.84H170.386V4.84H171.386ZM171.386 19V20H172.386V19H171.386ZM167.834 19H166.834V20H167.834V19ZM167.834 4.84H168.834V3.84H167.834V4.84ZM165.506 4.84H164.506V5.84H165.506V4.84ZM165.506 1.6V0.599999H164.506V1.6H165.506ZM172.714 1.6V4.84H174.714V1.6H172.714ZM173.714 3.84H171.386V5.84H173.714V3.84ZM170.386 4.84V19H172.386V4.84H170.386ZM171.386 18H167.834V20H171.386V18ZM168.834 19V4.84H166.834V19H168.834ZM167.834 3.84H165.506V5.84H167.834V3.84ZM166.506 4.84V1.6H164.506V4.84H166.506ZM165.506 2.6H173.714V0.599999H165.506V2.6ZM175.161 19H174.161V20H175.161V19ZM175.161 1.6V0.599999H174.161V1.6H175.161ZM178.617 1.6H179.617V0.599999H178.617V1.6ZM178.617 9.04H177.617V10.04H178.617V9.04ZM182.793 9.232L182.422 10.1605L182.442 10.1686L182.463 10.1759L182.793 9.232ZM183.561 9.712L184.296 9.03372L184.296 9.03372L183.561 9.712ZM183.945 10.456L182.969 10.6729L182.976 10.7058L182.986 10.7382L183.945 10.456ZM183.537 18.424L182.8 17.7483L182.792 17.7568L182.785 17.7655L183.537 18.424ZM180.609 12.136L179.715 12.5832L179.787 12.7284L179.902 12.8431L180.609 12.136ZM178.617 12.04V11.04H177.617V12.04H178.617ZM178.617 15.952H177.617V16.952H178.617V15.952ZM176.161 19V1.6H174.161V19H176.161ZM175.161 2.6H178.617V0.599999H175.161V2.6ZM177.617 1.6V9.04H179.617V1.6H177.617ZM178.617 10.04H181.593V8.04H178.617V10.04ZM181.593 10.04C181.992 10.04 182.257 10.0943 182.422 10.1605L183.165 8.30352C182.69 8.11365 182.154 8.04 181.593 8.04V10.04ZM182.463 10.1759C182.659 10.2444 182.765 10.3242 182.826 10.3903L184.296 9.03372C183.973 8.6838 183.568 8.44359 183.124 8.28814L182.463 10.1759ZM182.826 10.3903C182.893 10.4629 182.942 10.5497 182.969 10.6729L184.921 10.2391C184.821 9.78626 184.613 9.37709 184.296 9.03372L182.826 10.3903ZM182.986 10.7382C183.034 10.9034 183.065 11.1104 183.065 11.368H185.065C185.065 10.9536 185.016 10.5526 184.905 10.1738L182.986 10.7382ZM183.065 11.368V16.888H185.065V11.368H183.065ZM183.065 16.888C183.065 17.3378 182.946 17.5886 182.8 17.7483L184.274 19.0997C184.832 18.4914 185.065 17.7182 185.065 16.888H183.065ZM182.785 17.7655C182.699 17.864 182.507 18 182.001 18V20C182.872 20 183.704 19.752 184.29 19.0825L182.785 17.7655ZM182.001 18H175.161V20H182.001V18ZM180.369 16.952C180.647 16.952 181.034 16.8737 181.336 16.5485C181.625 16.2372 181.681 15.8645 181.681 15.616H179.681C179.681 15.5915 179.685 15.3868 179.87 15.1875C180.068 14.9743 180.299 14.952 180.369 14.952V16.952ZM181.681 15.616V12.4H179.681V15.616H181.681ZM181.681 12.4C181.681 12.2166 181.661 11.7735 181.316 11.4289L179.902 12.8431C179.768 12.7089 179.717 12.5694 179.698 12.5011C179.68 12.4327 179.681 12.3921 179.681 12.4H181.681ZM181.504 11.6888C181.341 11.3642 181.069 11.1998 180.861 11.1242C180.665 11.0529 180.478 11.04 180.345 11.04V13.04C180.345 13.04 180.341 13.04 180.335 13.0396C180.329 13.0392 180.319 13.0384 180.306 13.0366C180.282 13.0333 180.236 13.025 180.178 13.0038C180.058 12.9602 179.845 12.8438 179.715 12.5832L181.504 11.6888ZM180.345 11.04H178.617V13.04H180.345V11.04ZM177.617 12.04V15.952H179.617V12.04H177.617ZM178.617 16.952H180.369V14.952H178.617V16.952ZM189.436 18.28L190.374 18.6257L190.377 18.6181L190.38 18.6104L189.436 18.28ZM188.98 19.168L188.148 18.6133L188.13 18.6396L188.115 18.667L188.98 19.168ZM188.38 20.008L187.627 19.3495L187.606 19.3743L187.586 19.4006L188.38 20.008ZM187.756 20.704V21.704H188.147L188.434 21.4388L187.756 20.704ZM186.508 20.704L185.676 20.1493L184.639 21.704H186.508V20.704ZM186.94 19.96L186.068 19.4697L186.056 19.491L186.046 19.5128L186.94 19.96ZM187.276 19.168L188.235 19.4502L188.554 18.3672L187.44 18.1816L187.276 19.168ZM186.196 18.52L185.352 19.0569L185.361 19.0702L185.37 19.0833L186.196 18.52ZM186.86 17.392C186.86 17.1501 186.935 16.963 187.119 16.7791L185.705 15.3649C185.153 15.917 184.86 16.6099 184.86 17.392H186.86ZM187.119 16.7791C187.303 16.5952 187.49 16.52 187.732 16.52V14.52C186.95 14.52 186.257 14.8128 185.705 15.3649L187.119 16.7791ZM187.732 16.52C187.974 16.52 188.161 16.5952 188.345 16.7791L189.759 15.3649C189.207 14.8128 188.514 14.52 187.732 14.52V16.52ZM188.345 16.7791C188.529 16.963 188.604 17.1501 188.604 17.392H190.604C190.604 16.6099 190.311 15.917 189.759 15.3649L188.345 16.7791ZM188.604 17.392C188.604 17.5277 188.576 17.7107 188.492 17.9496L190.38 18.6104C190.52 18.2093 190.604 17.8003 190.604 17.392H188.604ZM188.498 17.9343C188.415 18.1599 188.299 18.3861 188.148 18.6133L189.812 19.7227C190.045 19.3739 190.233 19.0081 190.374 18.6257L188.498 17.9343ZM188.115 18.667C187.97 18.9168 187.807 19.1438 187.627 19.3495L189.133 20.6665C189.401 20.3602 189.638 20.0272 189.845 19.669L188.115 18.667ZM187.586 19.4006C187.406 19.636 187.236 19.8233 187.078 19.9692L188.434 21.4388C188.692 21.2007 188.938 20.924 189.174 20.6155L187.586 19.4006ZM187.756 19.704H186.508V21.704H187.756V19.704ZM187.34 21.2587C187.523 20.9845 187.688 20.7006 187.834 20.4072L186.046 19.5128C185.936 19.7314 185.813 19.9435 185.676 20.1493L187.34 21.2587ZM187.812 20.4503C187.991 20.1308 188.133 19.7972 188.235 19.4502L186.317 18.8858C186.259 19.0828 186.177 19.2772 186.068 19.4697L187.812 20.4503ZM187.44 18.1816C187.188 18.1395 187.086 18.0505 187.022 17.9567L185.37 19.0833C185.786 19.6935 186.404 20.0365 187.112 20.1544L187.44 18.1816ZM187.04 17.9831C186.913 17.7843 186.86 17.5934 186.86 17.392H184.86C184.86 17.9906 185.031 18.5517 185.352 19.0569L187.04 17.9831ZM204 19V20H205V19H204ZM200.448 19H199.448V20H200.448V19ZM200.448 12.04H201.448V11.04H200.448V12.04ZM198.552 12.04V11.04H197.552V12.04H198.552ZM198.552 19V20H199.552V19H198.552ZM195 19H194V20H195V19ZM195 1.6V0.599999H194V1.6H195ZM198.552 1.6H199.552V0.599999H198.552V1.6ZM198.552 9.04H197.552V10.04H198.552V9.04ZM200.448 9.04V10.04H201.448V9.04H200.448ZM200.448 1.6V0.599999H199.448V1.6H200.448ZM204 1.6H205V0.599999H204V1.6ZM204 18H200.448V20H204V18ZM201.448 19V12.04H199.448V19H201.448ZM200.448 11.04H198.552V13.04H200.448V11.04ZM197.552 12.04V19H199.552V12.04H197.552ZM198.552 18H195V20H198.552V18ZM196 19V1.6H194V19H196ZM195 2.6H198.552V0.599999H195V2.6ZM197.552 1.6V9.04H199.552V1.6H197.552ZM198.552 10.04H200.448V8.04H198.552V10.04ZM201.448 9.04V1.6H199.448V9.04H201.448ZM200.448 2.6H204V0.599999H200.448V2.6ZM203 1.6V19H205V1.6H203ZM209.461 9.064H208.461V10.064H209.461V9.064ZM209.989 9.064V10.064H210.779L210.962 9.29548L209.989 9.064ZM211.765 1.6V0.599999H210.975L210.793 1.36852L211.765 1.6ZM215.365 1.6L216.333 1.85207L216.659 0.599999H215.365V1.6ZM213.277 9.616L212.31 9.36393L212.249 9.5963L212.301 9.83081L213.277 9.616ZM215.341 19V20H216.585L216.318 18.7852L215.341 19ZM211.525 19L210.543 19.1873L210.698 20H211.525V19ZM210.157 11.824L211.14 11.6367L210.985 10.824H210.157V11.824ZM209.461 11.824V10.824H208.461V11.824H209.461ZM209.461 19V20H210.461V19H209.461ZM205.909 19H204.909V20H205.909V19ZM205.909 1.6V0.599999H204.909V1.6H205.909ZM209.461 1.6H210.461V0.599999H209.461V1.6ZM209.461 10.064H209.989V8.064H209.461V10.064ZM210.962 9.29548L212.738 1.83148L210.793 1.36852L209.017 8.83252L210.962 9.29548ZM211.765 2.6H215.365V0.599999H211.765V2.6ZM214.398 1.34793L212.31 9.36393L214.245 9.86807L216.333 1.85207L214.398 1.34793ZM212.301 9.83081L214.365 19.2148L216.318 18.7852L214.254 9.40119L212.301 9.83081ZM215.341 18H211.525V20H215.341V18ZM212.508 18.8127L211.14 11.6367L209.175 12.0113L210.543 19.1873L212.508 18.8127ZM210.157 10.824H209.461V12.824H210.157V10.824ZM208.461 11.824V19H210.461V11.824H208.461ZM209.461 18H205.909V20H209.461V18ZM206.909 19V1.6H204.909V19H206.909ZM205.909 2.6H209.461V0.599999H205.909V2.6ZM208.461 1.6V9.064H210.461V1.6H208.461ZM225.796 19V20H226.796V19H225.796ZM222.244 19H221.244V20H222.244V19ZM222.244 4.6H223.244V3.6H222.244V4.6ZM220.348 4.6V3.6H219.348V4.6H220.348ZM220.348 19V20H221.348V19H220.348ZM216.796 19H215.796V20H216.796V19ZM216.796 1.6V0.599999H215.796V1.6H216.796ZM225.796 1.6H226.796V0.599999H225.796V1.6ZM225.796 18H222.244V20H225.796V18ZM223.244 19V4.6H221.244V19H223.244ZM222.244 3.6H220.348V5.6H222.244V3.6ZM219.348 4.6V19H221.348V4.6H219.348ZM220.348 18H216.796V20H220.348V18ZM217.796 19V1.6H215.796V19H217.796ZM216.796 2.6H225.796V0.599999H216.796V2.6ZM224.796 1.6V19H226.796V1.6H224.796ZM234.641 4.648V3.648H233.641V4.648H234.641ZM234.641 11.488H233.641V12.488H234.641V11.488ZM236.633 11.416L235.833 10.816L235.817 10.8382L235.801 10.8613L236.633 11.416ZM239.561 2.176L238.809 2.8345L238.816 2.8432L238.824 2.85172L239.561 2.176ZM239.969 12.976L239.006 12.7084L239 12.7276L238.996 12.747L239.969 12.976ZM239.585 13.696L238.851 13.0177L238.851 13.0177L239.585 13.696ZM238.817 14.2L239.148 15.1439L239.168 15.1366L239.189 15.1285L238.817 14.2ZM234.641 14.368V13.368H233.641V14.368H234.641ZM234.641 19V20H235.641V19H234.641ZM231.185 19H230.185V20H231.185V19ZM231.185 1.6V0.599999H230.185V1.6H231.185ZM233.641 4.648V11.488H235.641V4.648H233.641ZM234.641 12.488H236.369V10.488H234.641V12.488ZM236.369 12.488C236.485 12.488 236.642 12.4796 236.806 12.4348C236.955 12.3942 237.257 12.2839 237.465 11.9707L235.801 10.8613C235.978 10.5961 236.22 10.5218 236.28 10.5052C236.357 10.4844 236.397 10.488 236.369 10.488V12.488ZM237.433 12.016C237.668 11.7026 237.705 11.3522 237.705 11.128H235.705C235.705 11.1328 235.705 11.104 235.717 11.0535C235.73 11.0019 235.761 10.9127 235.833 10.816L237.433 12.016ZM237.705 11.128V4.984H235.705V11.128H237.705ZM237.705 4.984C237.705 4.73551 237.649 4.36282 237.36 4.05155C237.058 3.7263 236.671 3.648 236.393 3.648V5.648C236.323 5.648 236.093 5.6257 235.895 5.41245C235.709 5.21318 235.705 5.00849 235.705 4.984H237.705ZM236.393 3.648H234.641V5.648H236.393V3.648ZM238.025 2.6C238.531 2.6 238.723 2.73604 238.809 2.8345L240.314 1.51749C239.728 0.847956 238.896 0.599999 238.025 0.599999V2.6ZM238.824 2.85172C238.971 3.01141 239.089 3.26223 239.089 3.712H241.089C241.089 2.88177 240.856 2.10859 240.298 1.50027L238.824 2.85172ZM239.089 3.712V12.04H241.089V3.712H239.089ZM239.089 12.04C239.089 12.2966 239.059 12.5175 239.006 12.7084L240.933 13.2436C241.04 12.8585 241.089 12.4554 241.089 12.04H239.089ZM238.996 12.747C238.972 12.8489 238.927 12.9347 238.851 13.0177L240.32 14.3743C240.627 14.0413 240.839 13.6471 240.943 13.205L238.996 12.747ZM238.851 13.0177C238.779 13.0951 238.657 13.187 238.446 13.2715L239.189 15.1285C239.617 14.957 240.008 14.7129 240.32 14.3743L238.851 13.0177ZM238.487 13.2561C238.307 13.319 238.028 13.368 237.617 13.368V15.368C238.167 15.368 238.687 15.305 239.148 15.1439L238.487 13.2561ZM237.617 13.368H234.641V15.368H237.617V13.368ZM233.641 14.368V19H235.641V14.368H233.641ZM234.641 18H231.185V20H234.641V18ZM232.185 19V1.6H230.185V19H232.185ZM231.185 2.6H238.025V0.599999H231.185V2.6ZM247.403 19V20H248.182L248.373 19.2447L247.403 19ZM243.683 19L242.713 18.7575L242.402 20H243.683V19ZM244.787 14.584L245.757 14.8265L245.819 14.5806L245.755 14.3352L244.787 14.584ZM241.451 1.6V0.599999H240.162L240.482 1.84885L241.451 1.6ZM245.051 1.6L246.033 1.41328L245.879 0.599999H245.051V1.6ZM246.611 9.808L245.629 9.99472L247.593 9.99749L246.611 9.808ZM248.195 1.6V0.599999H247.369L247.213 1.41051L248.195 1.6ZM251.795 1.6L252.765 1.84474L253.079 0.599999H251.795V1.6ZM247.403 18H243.683V20H247.403V18ZM244.653 19.2425L245.757 14.8265L243.817 14.3415L242.713 18.7575L244.653 19.2425ZM245.755 14.3352L242.419 1.35115L240.482 1.84885L243.818 14.8328L245.755 14.3352ZM241.451 2.6H245.051V0.599999H241.451V2.6ZM244.069 1.78672L245.629 9.99472L247.593 9.62128L246.033 1.41328L244.069 1.78672ZM247.593 9.99749L249.177 1.78949L247.213 1.41051L245.629 9.61851L247.593 9.99749ZM248.195 2.6H251.795V0.599999H248.195V2.6ZM250.825 1.35526L246.433 18.7553L248.373 19.2447L252.765 1.84474L250.825 1.35526ZM253.815 2.152L253.138 1.41607L253.131 1.42296L253.123 1.43001L253.815 2.152ZM260.463 1.6H261.463V0.599999H260.463V1.6ZM260.463 4.84V5.84H261.463V4.84H260.463ZM260.463 15.76H261.463V14.76H260.463V15.76ZM260.463 19V20H261.463V19H260.463ZM255.951 18C255.026 18 254.672 17.799 254.56 17.6829L253.118 19.0691C253.807 19.785 254.86 20 255.951 20V18ZM254.56 17.6829C254.426 17.5438 254.239 17.1749 254.239 16.312H252.239C252.239 17.3691 252.452 18.3762 253.118 19.0691L254.56 17.6829ZM254.239 16.312V3.736H252.239V16.312H254.239ZM254.239 3.736C254.239 3.23648 254.373 3.00217 254.507 2.87399L253.123 1.43001C252.489 2.03783 252.239 2.85952 252.239 3.736H254.239ZM254.492 2.88793C254.696 2.70055 254.937 2.6 255.279 2.6V0.599999C254.469 0.599999 253.734 0.86745 253.138 1.41607L254.492 2.88793ZM255.279 2.6H260.463V0.599999H255.279V2.6ZM259.463 1.6V4.84H261.463V1.6H259.463ZM260.463 3.84H257.127V5.84H260.463V3.84ZM257.127 3.84C256.849 3.84 256.462 3.9183 256.16 4.24355C255.871 4.55482 255.815 4.92751 255.815 5.176H257.815C257.815 5.20049 257.811 5.40518 257.626 5.60445C257.428 5.8177 257.197 5.84 257.127 5.84V3.84ZM255.815 5.176V15.424H257.815V5.176H255.815ZM255.815 15.424C255.815 15.6725 255.871 16.0452 256.16 16.3565C256.462 16.6817 256.849 16.76 257.127 16.76V14.76C257.197 14.76 257.428 14.7823 257.626 14.9955C257.811 15.1948 257.815 15.3995 257.815 15.424H255.815ZM257.127 16.76H260.463V14.76H257.127V16.76ZM259.463 15.76V19H261.463V15.76H259.463ZM260.463 18H255.951V20H260.463V18ZM262.133 19H261.133V20H262.133V19ZM262.133 1.6V0.599999H261.133V1.6H262.133ZM265.589 1.6H266.589V0.599999H265.589V1.6ZM265.589 9.04H264.589V10.04H265.589V9.04ZM269.765 9.232L269.394 10.1605L269.414 10.1686L269.435 10.1759L269.765 9.232ZM270.533 9.712L271.268 9.03372L271.268 9.03372L270.533 9.712ZM270.917 10.456L269.941 10.6729L269.948 10.7058L269.958 10.7382L270.917 10.456ZM270.509 18.424L269.772 17.7483L269.764 17.7568L269.757 17.7655L270.509 18.424ZM267.581 12.136L266.687 12.5832L266.759 12.7284L266.874 12.8431L267.581 12.136ZM265.589 12.04V11.04H264.589V12.04H265.589ZM265.589 15.952H264.589V16.952H265.589V15.952ZM263.133 19V1.6H261.133V19H263.133ZM262.133 2.6H265.589V0.599999H262.133V2.6ZM264.589 1.6V9.04H266.589V1.6H264.589ZM265.589 10.04H268.565V8.04H265.589V10.04ZM268.565 10.04C268.964 10.04 269.228 10.0943 269.394 10.1605L270.137 8.30352C269.662 8.11365 269.126 8.04 268.565 8.04V10.04ZM269.435 10.1759C269.631 10.2444 269.737 10.3242 269.798 10.3903L271.268 9.03372C270.945 8.6838 270.54 8.44359 270.095 8.28814L269.435 10.1759ZM269.798 10.3903C269.865 10.4629 269.914 10.5497 269.941 10.6729L271.893 10.2391C271.793 9.78626 271.585 9.37709 271.268 9.03372L269.798 10.3903ZM269.958 10.7382C270.006 10.9034 270.037 11.1104 270.037 11.368H272.037C272.037 10.9536 271.988 10.5526 271.876 10.1738L269.958 10.7382ZM270.037 11.368V16.888H272.037V11.368H270.037ZM270.037 16.888C270.037 17.3378 269.918 17.5886 269.772 17.7483L271.246 19.0997C271.804 18.4914 272.037 17.7182 272.037 16.888H270.037ZM269.757 17.7655C269.67 17.864 269.478 18 268.973 18V20C269.844 20 270.676 19.752 271.262 19.0825L269.757 17.7655ZM268.973 18H262.133V20H268.973V18ZM267.341 16.952C267.619 16.952 268.006 16.8737 268.308 16.5485C268.597 16.2372 268.653 15.8645 268.653 15.616H266.653C266.653 15.5915 266.657 15.3868 266.842 15.1875C267.04 14.9743 267.271 14.952 267.341 14.952V16.952ZM268.653 15.616V12.4H266.653V15.616H268.653ZM268.653 12.4C268.653 12.2166 268.633 11.7735 268.288 11.4289L266.874 12.8431C266.74 12.7089 266.689 12.5694 266.67 12.5011C266.652 12.4327 266.653 12.3921 266.653 12.4H268.653ZM268.476 11.6888C268.313 11.3642 268.041 11.1998 267.833 11.1242C267.637 11.0529 267.45 11.04 267.317 11.04V13.04C267.317 13.04 267.313 13.04 267.307 13.0396C267.301 13.0392 267.291 13.0384 267.278 13.0366C267.254 13.0333 267.208 13.025 267.149 13.0038C267.029 12.9602 266.817 12.8438 266.687 12.5832L268.476 11.6888ZM267.317 11.04H265.589V13.04H267.317V11.04ZM264.589 12.04V15.952H266.589V12.04H264.589ZM265.589 16.952H267.341V14.952H265.589V16.952Z" fill="#1B1B1B" mask="url(#path-1-outside-1_2900_96)"></path></svg> 
